# Blender 5.0.0
# www.blender.org
mtllib lampadaire.mtl
o Cône
v 0.000000 0.068003 -1.931997
v 0.376914 0.068003 -1.894874
v 0.739343 0.068003 -1.784932
v 1.073360 0.068003 -1.606397
v 1.366128 0.068003 -1.366128
v 1.606397 0.068003 -1.073360
v 1.784932 0.068003 -0.739343
v 1.894874 0.068003 -0.376914
v 1.931997 0.068003 0.000000
v 1.894874 0.068003 0.376914
v 1.784932 0.068003 0.739343
v 1.606397 0.068003 1.073360
v 1.366128 0.068003 1.366128
v 1.073360 0.068003 1.606397
v 0.739343 0.068003 1.784932
v 0.376914 0.068003 1.894874
v 0.000000 0.068003 1.931997
v -0.376914 0.068003 1.894874
v -0.739343 0.068003 1.784932
v -1.073360 0.068003 1.606397
v -1.366128 0.068003 1.366128
v -1.606397 0.068003 1.073360
v -1.784932 0.068003 0.739343
v -1.894874 0.068003 0.376914
v -1.931997 0.068003 0.000000
v -1.894874 0.068003 -0.376914
v -1.784932 0.068003 -0.739343
v -1.606397 0.068003 -1.073360
v -1.366128 0.068003 -1.366128
v -1.073360 0.068003 -1.606397
v -0.739343 0.068003 -1.784932
v -0.376914 0.068003 -1.894874
v 0.000000 3.931997 0.000000
vn 0.0878 0.4455 -0.8910
vn 0.2599 0.4455 -0.8567
vn 0.4220 0.4455 -0.7896
vn 0.5680 0.4455 -0.6921
vn 0.6921 0.4455 -0.5680
vn 0.7896 0.4455 -0.4220
vn 0.8567 0.4455 -0.2599
vn 0.8910 0.4455 -0.0878
vn 0.8910 0.4455 0.0878
vn 0.8567 0.4455 0.2599
vn 0.7896 0.4455 0.4220
vn 0.6921 0.4455 0.5680
vn 0.5680 0.4455 0.6921
vn 0.4220 0.4455 0.7896
vn 0.2599 0.4455 0.8567
vn 0.0878 0.4455 0.8910
vn -0.0878 0.4455 0.8910
vn -0.2599 0.4455 0.8567
vn -0.4220 0.4455 0.7896
vn -0.5680 0.4455 0.6921
vn -0.6921 0.4455 0.5680
vn -0.7896 0.4455 0.4220
vn -0.8567 0.4455 0.2599
vn -0.8910 0.4455 0.0878
vn -0.8910 0.4455 -0.0878
vn -0.8567 0.4455 -0.2599
vn -0.7896 0.4455 -0.4220
vn -0.6921 0.4455 -0.5680
vn -0.5680 0.4455 -0.6921
vn -0.4220 0.4455 -0.7896
vn -0.0000 -1.0000 -0.0000
vn -0.2599 0.4455 -0.8567
vn -0.0878 0.4455 -0.8910
vt 0.595425 0.509302
vt 0.456677 0.257029
vt 0.613692 0.496900
vt 0.628422 0.483655
vt 0.628422 0.543720
vt 0.628422 0.257029
vt 0.650497 0.544092
vt 0.674222 0.541808
vt 0.698684 0.536956
vt 0.722944 0.529722
vt 0.746069 0.520385
vt 0.767170 0.509302
vt 0.785436 0.496900
vt 0.800166 0.483655
vt 0.257029 0.801993
vt 0.257029 0.515302
vt 0.279105 0.802365
vt 0.302830 0.800081
vt 0.327292 0.795229
vt 0.351552 0.787995
vt 0.374676 0.778657
vt 0.395777 0.767575
vt 0.414044 0.755173
vt 0.428774 0.741928
vt 0.000000 0.800749
vt 0.000000 0.514058
vt 0.022076 0.801121
vt 0.045801 0.798838
vt 0.070263 0.793985
vt 0.094522 0.786752
vt 0.117647 0.777414
vt 0.138748 0.766331
vt 0.157015 0.753929
vt 0.171745 0.740684
vt 0.456677 0.543720
vt 0.478753 0.544092
vt 0.502477 0.541808
vt 0.526940 0.536956
vt 0.551199 0.529722
vt 0.028691 0.210438
vt 0.014626 0.189389
vt 0.004939 0.166001
vt 0.000000 0.141172
vt 0.000000 0.115857
vt 0.004939 0.091028
vt 0.014626 0.067640
vt 0.028691 0.046591
vt 0.046591 0.028691
vt 0.067640 0.014626
vt 0.091028 0.004939
vt 0.115857 0.000000
vt 0.141172 0.000000
vt 0.166001 0.004939
vt 0.189389 0.014626
vt 0.210438 0.028691
vt 0.228338 0.046591
vt 0.242403 0.067640
vt 0.252091 0.091028
vt 0.257029 0.115857
vt 0.257029 0.141172
vt 0.252091 0.166001
vt 0.242403 0.189389
vt 0.228338 0.210438
vt 0.210438 0.228338
vt 0.189389 0.242403
vt 0.166001 0.252091
vt 0.141172 0.257029
vt 0.115857 0.257029
vt 0.091028 0.252091
vt 0.067640 0.242403
vt 0.046591 0.228338
vt 0.574324 0.520384
s 0
f 1/1/1 33/2/1 2/3/1
f 2/3/2 33/2/2 3/4/2
f 3/5/3 33/6/3 4/7/3
f 4/7/4 33/6/4 5/8/4
f 5/8/5 33/6/5 6/9/5
f 6/9/6 33/6/6 7/10/6
f 7/10/7 33/6/7 8/11/7
f 8/11/8 33/6/8 9/12/8
f 9/12/9 33/6/9 10/13/9
f 10/13/10 33/6/10 11/14/10
f 11/15/11 33/16/11 12/17/11
f 12/17/12 33/16/12 13/18/12
f 13/18/13 33/16/13 14/19/13
f 14/19/14 33/16/14 15/20/14
f 15/20/15 33/16/15 16/21/15
f 16/21/16 33/16/16 17/22/16
f 17/22/17 33/16/17 18/23/17
f 18/23/18 33/16/18 19/24/18
f 19/25/19 33/26/19 20/27/19
f 20/27/20 33/26/20 21/28/20
f 21/28/21 33/26/21 22/29/21
f 22/29/22 33/26/22 23/30/22
f 23/30/23 33/26/23 24/31/23
f 24/31/24 33/26/24 25/32/24
f 25/32/25 33/26/25 26/33/25
f 26/33/26 33/26/26 27/34/26
f 27/35/27 33/2/27 28/36/27
f 28/36/28 33/2/28 29/37/28
f 29/37/29 33/2/29 30/38/29
f 30/38/30 33/2/30 31/39/30
f 1/40/31 2/41/31 3/42/31 4/43/31 5/44/31 6/45/31 7/46/31 8/47/31 9/48/31 10/49/31 11/50/31 12/51/31 13/52/31 14/53/31 15/54/31 16/55/31 17/56/31 18/57/31 19/58/31 20/59/31 21/60/31 22/61/31 23/62/31 24/63/31 25/64/31 26/65/31 27/66/31 28/67/31 29/68/31 30/69/31 31/70/31 32/71/31
f 31/39/32 33/2/32 32/72/32
f 32/72/33 33/2/33 1/1/33
o Cylindre
v 0.000000 1.712415 -0.976291
v 0.000000 23.171394 -0.976291
v 0.190465 1.712415 -0.957532
v 0.190465 23.171394 -0.957532
v 0.373610 1.712415 -0.901975
v 0.373610 23.171394 -0.901975
v 0.542398 1.712415 -0.811756
v 0.542398 23.171394 -0.811756
v 0.690342 1.712415 -0.690342
v 0.690342 23.171394 -0.690342
v 0.811756 1.712415 -0.542398
v 0.811756 23.171394 -0.542398
v 0.901975 1.712415 -0.373610
v 0.901975 23.171394 -0.373610
v 0.957532 1.712415 -0.190465
v 0.957532 23.171394 -0.190465
v 0.976291 1.712415 0.000000
v 0.976291 23.171394 0.000000
v 0.957532 1.712415 0.190465
v 0.957532 23.171394 0.190465
v 0.901975 1.712415 0.373610
v 0.901975 23.171394 0.373610
v 0.811756 1.712415 0.542398
v 0.811756 23.171394 0.542398
v 0.690342 1.712415 0.690342
v 0.690342 23.171394 0.690342
v 0.542398 1.712415 0.811756
v 0.542398 23.171394 0.811756
v 0.373610 1.712415 0.901975
v 0.373610 23.171394 0.901975
v 0.190465 1.712415 0.957532
v 0.190465 23.171394 0.957532
v 0.000000 1.712415 0.976291
v 0.000000 23.171394 0.976291
v -0.190465 1.712415 0.957532
v -0.190465 23.171394 0.957532
v -0.373610 1.712415 0.901975
v -0.373610 23.171394 0.901975
v -0.542398 1.712415 0.811756
v -0.542398 23.171394 0.811756
v -0.690342 1.712415 0.690342
v -0.690342 23.171394 0.690342
v -0.811756 1.712415 0.542398
v -0.811756 23.171394 0.542398
v -0.901975 1.712415 0.373610
v -0.901975 23.171394 0.373610
v -0.957532 1.712415 0.190465
v -0.957532 23.171394 0.190465
v -0.976291 1.712415 0.000000
v -0.976291 23.171394 0.000000
v -0.957532 1.712415 -0.190465
v -0.957532 23.171394 -0.190465
v -0.901975 1.712415 -0.373610
v -0.901975 23.171394 -0.373610
v -0.811756 1.712415 -0.542398
v -0.811756 23.171394 -0.542398
v -0.690342 1.712415 -0.690342
v -0.690342 23.171394 -0.690342
v -0.542398 1.712415 -0.811756
v -0.542398 23.171394 -0.811756
v -0.373610 1.712415 -0.901975
v -0.373610 23.171394 -0.901975
v -0.190465 1.712415 -0.957532
v -0.190465 23.171394 -0.957532
vn 0.0980 -0.0000 -0.9952
vn 0.2903 -0.0000 -0.9569
vn 0.4714 -0.0000 -0.8819
vn 0.6344 -0.0000 -0.7730
vn 0.7730 -0.0000 -0.6344
vn 0.8819 -0.0000 -0.4714
vn 0.9569 -0.0000 -0.2903
vn 0.9952 -0.0000 -0.0980
vn 0.9952 -0.0000 0.0980
vn 0.9569 -0.0000 0.2903
vn 0.8819 -0.0000 0.4714
vn 0.7730 -0.0000 0.6344
vn 0.6344 -0.0000 0.7730
vn 0.4714 -0.0000 0.8819
vn 0.2903 -0.0000 0.9569
vn 0.0980 -0.0000 0.9952
vn -0.0980 -0.0000 0.9952
vn -0.2903 -0.0000 0.9569
vn -0.4714 -0.0000 0.8819
vn -0.6344 -0.0000 0.7730
vn -0.7730 -0.0000 0.6344
vn -0.8819 -0.0000 0.4714
vn -0.9569 -0.0000 0.2903
vn -0.9952 -0.0000 0.0980
vn -0.9952 -0.0000 -0.0980
vn -0.9569 -0.0000 -0.2903
vn -0.8819 -0.0000 -0.4714
vn -0.7730 -0.0000 -0.6344
vn -0.6344 -0.0000 -0.7730
vn -0.4714 -0.0000 -0.8819
vn -0.0000 1.0000 -0.0000
vn -0.2903 -0.0000 -0.9569
vn -0.0980 -0.0000 -0.9952
vn -0.0000 -1.0000 -0.0000
vt 0.569158 0.802365
vt 0.569158 0.544092
vt 0.593987 0.544092
vt 0.593987 0.802365
vt 0.617375 0.544092
vt 0.617375 0.802365
vt 0.638424 0.544092
vt 0.638424 0.802365
vt 0.257029 0.515302
vt 0.257029 0.257029
vt 0.274930 0.257029
vt 0.274930 0.515302
vt 0.295979 0.257029
vt 0.295979 0.515302
vt 0.319367 0.257029
vt 0.319367 0.515302
vt 0.344195 0.257029
vt 0.344195 0.515302
vt 0.369511 0.257029
vt 0.369511 0.515302
vt 0.394339 0.257029
vt 0.394339 0.515302
vt 0.417728 0.257029
vt 0.417728 0.515302
vt 0.438776 0.257029
vt 0.438776 0.515302
vt 0.456677 0.257029
vt 0.456677 0.515302
vt 0.656325 0.544092
vt 0.656325 0.802365
vt 0.677373 0.544092
vt 0.677373 0.802365
vt 0.700762 0.544092
vt 0.700762 0.802365
vt 0.725590 0.544092
vt 0.725590 0.802365
vt 0.750905 0.544092
vt 0.750905 0.802365
vt 0.775734 0.544092
vt 0.775734 0.802365
vt 0.799122 0.544092
vt 0.799122 0.802365
vt 0.820171 0.544092
vt 0.820171 0.802365
vt 0.800166 0.515302
vt 0.800166 0.257029
vt 0.821215 0.257029
vt 0.821215 0.515302
vt 0.844603 0.257029
vt 0.844603 0.515302
vt 0.869432 0.257029
vt 0.869432 0.515302
vt 0.894747 0.257029
vt 0.894747 0.515302
vt 0.919576 0.257029
vt 0.919576 0.515302
vt 0.942964 0.257029
vt 0.942964 0.515302
vt 0.964013 0.257029
vt 0.964013 0.515302
vt 0.456677 0.802365
vt 0.456677 0.544092
vt 0.474577 0.544092
vt 0.474577 0.802365
vt 0.495626 0.544092
vt 0.495626 0.802365
vt 0.519014 0.544092
vt 0.519014 0.802365
vt 0.046591 0.485368
vt 0.028691 0.467467
vt 0.014626 0.446418
vt 0.004939 0.423030
vt 0.000000 0.398201
vt 0.000000 0.372886
vt 0.004939 0.348058
vt 0.014626 0.324669
vt 0.028691 0.303621
vt 0.046591 0.285720
vt 0.067640 0.271656
vt 0.091028 0.261968
vt 0.115857 0.257029
vt 0.141172 0.257029
vt 0.166001 0.261968
vt 0.189389 0.271656
vt 0.210438 0.285720
vt 0.228338 0.303621
vt 0.242403 0.324669
vt 0.252091 0.348058
vt 0.257029 0.372886
vt 0.257029 0.398201
vt 0.252091 0.423030
vt 0.242403 0.446418
vt 0.228338 0.467467
vt 0.210438 0.485368
vt 0.189389 0.499432
vt 0.166001 0.509120
vt 0.141172 0.514058
vt 0.115857 0.514058
vt 0.091028 0.509120
vt 0.067640 0.499432
vt 0.543843 0.544092
vt 0.543843 0.802365
vt 0.285720 0.210438
vt 0.271656 0.189389
vt 0.261968 0.166001
vt 0.257029 0.141172
vt 0.257029 0.115857
vt 0.261968 0.091028
vt 0.271656 0.067640
vt 0.285720 0.046591
vt 0.303621 0.028691
vt 0.324669 0.014626
vt 0.348058 0.004939
vt 0.372886 -0.000000
vt 0.398201 -0.000000
vt 0.423030 0.004939
vt 0.446418 0.014626
vt 0.467467 0.028691
vt 0.485368 0.046591
vt 0.499432 0.067640
vt 0.509120 0.091028
vt 0.514058 0.115857
vt 0.514058 0.141172
vt 0.509120 0.166001
vt 0.499432 0.189389
vt 0.485368 0.210438
vt 0.467467 0.228338
vt 0.446418 0.242403
vt 0.423030 0.252090
vt 0.398201 0.257029
vt 0.372886 0.257029
vt 0.348058 0.252090
vt 0.324669 0.242403
vt 0.303621 0.228338
s 0
usemtl Matériau.001
f 34/73/34 35/74/34 37/75/34 36/76/34
f 36/76/35 37/75/35 39/77/35 38/78/35
f 38/78/36 39/77/36 41/79/36 40/80/36
f 40/81/37 41/82/37 43/83/37 42/84/37
f 42/84/38 43/83/38 45/85/38 44/86/38
f 44/86/39 45/85/39 47/87/39 46/88/39
f 46/88/40 47/87/40 49/89/40 48/90/40
f 48/90/41 49/89/41 51/91/41 50/92/41
f 50/92/42 51/91/42 53/93/42 52/94/42
f 52/94/43 53/93/43 55/95/43 54/96/43
f 54/96/44 55/95/44 57/97/44 56/98/44
f 56/98/45 57/97/45 59/99/45 58/100/45
f 58/80/46 59/79/46 61/101/46 60/102/46
f 60/102/47 61/101/47 63/103/47 62/104/47
f 62/104/48 63/103/48 65/105/48 64/106/48
f 64/106/49 65/105/49 67/107/49 66/108/49
f 66/108/50 67/107/50 69/109/50 68/110/50
f 68/110/51 69/109/51 71/111/51 70/112/51
f 70/112/52 71/111/52 73/113/52 72/114/52
f 72/114/53 73/113/53 75/115/53 74/116/53
f 74/117/54 75/118/54 77/119/54 76/120/54
f 76/120/55 77/119/55 79/121/55 78/122/55
f 78/122/56 79/121/56 81/123/56 80/124/56
f 80/124/57 81/123/57 83/125/57 82/126/57
f 82/126/58 83/125/58 85/127/58 84/128/58
f 84/128/59 85/127/59 87/129/59 86/130/59
f 86/130/60 87/129/60 89/131/60 88/132/60
f 88/133/61 89/134/61 91/135/61 90/136/61
f 90/136/62 91/135/62 93/137/62 92/138/62
f 92/138/63 93/137/63 95/139/63 94/140/63
f 37/141/64 35/142/64 97/143/64 95/144/64 93/145/64 91/146/64 89/147/64 87/148/64 85/149/64 83/150/64 81/151/64 79/152/64 77/153/64 75/154/64 73/155/64 71/156/64 69/157/64 67/158/64 65/159/64 63/160/64 61/161/64 59/162/64 57/163/64 55/164/64 53/165/64 51/166/64 49/167/64 47/168/64 45/169/64 43/170/64 41/171/64 39/172/64
f 94/140/65 95/139/65 97/173/65 96/174/65
f 96/174/66 97/173/66 35/74/66 34/73/66
f 34/175/67 36/176/67 38/177/67 40/178/67 42/179/67 44/180/67 46/181/67 48/182/67 50/183/67 52/184/67 54/185/67 56/186/67 58/187/67 60/188/67 62/189/67 64/190/67 66/191/67 68/192/67 70/193/67 72/194/67 74/195/67 76/196/67 78/197/67 80/198/67 82/199/67 84/200/67 86/201/67 88/202/67 90/203/67 92/204/67 94/205/67 96/206/67
o Sphère
v 0.000000 23.633535 0.000000
v 0.000000 23.317343 -1.042348
v 0.000000 22.799707 -1.559984
v 0.000000 22.123383 -1.840127
v 0.000000 21.757359 -1.876177
v 0.000000 21.391335 -1.840127
v 0.000000 20.715010 -1.559984
v 0.000000 19.881182 0.000000
v 0.071408 23.597486 -0.358991
v 0.140071 23.490721 -0.704186
v 0.203352 23.317343 -1.022320
v 0.258818 23.084017 -1.301166
v 0.304338 22.799707 -1.530010
v 0.338162 22.475340 -1.700056
v 0.358991 22.123383 -1.804770
v 0.366024 21.757359 -1.840127
v 0.358991 21.391335 -1.804770
v 0.338162 21.039377 -1.700056
v 0.304338 20.715010 -1.530010
v 0.258818 20.430700 -1.301166
v 0.203352 20.197374 -1.022320
v 0.140071 20.023996 -0.704186
v 0.071408 19.917231 -0.358991
v 0.140071 23.597486 -0.338162
v 0.274760 23.490721 -0.663329
v 0.398889 23.317343 -0.963004
v 0.507690 23.084017 -1.225672
v 0.596980 22.799707 -1.441238
v 0.663329 22.475340 -1.601418
v 0.704186 22.123383 -1.700056
v 0.717982 21.757359 -1.733362
v 0.704186 21.391335 -1.700056
v 0.663329 21.039377 -1.601418
v 0.596980 20.715010 -1.441238
v 0.507690 20.430700 -1.225672
v 0.398889 20.197374 -0.963004
v 0.274760 20.023996 -0.663329
v 0.140071 19.917231 -0.338162
v 0.203352 23.597486 -0.304338
v 0.398889 23.490721 -0.596980
v 0.579098 23.317343 -0.866681
v 0.737052 23.084017 -1.103076
v 0.866681 22.799707 -1.297079
v 0.963004 22.475340 -1.441238
v 1.022320 22.123383 -1.530010
v 1.042348 21.757359 -1.559984
v 1.022320 21.391335 -1.530010
v 0.963004 21.039377 -1.441238
v 0.866681 20.715010 -1.297079
v 0.737052 20.430700 -1.103076
v 0.579098 20.197374 -0.866681
v 0.398889 20.023996 -0.596980
v 0.203352 19.917231 -0.304338
v 0.258818 23.597486 -0.258818
v 0.507690 23.490721 -0.507690
v 0.737051 23.317343 -0.737051
v 0.938089 23.084017 -0.938089
v 1.103076 22.799707 -1.103075
v 1.225672 22.475340 -1.225672
v 1.301166 22.123383 -1.301166
v 1.326658 21.757359 -1.326657
v 1.301166 21.391335 -1.301166
v 1.225672 21.039377 -1.225672
v 1.103076 20.715010 -1.103075
v 0.938089 20.430700 -0.938089
v 0.737051 20.197374 -0.737051
v 0.507690 20.023996 -0.507690
v 0.258818 19.917231 -0.258818
v 0.304338 23.597486 -0.203352
v 0.596980 23.490721 -0.398889
v 0.866681 23.317343 -0.579098
v 1.103076 23.084017 -0.737052
v 1.297080 22.799707 -0.866681
v 1.441238 22.475340 -0.963004
v 1.530010 22.123383 -1.022320
v 1.559984 21.757359 -1.042348
v 1.530010 21.391335 -1.022320
v 1.441238 21.039377 -0.963004
v 1.297080 20.715010 -0.866681
v 1.103076 20.430700 -0.737052
v 0.866681 20.197374 -0.579098
v 0.596980 20.023996 -0.398889
v 0.304338 19.917231 -0.203352
v 0.338162 23.597486 -0.140071
v 0.663329 23.490721 -0.274760
v 0.963004 23.317343 -0.398889
v 1.225672 23.084017 -0.507690
v 1.441238 22.799707 -0.596980
v 1.601417 22.475340 -0.663329
v 1.700056 22.123383 -0.704186
v 1.733362 21.757359 -0.717982
v 1.700056 21.391335 -0.704186
v 1.601417 21.039377 -0.663329
v 1.441238 20.715010 -0.596980
v 1.225672 20.430700 -0.507690
v 0.963004 20.197374 -0.398889
v 0.663329 20.023996 -0.274760
v 0.338162 19.917231 -0.140071
v 0.358991 23.597486 -0.071408
v 0.704186 23.490721 -0.140071
v 1.022320 23.317343 -0.203352
v 1.301166 23.084017 -0.258818
v 1.530010 22.799707 -0.304338
v 1.700056 22.475340 -0.338162
v 1.804769 22.123383 -0.358991
v 1.840127 21.757359 -0.366024
v 1.804769 21.391335 -0.358991
v 1.700056 21.039377 -0.338162
v 1.530010 20.715010 -0.304338
v 1.301166 20.430700 -0.258818
v 1.022320 20.197374 -0.203352
v 0.704186 20.023996 -0.140071
v 0.358991 19.917231 -0.071408
v 0.366024 23.597486 0.000000
v 0.717982 23.490721 0.000000
v 1.042348 23.317343 0.000000
v 1.326658 23.084017 -0.000000
v 1.559984 22.799707 0.000000
v 1.733362 22.475340 -0.000000
v 1.840127 22.123383 0.000000
v 1.876177 21.757359 0.000000
v 1.840127 21.391335 0.000000
v 1.733362 21.039377 -0.000000
v 1.559984 20.715010 0.000000
v 1.326658 20.430700 -0.000000
v 1.042348 20.197374 0.000000
v 0.717982 20.023996 0.000000
v 0.366024 19.917231 0.000000
v 0.358991 23.597486 0.071408
v 0.704186 23.490721 0.140071
v 1.022320 23.317343 0.203352
v 1.301166 23.084017 0.258818
v 1.530009 22.799707 0.304338
v 1.700056 22.475340 0.338162
v 1.804769 22.123383 0.358991
v 1.840127 21.757359 0.366024
v 1.804769 21.391335 0.358991
v 1.700056 21.039377 0.338162
v 1.530009 20.715010 0.304338
v 1.301166 20.430700 0.258818
v 1.022320 20.197374 0.203352
v 0.704186 20.023996 0.140071
v 0.358991 19.917231 0.071408
v 0.338162 23.597486 0.140071
v 0.663329 23.490721 0.274760
v 0.963004 23.317343 0.398889
v 1.225672 23.084017 0.507690
v 1.441237 22.799707 0.596980
v 1.601417 22.475340 0.663329
v 1.700055 22.123383 0.704186
v 1.733361 21.757359 0.717982
v 1.700055 21.391335 0.704186
v 1.601417 21.039377 0.663329
v 1.441237 20.715010 0.596980
v 1.225672 20.430700 0.507690
v 0.963004 20.197374 0.398889
v 0.663329 20.023996 0.274760
v 0.338162 19.917231 0.140071
v 0.304338 23.597486 0.203352
v 0.596980 23.490721 0.398889
v 0.866681 23.317343 0.579098
v 1.103076 23.084017 0.737051
v 1.297079 22.799707 0.866681
v 1.441238 22.475340 0.963004
v 1.530009 22.123383 1.022320
v 1.559984 21.757359 1.042348
v 1.530009 21.391335 1.022320
v 1.441238 21.039377 0.963004
v 1.297079 20.715010 0.866681
v 1.103076 20.430700 0.737051
v 0.866681 20.197374 0.579098
v 0.596980 20.023996 0.398889
v 0.304338 19.917231 0.203352
v 0.258818 23.597486 0.258818
v 0.507690 23.490721 0.507690
v 0.737051 23.317343 0.737051
v 0.938089 23.084017 0.938089
v 1.103075 22.799707 1.103075
v 1.225672 22.475340 1.225672
v 1.301166 22.123383 1.301166
v 1.326657 21.757359 1.326658
v 1.301166 21.391335 1.301166
v 1.225672 21.039377 1.225672
v 1.103075 20.715010 1.103075
v 0.938089 20.430700 0.938089
v 0.737051 20.197374 0.737051
v 0.507690 20.023996 0.507690
v 0.258818 19.917231 0.258818
v 0.203352 23.597486 0.304338
v 0.398889 23.490721 0.596980
v 0.579097 23.317343 0.866681
v 0.737051 23.084017 1.103076
v 0.866681 22.799707 1.297079
v 0.963004 22.475340 1.441237
v 1.022319 22.123383 1.530010
v 1.042347 21.757359 1.559984
v 1.022319 21.391335 1.530010
v 0.963004 21.039377 1.441237
v 0.866681 20.715010 1.297079
v 0.737051 20.430700 1.103076
v 0.579097 20.197374 0.866681
v 0.398889 20.023996 0.596980
v 0.203352 19.917231 0.304338
v 0.140071 23.597486 0.338162
v 0.274760 23.490721 0.663329
v 0.398889 23.317343 0.963004
v 0.507690 23.084017 1.225672
v 0.596980 22.799707 1.441237
v 0.663329 22.475340 1.601417
v 0.704186 22.123383 1.700055
v 0.717981 21.757359 1.733361
v 0.704186 21.391335 1.700055
v 0.663329 21.039377 1.601417
v 0.596980 20.715010 1.441237
v 0.507690 20.430700 1.225672
v 0.398889 20.197374 0.963004
v 0.274760 20.023996 0.663329
v 0.140071 19.917231 0.338162
v 0.071408 23.597486 0.358991
v 0.140071 23.490721 0.704186
v 0.203352 23.317343 1.022319
v 0.258818 23.084017 1.301166
v 0.304338 22.799707 1.530009
v 0.338162 22.475340 1.700055
v 0.358991 22.123383 1.804769
v 0.366023 21.757359 1.840126
v 0.358991 21.391335 1.804769
v 0.338162 21.039377 1.700055
v 0.304338 20.715010 1.530009
v 0.258818 20.430700 1.301166
v 0.203352 20.197374 1.022319
v 0.140071 20.023996 0.704186
v 0.071408 19.917231 0.358991
v -0.000000 23.597486 0.366024
v -0.000000 23.490721 0.717982
v -0.000000 23.317343 1.042348
v -0.000000 23.084017 1.326658
v -0.000000 22.799707 1.559984
v 0.000000 22.475340 1.733361
v -0.000000 22.123383 1.840127
v -0.000001 21.757359 1.876176
v -0.000000 21.391335 1.840127
v 0.000000 21.039377 1.733361
v -0.000000 20.715010 1.559984
v -0.000000 20.430700 1.326658
v -0.000000 20.197374 1.042348
v -0.000000 20.023996 0.717982
v -0.000000 19.917231 0.366024
v -0.071408 23.597486 0.358991
v -0.140071 23.490721 0.704186
v -0.203352 23.317343 1.022319
v -0.258818 23.084017 1.301166
v -0.304338 22.799707 1.530009
v -0.338162 22.475340 1.700055
v -0.358991 22.123383 1.804769
v -0.366024 21.757359 1.840126
v -0.358991 21.391335 1.804769
v -0.338162 21.039377 1.700055
v -0.304338 20.715010 1.530009
v -0.258818 20.430700 1.301166
v -0.203352 20.197374 1.022319
v -0.140071 20.023996 0.704186
v -0.071408 19.917231 0.358991
v -0.140071 23.597486 0.338162
v -0.274760 23.490721 0.663329
v -0.398889 23.317343 0.963004
v -0.507690 23.084017 1.225672
v -0.596980 22.799707 1.441237
v -0.663329 22.475340 1.601417
v -0.704186 22.123383 1.700055
v -0.717982 21.757359 1.733360
v -0.704186 21.391335 1.700055
v -0.663329 21.039377 1.601417
v -0.596980 20.715010 1.441237
v -0.507690 20.430700 1.225672
v -0.398889 20.197374 0.963004
v -0.274760 20.023996 0.663329
v -0.140071 19.917231 0.338162
v -0.203352 23.597486 0.304338
v -0.398889 23.490721 0.596980
v -0.579098 23.317343 0.866680
v -0.737051 23.084017 1.103075
v -0.866681 22.799707 1.297079
v -0.963004 22.475340 1.441237
v -1.022320 22.123383 1.530009
v -1.042348 21.757359 1.559983
v -1.022320 21.391335 1.530009
v -0.963004 21.039377 1.441237
v -0.866681 20.715010 1.297079
v -0.737051 20.430700 1.103075
v -0.579098 20.197374 0.866680
v -0.398889 20.023996 0.596980
v -0.203352 19.917231 0.304338
v -0.258818 23.597486 0.258818
v -0.507690 23.490721 0.507690
v -0.737051 23.317343 0.737051
v -0.938089 23.084017 0.938088
v -1.103075 22.799707 1.103075
v -1.225671 22.475340 1.225672
v -1.301166 22.123383 1.301166
v -1.326657 21.757359 1.326656
v -1.301166 21.391335 1.301166
v -1.225671 21.039377 1.225672
v -1.103075 20.715010 1.103075
v -0.938089 20.430700 0.938088
v -0.737051 20.197374 0.737051
v -0.507690 20.023996 0.507690
v -0.258818 19.917231 0.258818
v -0.304338 23.597486 0.203352
v -0.596980 23.490721 0.398889
v -0.866681 23.317343 0.579097
v -1.103075 23.084017 0.737051
v -1.297079 22.799707 0.866680
v -1.441237 22.475340 0.963004
v -1.530009 22.123383 1.022319
v -1.559984 21.757359 1.042347
v -1.530009 21.391335 1.022319
v -1.441237 21.039377 0.963004
v -1.297079 20.715010 0.866680
v -1.103075 20.430700 0.737051
v -0.866681 20.197374 0.579097
v -0.596980 20.023996 0.398889
v -0.304338 19.917231 0.203352
v -0.338162 23.597486 0.140071
v -0.663329 23.490721 0.274760
v -0.963004 23.317343 0.398889
v -1.225672 23.084017 0.507690
v -1.441237 22.799707 0.596980
v -1.601417 22.475340 0.663329
v -1.700055 22.123383 0.704185
v -1.733361 21.757359 0.717981
v -1.700055 21.391335 0.704185
v -1.601417 21.039377 0.663329
v -1.441237 20.715010 0.596980
v -1.225672 20.430700 0.507690
v -0.963004 20.197374 0.398889
v -0.663329 20.023996 0.274760
v -0.338162 19.917231 0.140071
v -0.358991 23.597486 0.071408
v -0.704186 23.490721 0.140071
v -1.022319 23.317343 0.203352
v -1.301166 23.084017 0.258818
v -1.530009 22.799707 0.304337
v -1.700055 22.475340 0.338162
v -1.804769 22.123383 0.358990
v -1.840126 21.757359 0.366023
v -1.804769 21.391335 0.358990
v -1.700055 21.039377 0.338162
v -1.530009 20.715010 0.304337
v -1.301166 20.430700 0.258818
v -1.022319 20.197374 0.203352
v -0.704186 20.023996 0.140071
v -0.358991 19.917231 0.071408
v -0.366024 23.597486 -0.000000
v -0.717982 23.490721 -0.000000
v -1.042347 23.317343 -0.000000
v -1.326657 23.084017 -0.000000
v -1.559984 22.799707 -0.000000
v -1.733361 22.475340 -0.000000
v -1.840126 22.123383 -0.000001
v -1.876176 21.757359 -0.000001
v -1.840126 21.391335 -0.000001
v -1.733361 21.039377 -0.000000
v -1.559984 20.715010 -0.000000
v -1.326657 20.430700 -0.000000
v -1.042347 20.197374 -0.000000
v -0.717982 20.023996 -0.000000
v -0.366024 19.917231 -0.000000
v -0.358991 23.597486 -0.071408
v -0.704186 23.490721 -0.140071
v -1.022319 23.317343 -0.203352
v -1.301166 23.084017 -0.258818
v -1.530009 22.799707 -0.304338
v -1.700055 22.475340 -0.338162
v -1.804769 22.123383 -0.358991
v -1.840125 21.757359 -0.366025
v -1.804769 21.391335 -0.358991
v -1.700055 21.039377 -0.338162
v -1.530009 20.715010 -0.304338
v -1.301166 20.430700 -0.258818
v -1.022319 20.197374 -0.203352
v -0.704186 20.023996 -0.140071
v -0.358991 19.917231 -0.071408
v -0.338162 23.597486 -0.140071
v -0.663329 23.490721 -0.274760
v -0.963003 23.317343 -0.398889
v -1.225672 23.084017 -0.507690
v -1.441237 22.799707 -0.596980
v -1.601417 22.475340 -0.663329
v -1.700055 22.123383 -0.704186
v -1.733360 21.757359 -0.717982
v -1.700055 21.391335 -0.704186
v -1.601417 21.039377 -0.663329
v -1.441237 20.715010 -0.596980
v -1.225672 20.430700 -0.507690
v -0.963003 20.197374 -0.398889
v -0.663329 20.023996 -0.274760
v -0.338162 19.917231 -0.140071
v -0.304338 23.597486 -0.203352
v -0.596980 23.490721 -0.398889
v -0.866680 23.317343 -0.579097
v -1.103075 23.084017 -0.737051
v -1.297079 22.799707 -0.866681
v -1.441237 22.475340 -0.963004
v -1.530009 22.123383 -1.022320
v -1.559982 21.757359 -1.042348
v -1.530009 21.391335 -1.022320
v -1.441237 21.039377 -0.963004
v -1.297079 20.715010 -0.866681
v -1.103075 20.430700 -0.737051
v -0.866680 20.197374 -0.579097
v -0.596980 20.023996 -0.398889
v -0.304338 19.917231 -0.203352
v -0.258818 23.597486 -0.258818
v -0.507690 23.490721 -0.507690
v -0.737051 23.317343 -0.737051
v -0.938088 23.084017 -0.938088
v -1.103075 22.799707 -1.103075
v -1.225671 22.475340 -1.225671
v -1.301165 22.123383 -1.301166
v -1.326656 21.757359 -1.326657
v -1.301165 21.391335 -1.301166
v -1.225671 21.039377 -1.225671
v -1.103075 20.715010 -1.103075
v -0.938088 20.430700 -0.938088
v -0.737051 20.197374 -0.737051
v -0.507690 20.023996 -0.507690
v -0.258818 19.917231 -0.258818
v -0.203352 23.597486 -0.304338
v -0.398889 23.490721 -0.596980
v -0.579097 23.317343 -0.866680
v -0.737051 23.084017 -1.103075
v -0.866680 22.799707 -1.297079
v -0.963004 22.475340 -1.441237
v -1.022319 22.123383 -1.530009
v -1.042346 21.757359 -1.559983
v -1.022319 21.391335 -1.530009
v -0.963004 21.039377 -1.441237
v -0.866680 20.715010 -1.297079
v -0.737051 20.430700 -1.103075
v -0.579097 20.197374 -0.866680
v -0.398889 20.023996 -0.596980
v -0.203352 19.917231 -0.304338
v -0.140071 23.597486 -0.338162
v -0.274760 23.490721 -0.663329
v -0.398889 23.317343 -0.963003
v -0.507690 23.084017 -1.225672
v -0.596979 22.799707 -1.441237
v -0.663328 22.475340 -1.601417
v -0.704185 22.123383 -1.700055
v -0.717980 21.757359 -1.733360
v -0.704185 21.391335 -1.700055
v -0.663328 21.039377 -1.601417
v -0.596979 20.715010 -1.441237
v -0.507690 20.430700 -1.225672
v -0.398889 20.197374 -0.963003
v -0.274760 20.023996 -0.663329
v -0.140071 19.917231 -0.338162
v -0.071408 23.597486 -0.358991
v -0.140071 23.490721 -0.704186
v -0.203351 23.317343 -1.022319
v -0.258818 23.084017 -1.301166
v -0.304337 22.799707 -1.530009
v -0.338162 22.475340 -1.700055
v -0.358990 22.123383 -1.804769
v -0.366023 21.757359 -1.840125
v -0.358990 21.391335 -1.804769
v -0.338162 21.039377 -1.700055
v -0.304337 20.715010 -1.530009
v -0.258818 20.430700 -1.301166
v -0.203351 20.197374 -1.022319
v -0.140071 20.023996 -0.704186
v -0.071408 19.917231 -0.358991
v 0.000000 23.597486 -0.366024
v 0.000000 23.490721 -0.717982
v 0.000000 23.084017 -1.326657
v 0.000000 22.475340 -1.733361
v 0.000000 21.039377 -1.733361
v 0.000000 20.430700 -1.326657
v 0.000000 20.197374 -1.042347
v 0.000000 20.023996 -0.717982
v 0.000000 19.917231 -0.366024
vn 0.0938 -0.2890 -0.9527
vn 0.0464 0.8810 -0.4709
vn 0.0865 -0.4696 -0.8786
vn 0.0624 0.7715 -0.6332
vn 0.0759 -0.6326 -0.7708
vn 0.0759 0.6326 -0.7708
vn 0.0624 -0.7715 -0.6332
vn 0.0865 0.4696 -0.8786
vn 0.0464 -0.8810 -0.4709
vn 0.0938 0.2890 -0.9527
vn 0.0286 -0.9565 -0.2902
vn 0.0975 0.0975 -0.9904
vn 0.0097 0.9951 -0.0980
vn 0.0097 -0.9951 -0.0980
vn 0.0975 -0.0975 -0.9904
vn 0.0286 0.9565 -0.2902
vn 0.2889 -0.0976 -0.9524
vn 0.0846 0.9565 -0.2790
vn 0.2779 -0.2890 -0.9161
vn 0.1374 0.8810 -0.4528
vn 0.2563 -0.4696 -0.8448
vn 0.1847 0.7715 -0.6088
vn 0.2248 -0.6326 -0.7412
vn 0.2248 0.6326 -0.7412
vn 0.1847 -0.7715 -0.6088
vn 0.2563 0.4696 -0.8448
vn 0.1374 -0.8810 -0.4528
vn 0.2779 0.2890 -0.9161
vn 0.0846 -0.9565 -0.2790
vn 0.2889 0.0976 -0.9524
vn 0.0286 0.9951 -0.0942
vn 0.0286 -0.9951 -0.0942
vn 0.2999 -0.7715 -0.5611
vn 0.4162 0.4696 -0.7786
vn 0.2230 -0.8810 -0.4173
vn 0.4513 0.2890 -0.8443
vn 0.1374 -0.9565 -0.2571
vn 0.4691 0.0975 -0.8777
vn 0.0464 0.9951 -0.0869
vn 0.0464 -0.9951 -0.0869
vn 0.4691 -0.0975 -0.8777
vn 0.1374 0.9565 -0.2571
vn 0.4513 -0.2890 -0.8443
vn 0.2230 0.8810 -0.4173
vn 0.4162 -0.4696 -0.7786
vn 0.2999 0.7715 -0.5611
vn 0.3651 -0.6326 -0.6831
vn 0.3651 0.6326 -0.6831
vn 0.1850 0.9565 -0.2254
vn 0.6073 -0.2890 -0.7400
vn 0.3002 0.8810 -0.3658
vn 0.5601 -0.4696 -0.6825
vn 0.4036 0.7715 -0.4918
vn 0.4913 -0.6326 -0.5987
vn 0.4913 0.6326 -0.5987
vn 0.4036 -0.7715 -0.4918
vn 0.5601 0.4696 -0.6825
vn 0.3002 -0.8810 -0.3658
vn 0.6073 0.2890 -0.7400
vn 0.1850 -0.9565 -0.2254
vn 0.6314 0.0975 -0.7693
vn 0.0625 0.9951 -0.0761
vn 0.0625 -0.9951 -0.0761
vn 0.6314 -0.0975 -0.7693
vn 0.6825 0.4696 -0.5601
vn 0.3658 -0.8810 -0.3002
vn 0.7400 0.2890 -0.6073
vn 0.2254 -0.9565 -0.1850
vn 0.7693 0.0975 -0.6314
vn 0.0761 0.9951 -0.0625
vn 0.0761 -0.9951 -0.0625
vn 0.7693 -0.0975 -0.6314
vn 0.2254 0.9565 -0.1850
vn 0.7400 -0.2890 -0.6073
vn 0.3658 0.8810 -0.3002
vn 0.6825 -0.4696 -0.5601
vn 0.4918 0.7715 -0.4036
vn 0.5987 -0.6326 -0.4913
vn 0.5987 0.6326 -0.4913
vn 0.4918 -0.7715 -0.4036
vn 0.8443 -0.2890 -0.4513
vn 0.4173 0.8810 -0.2230
vn 0.7786 -0.4696 -0.4162
vn 0.5611 0.7715 -0.2999
vn 0.6831 -0.6326 -0.3651
vn 0.6831 0.6326 -0.3651
vn 0.5611 -0.7715 -0.2999
vn 0.7786 0.4696 -0.4162
vn 0.4173 -0.8810 -0.2230
vn 0.8443 0.2890 -0.4513
vn 0.2571 -0.9565 -0.1374
vn 0.8777 0.0975 -0.4691
vn 0.0869 0.9951 -0.0464
vn 0.0869 -0.9951 -0.0464
vn 0.8777 -0.0975 -0.4691
vn 0.2571 0.9565 -0.1374
vn 0.4528 -0.8810 -0.1374
vn 0.9161 0.2890 -0.2779
vn 0.2790 -0.9565 -0.0846
vn 0.9524 0.0975 -0.2889
vn 0.0942 0.9951 -0.0286
vn 0.0942 -0.9951 -0.0286
vn 0.9524 -0.0975 -0.2889
vn 0.2790 0.9565 -0.0846
vn 0.9161 -0.2890 -0.2779
vn 0.4528 0.8810 -0.1374
vn 0.8448 -0.4696 -0.2563
vn 0.6088 0.7715 -0.1847
vn 0.7412 -0.6326 -0.2248
vn 0.7412 0.6326 -0.2248
vn 0.6088 -0.7715 -0.1847
vn 0.8448 0.4696 -0.2563
vn 0.8786 -0.4696 -0.0865
vn 0.6332 0.7715 -0.0624
vn 0.7708 -0.6326 -0.0759
vn 0.7708 0.6326 -0.0759
vn 0.6332 -0.7715 -0.0624
vn 0.8786 0.4696 -0.0865
vn 0.4709 -0.8810 -0.0464
vn 0.9527 0.2890 -0.0938
vn 0.2902 -0.9565 -0.0286
vn 0.9904 0.0975 -0.0975
vn 0.0980 0.9951 -0.0097
vn 0.0980 -0.9951 -0.0097
vn 0.9904 -0.0975 -0.0975
vn 0.2902 0.9565 -0.0286
vn 0.9527 -0.2890 -0.0938
vn 0.4709 0.8810 -0.0464
vn 0.2902 -0.9565 0.0286
vn 0.9904 0.0975 0.0976
vn 0.0980 0.9951 0.0097
vn 0.0980 -0.9951 0.0097
vn 0.9904 -0.0975 0.0976
vn 0.2902 0.9565 0.0286
vn 0.9527 -0.2890 0.0938
vn 0.4709 0.8810 0.0464
vn 0.8786 -0.4696 0.0865
vn 0.6332 0.7715 0.0624
vn 0.7708 -0.6326 0.0759
vn 0.7708 0.6326 0.0759
vn 0.6332 -0.7715 0.0624
vn 0.8786 0.4696 0.0865
vn 0.4709 -0.8810 0.0464
vn 0.9527 0.2890 0.0938
vn 0.6088 0.7715 0.1847
vn 0.7412 -0.6326 0.2248
vn 0.7412 0.6326 0.2248
vn 0.6088 -0.7715 0.1847
vn 0.8448 0.4696 0.2563
vn 0.4528 -0.8810 0.1374
vn 0.9161 0.2890 0.2779
vn 0.2790 -0.9565 0.0846
vn 0.9524 0.0975 0.2889
vn 0.0942 0.9951 0.0286
vn 0.0942 -0.9951 0.0286
vn 0.9524 -0.0975 0.2889
vn 0.2790 0.9565 0.0846
vn 0.9161 -0.2890 0.2779
vn 0.4528 0.8810 0.1374
vn 0.8448 -0.4696 0.2563
vn 0.8777 0.0975 0.4691
vn 0.0869 0.9951 0.0464
vn 0.0869 -0.9951 0.0464
vn 0.8777 -0.0975 0.4691
vn 0.2571 0.9565 0.1374
vn 0.8443 -0.2890 0.4513
vn 0.4173 0.8810 0.2230
vn 0.7786 -0.4696 0.4162
vn 0.5611 0.7715 0.2999
vn 0.6831 -0.6326 0.3651
vn 0.6831 0.6326 0.3651
vn 0.5611 -0.7715 0.2999
vn 0.7786 0.4696 0.4162
vn 0.4173 -0.8810 0.2230
vn 0.8443 0.2890 0.4513
vn 0.2571 -0.9565 0.1374
vn 0.5987 -0.6326 0.4913
vn 0.5987 0.6326 0.4913
vn 0.4918 -0.7715 0.4036
vn 0.6825 0.4696 0.5601
vn 0.3658 -0.8810 0.3002
vn 0.7400 0.2890 0.6073
vn 0.2254 -0.9565 0.1850
vn 0.7693 0.0975 0.6314
vn 0.0761 0.9951 0.0625
vn 0.0761 -0.9951 0.0625
vn 0.7693 -0.0975 0.6314
vn 0.2254 0.9565 0.1850
vn 0.7400 -0.2890 0.6073
vn 0.3658 0.8810 0.3002
vn 0.6825 -0.4696 0.5601
vn 0.4918 0.7715 0.4036
vn 0.0625 0.9951 0.0761
vn 0.0625 -0.9951 0.0761
vn 0.6314 -0.0975 0.7693
vn 0.1850 0.9565 0.2254
vn 0.6073 -0.2890 0.7400
vn 0.3002 0.8810 0.3658
vn 0.5601 -0.4696 0.6825
vn 0.4036 0.7715 0.4918
vn 0.4913 -0.6326 0.5987
vn 0.4913 0.6326 0.5987
vn 0.4036 -0.7715 0.4918
vn 0.5601 0.4696 0.6825
vn 0.3002 -0.8810 0.3658
vn 0.6073 0.2890 0.7400
vn 0.1850 -0.9565 0.2254
vn 0.6314 0.0975 0.7693
vn 0.3651 0.6326 0.6831
vn 0.2999 -0.7715 0.5611
vn 0.4162 0.4696 0.7786
vn 0.2230 -0.8810 0.4173
vn 0.4513 0.2890 0.8443
vn 0.1374 -0.9565 0.2571
vn 0.4691 0.0975 0.8777
vn 0.0464 0.9951 0.0869
vn 0.0464 -0.9951 0.0869
vn 0.4691 -0.0975 0.8777
vn 0.1374 0.9565 0.2571
vn 0.4513 -0.2890 0.8443
vn 0.2230 0.8810 0.4173
vn 0.4162 -0.4696 0.7786
vn 0.2999 0.7715 0.5611
vn 0.3651 -0.6326 0.6831
vn 0.2889 -0.0975 0.9524
vn 0.0846 0.9565 0.2790
vn 0.2779 -0.2890 0.9161
vn 0.1374 0.8810 0.4528
vn 0.2563 -0.4696 0.8448
vn 0.1847 0.7715 0.6088
vn 0.2248 -0.6326 0.7412
vn 0.2248 0.6326 0.7412
vn 0.1847 -0.7715 0.6088
vn 0.2563 0.4696 0.8448
vn 0.1374 -0.8810 0.4528
vn 0.2779 0.2890 0.9161
vn 0.0846 -0.9565 0.2790
vn 0.2889 0.0975 0.9524
vn 0.0286 0.9951 0.0942
vn 0.0286 -0.9951 0.0942
vn 0.0624 -0.7715 0.6332
vn 0.0865 0.4696 0.8786
vn 0.0464 -0.8810 0.4709
vn 0.0938 0.2890 0.9527
vn 0.0286 -0.9565 0.2902
vn 0.0975 0.0975 0.9904
vn 0.0097 0.9951 0.0980
vn 0.0097 -0.9951 0.0980
vn 0.0975 -0.0975 0.9904
vn 0.0286 0.9565 0.2902
vn 0.0938 -0.2890 0.9527
vn 0.0464 0.8810 0.4709
vn 0.0865 -0.4696 0.8786
vn 0.0624 0.7715 0.6332
vn 0.0759 -0.6326 0.7708
vn 0.0759 0.6326 0.7708
vn -0.0938 -0.2890 0.9527
vn -0.0464 0.8810 0.4709
vn -0.0865 -0.4696 0.8786
vn -0.0624 0.7715 0.6332
vn -0.0759 -0.6326 0.7708
vn -0.0759 0.6326 0.7708
vn -0.0624 -0.7715 0.6332
vn -0.0865 0.4696 0.8786
vn -0.0464 -0.8810 0.4709
vn -0.0938 0.2890 0.9527
vn -0.0286 -0.9565 0.2902
vn -0.0976 0.0975 0.9904
vn -0.0097 0.9951 0.0980
vn -0.0097 -0.9951 0.0980
vn -0.0976 -0.0975 0.9904
vn -0.0286 0.9565 0.2902
vn -0.1374 -0.8810 0.4528
vn -0.2779 0.2890 0.9161
vn -0.0846 -0.9565 0.2790
vn -0.2889 0.0975 0.9524
vn -0.0286 0.9951 0.0942
vn -0.0286 -0.9951 0.0942
vn -0.2889 -0.0975 0.9524
vn -0.0846 0.9565 0.2790
vn -0.2779 -0.2890 0.9161
vn -0.1374 0.8810 0.4528
vn -0.2563 -0.4696 0.8448
vn -0.1847 0.7715 0.6088
vn -0.2248 -0.6326 0.7412
vn -0.2248 0.6326 0.7412
vn -0.1847 -0.7715 0.6088
vn -0.2563 0.4696 0.8448
vn -0.2230 0.8810 0.4173
vn -0.4162 -0.4696 0.7786
vn -0.2999 0.7715 0.5611
vn -0.3651 -0.6326 0.6831
vn -0.3651 0.6326 0.6831
vn -0.2999 -0.7715 0.5611
vn -0.4162 0.4696 0.7786
vn -0.2230 -0.8810 0.4173
vn -0.4513 0.2890 0.8443
vn -0.1374 -0.9565 0.2571
vn -0.4691 0.0975 0.8777
vn -0.0464 0.9951 0.0869
vn -0.0464 -0.9951 0.0869
vn -0.4691 -0.0975 0.8777
vn -0.1374 0.9565 0.2571
vn -0.4513 -0.2890 0.8443
vn -0.6073 0.2890 0.7400
vn -0.1850 -0.9565 0.2254
vn -0.6314 0.0975 0.7693
vn -0.0625 0.9951 0.0761
vn -0.0625 -0.9951 0.0761
vn -0.6314 -0.0975 0.7693
vn -0.1850 0.9565 0.2254
vn -0.6073 -0.2890 0.7400
vn -0.3002 0.8810 0.3658
vn -0.5601 -0.4696 0.6825
vn -0.4036 0.7715 0.4918
vn -0.4913 -0.6326 0.5987
vn -0.4913 0.6326 0.5987
vn -0.4036 -0.7715 0.4918
vn -0.5601 0.4696 0.6825
vn -0.3002 -0.8810 0.3658
vn -0.6825 -0.4696 0.5601
vn -0.4918 0.7715 0.4036
vn -0.5987 -0.6326 0.4913
vn -0.5987 0.6326 0.4913
vn -0.4918 -0.7715 0.4036
vn -0.6825 0.4696 0.5601
vn -0.3658 -0.8810 0.3002
vn -0.7400 0.2890 0.6073
vn -0.2254 -0.9565 0.1850
vn -0.7693 0.0975 0.6314
vn -0.0761 0.9951 0.0625
vn -0.0761 -0.9951 0.0625
vn -0.7693 -0.0975 0.6314
vn -0.2254 0.9565 0.1850
vn -0.7400 -0.2890 0.6073
vn -0.3658 0.8810 0.3002
vn -0.2571 -0.9565 0.1374
vn -0.8777 0.0975 0.4691
vn -0.0869 0.9951 0.0464
vn -0.0869 -0.9951 0.0464
vn -0.8777 -0.0975 0.4691
vn -0.2571 0.9565 0.1374
vn -0.8443 -0.2890 0.4513
vn -0.4173 0.8810 0.2230
vn -0.7786 -0.4696 0.4162
vn -0.5611 0.7715 0.2999
vn -0.6831 -0.6326 0.3651
vn -0.6831 0.6326 0.3651
vn -0.5611 -0.7715 0.2999
vn -0.7786 0.4696 0.4162
vn -0.4173 -0.8810 0.2230
vn -0.8443 0.2890 0.4513
vn -0.6088 0.7715 0.1847
vn -0.7412 -0.6326 0.2248
vn -0.7412 0.6326 0.2248
vn -0.6088 -0.7715 0.1847
vn -0.8448 0.4696 0.2563
vn -0.4528 -0.8810 0.1374
vn -0.9161 0.2890 0.2779
vn -0.2790 -0.9565 0.0846
vn -0.9524 0.0975 0.2889
vn -0.0942 0.9951 0.0286
vn -0.0942 -0.9951 0.0286
vn -0.9524 -0.0975 0.2889
vn -0.2790 0.9565 0.0846
vn -0.9161 -0.2890 0.2779
vn -0.4528 0.8810 0.1374
vn -0.8448 -0.4696 0.2563
vn -0.9904 0.0975 0.0975
vn -0.0980 0.9951 0.0097
vn -0.0980 -0.9951 0.0097
vn -0.9904 -0.0975 0.0975
vn -0.2902 0.9565 0.0286
vn -0.9527 -0.2890 0.0938
vn -0.4709 0.8810 0.0464
vn -0.8786 -0.4696 0.0865
vn -0.6332 0.7715 0.0624
vn -0.7708 -0.6326 0.0759
vn -0.7708 0.6326 0.0759
vn -0.6332 -0.7715 0.0624
vn -0.8786 0.4696 0.0865
vn -0.4709 -0.8810 0.0464
vn -0.9527 0.2890 0.0938
vn -0.2902 -0.9565 0.0286
vn -0.7708 -0.6326 -0.0759
vn -0.7708 0.6326 -0.0759
vn -0.6332 -0.7715 -0.0624
vn -0.8786 0.4696 -0.0865
vn -0.4709 -0.8810 -0.0464
vn -0.9527 0.2890 -0.0938
vn -0.2902 -0.9565 -0.0286
vn -0.9904 0.0975 -0.0976
vn -0.0980 0.9951 -0.0097
vn -0.0980 -0.9951 -0.0097
vn -0.9904 -0.0975 -0.0976
vn -0.2902 0.9565 -0.0286
vn -0.9527 -0.2890 -0.0938
vn -0.4709 0.8810 -0.0464
vn -0.8786 -0.4696 -0.0865
vn -0.6332 0.7715 -0.0624
vn -0.0942 -0.9951 -0.0286
vn -0.9524 -0.0975 -0.2889
vn -0.2790 0.9565 -0.0846
vn -0.9161 -0.2890 -0.2779
vn -0.4528 0.8810 -0.1374
vn -0.8448 -0.4696 -0.2563
vn -0.6088 0.7715 -0.1847
vn -0.7412 -0.6326 -0.2248
vn -0.7412 0.6326 -0.2248
vn -0.6088 -0.7715 -0.1847
vn -0.8448 0.4696 -0.2563
vn -0.4528 -0.8810 -0.1374
vn -0.9161 0.2890 -0.2779
vn -0.2790 -0.9565 -0.0846
vn -0.9524 0.0975 -0.2889
vn -0.0942 0.9951 -0.0286
vn -0.5611 -0.7715 -0.2999
vn -0.7786 0.4696 -0.4162
vn -0.4173 -0.8810 -0.2231
vn -0.8443 0.2890 -0.4513
vn -0.2571 -0.9565 -0.1374
vn -0.8777 0.0975 -0.4691
vn -0.0869 0.9951 -0.0464
vn -0.0869 -0.9951 -0.0464
vn -0.8777 -0.0975 -0.4691
vn -0.2571 0.9565 -0.1374
vn -0.8443 -0.2890 -0.4513
vn -0.4173 0.8810 -0.2231
vn -0.7786 -0.4696 -0.4162
vn -0.5611 0.7715 -0.2999
vn -0.6831 -0.6326 -0.3651
vn -0.6831 0.6326 -0.3651
vn -0.2254 0.9565 -0.1850
vn -0.7400 -0.2890 -0.6073
vn -0.3658 0.8810 -0.3002
vn -0.6825 -0.4696 -0.5601
vn -0.4918 0.7715 -0.4036
vn -0.5987 -0.6326 -0.4913
vn -0.5987 0.6326 -0.4913
vn -0.4918 -0.7715 -0.4036
vn -0.6825 0.4696 -0.5601
vn -0.3658 -0.8810 -0.3002
vn -0.7400 0.2890 -0.6073
vn -0.2254 -0.9565 -0.1850
vn -0.7693 0.0975 -0.6314
vn -0.0761 0.9951 -0.0625
vn -0.0761 -0.9951 -0.0625
vn -0.7693 -0.0975 -0.6314
vn -0.5601 0.4696 -0.6825
vn -0.3002 -0.8810 -0.3658
vn -0.6073 0.2890 -0.7400
vn -0.1850 -0.9565 -0.2254
vn -0.6314 0.0975 -0.7693
vn -0.0625 0.9951 -0.0761
vn -0.0625 -0.9951 -0.0761
vn -0.6314 -0.0975 -0.7693
vn -0.1850 0.9565 -0.2254
vn -0.6073 -0.2890 -0.7400
vn -0.3002 0.8810 -0.3658
vn -0.5601 -0.4696 -0.6825
vn -0.4036 0.7715 -0.4918
vn -0.4913 -0.6326 -0.5987
vn -0.4913 0.6326 -0.5987
vn -0.4036 -0.7715 -0.4918
vn -0.4513 -0.2890 -0.8443
vn -0.2230 0.8810 -0.4173
vn -0.4162 -0.4696 -0.7786
vn -0.2999 0.7715 -0.5611
vn -0.3651 -0.6326 -0.6831
vn -0.3651 0.6326 -0.6831
vn -0.2999 -0.7715 -0.5611
vn -0.4162 0.4696 -0.7786
vn -0.2230 -0.8810 -0.4173
vn -0.4513 0.2890 -0.8443
vn -0.1374 -0.9565 -0.2571
vn -0.4691 0.0975 -0.8777
vn -0.0464 0.9951 -0.0869
vn -0.0464 -0.9951 -0.0869
vn -0.4691 -0.0975 -0.8777
vn -0.1374 0.9565 -0.2571
vn -0.1374 -0.8810 -0.4528
vn -0.2779 0.2890 -0.9161
vn -0.0846 -0.9565 -0.2790
vn -0.2889 0.0975 -0.9524
vn -0.0286 0.9951 -0.0942
vn -0.0286 -0.9951 -0.0942
vn -0.2889 -0.0975 -0.9524
vn -0.0846 0.9565 -0.2790
vn -0.2779 -0.2890 -0.9161
vn -0.1374 0.8810 -0.4528
vn -0.2563 -0.4696 -0.8448
vn -0.1847 0.7715 -0.6088
vn -0.2248 -0.6326 -0.7412
vn -0.2248 0.6326 -0.7412
vn -0.1847 -0.7715 -0.6088
vn -0.2563 0.4696 -0.8448
vn -0.0464 0.8810 -0.4709
vn -0.0865 -0.4696 -0.8786
vn -0.0624 0.7715 -0.6332
vn -0.0759 -0.6326 -0.7708
vn -0.0759 0.6326 -0.7708
vn -0.0624 -0.7715 -0.6332
vn -0.0865 0.4696 -0.8786
vn -0.0464 -0.8810 -0.4709
vn -0.0938 0.2890 -0.9527
vn -0.0286 -0.9565 -0.2902
vn -0.0976 0.0975 -0.9904
vn -0.0097 0.9951 -0.0980
vn -0.0097 -0.9951 -0.0980
vn -0.0976 -0.0975 -0.9904
vn -0.0286 0.9565 -0.2902
vn -0.0938 -0.2890 -0.9527
vt 0.779931 0.161129
vt 0.777327 0.137790
vt 0.801683 0.137790
vt 0.802875 0.161129
vt 0.031422 0.851463
vt 0.051111 0.858256
vt 0.047404 0.866853
vt 0.026039 0.863945
vt 0.783819 0.182108
vt 0.804468 0.182108
vt 0.785176 0.018271
vt 0.790495 0.000284
vt 0.804292 0.000284
vt 0.802736 0.018271
vt 0.788842 0.199919
vt 0.806402 0.199919
vt 0.780940 0.039388
vt 0.801588 0.039388
vt 0.311936 0.832229
vt 0.312548 0.812588
vt 0.329652 0.810826
vt 0.325375 0.830844
vt 0.777948 0.062823
vt 0.800891 0.062823
vt 0.313005 0.854455
vt 0.322262 0.853501
vt 0.776315 0.087674
vt 0.800672 0.087674
vt 0.315713 0.878412
vt 0.320433 0.877926
vt 0.776106 0.112988
vt 0.800940 0.112988
vt 0.072476 0.867183
vt 0.094695 0.877901
vt 0.070586 0.871566
vt 0.319957 0.903180
vt 0.826250 0.112477
vt 0.826507 0.137290
vt 0.069623 0.876219
vt 0.045514 0.875980
vt 0.826258 0.160658
vt 0.023296 0.877195
vt 0.825513 0.181683
vt 0.818353 0.000000
vt 0.820633 0.017910
vt 0.824299 0.199558
vt 0.822633 0.038963
vt 0.346786 0.812571
vt 0.338837 0.832215
vt 0.824274 0.062351
vt 0.331535 0.854446
vt 0.825496 0.087173
vt 0.325160 0.878407
vt 0.363291 0.817757
vt 0.351805 0.836290
vt 0.843264 0.038130
vt 0.847199 0.061425
vt 0.340467 0.857252
vt 0.849833 0.086191
vt 0.329713 0.879838
vt 0.851063 0.111475
vt 0.069623 0.880963
vt 0.850844 0.136307
vt 0.045514 0.885286
vt 0.849183 0.159732
vt 0.023296 0.890705
vt 0.846144 0.180850
vt 0.003821 0.879816
vt 0.003821 0.897012
vt 0.841845 0.198849
vt 0.838179 0.017202
vt 0.070586 0.885616
vt 0.047404 0.894413
vt 0.873758 0.134880
vt 0.870768 0.158388
vt 0.026039 0.903956
vt 0.865570 0.179641
vt 0.007313 0.913876
vt 0.374483 0.802365
vt 0.392405 0.812274
vt 0.378532 0.826184
vt 0.854700 0.016173
vt 0.862690 0.036921
vt 0.363780 0.842911
vt 0.868784 0.060081
vt 0.348716 0.861813
vt 0.872747 0.084764
vt 0.333919 0.882163
vt 0.874427 0.110021
vt 0.880164 0.035382
vt 0.888200 0.058371
vt 0.374302 0.851824
vt 0.355964 0.867953
vt 0.893359 0.082948
vt 0.337613 0.885293
vt 0.895442 0.108169
vt 0.072476 0.889999
vt 0.894370 0.133065
vt 0.051111 0.903011
vt 0.890184 0.156678
vt 0.031422 0.916438
vt 0.883044 0.178101
vt 0.014163 0.929763
vt 0.408153 0.825614
vt 0.391924 0.837528
vt 0.869560 0.014864
vt 0.911887 0.130930
vt 0.906685 0.154667
vt 0.056494 0.910749
vt 0.039235 0.927671
vt 0.422364 0.816539
vt 0.436774 0.834604
vt 0.421121 0.841872
vt 0.024108 0.944060
vt 0.402953 0.851355
vt 0.000000 0.942474
vt 0.011694 0.959286
vt 0.382967 0.862688
vt 0.895015 0.033572
vt 0.904701 0.056360
vt 0.361932 0.875435
vt 0.910876 0.080814
vt 0.340656 0.889108
vt 0.913303 0.105993
vt 0.075220 0.893943
vt 0.389442 0.875083
vt 0.366392 0.883973
vt 0.562014 0.804034
vt 0.585696 0.809478
vt 0.587539 0.825999
vt 0.563970 0.821572
vt 0.342930 0.893460
vt 0.537092 0.802365
vt 0.539087 0.820246
vt 0.078712 0.897298
vt 0.511890 0.804535
vt 0.513846 0.822073
vt 0.063344 0.917329
vt 0.487375 0.810461
vt 0.489217 0.826981
vt 0.049180 0.937224
vt 0.447541 0.855217
vt 0.430811 0.860423
vt 0.036766 0.956219
vt 0.411193 0.867131
vt 0.026578 0.973583
vt 0.002469 0.972764
vt 0.019007 0.988650
vt 0.466148 0.834782
vt 0.490730 0.846413
vt 0.467509 0.852271
vt 0.060874 0.944730
vt 0.051650 0.965772
vt 0.436851 0.880554
vt 0.416330 0.884251
vt 0.044079 0.984816
vt 0.393478 0.888534
vt 0.608889 0.833356
vt 0.610250 0.850845
vt 0.589052 0.845431
vt 0.369172 0.893239
vt 0.565576 0.842201
vt 0.344347 0.898184
vt 0.540724 0.841280
vt 0.082819 0.899934
vt 0.515452 0.842702
vt 0.071399 0.922499
vt 0.370165 0.902875
vt 0.344853 0.903097
vt 0.566769 0.865129
vt 0.541940 0.864657
vt 0.087381 0.901749
vt 0.516645 0.865630
vt 0.080349 0.926060
vt 0.491854 0.868011
vt 0.073868 0.949900
vt 0.468520 0.871709
vt 0.068188 0.972352
vt 0.439008 0.901492
vt 0.418165 0.902057
vt 0.063526 0.992554
vt 0.394919 0.902524
vt 0.611261 0.870282
vt 0.590176 0.867029
vt 0.087662 0.952536
vt 0.085744 0.975707
vt 0.447541 0.876580
vt 0.469143 0.892348
vt 0.448070 0.894132
vt 0.084170 0.996499
vt 0.416627 0.919865
vt 0.393711 0.916516
vt 0.611884 0.890921
vt 0.590868 0.889962
vt 0.369333 0.912513
vt 0.567503 0.889475
vt 0.344429 0.908010
vt 0.542689 0.889480
vt 0.092225 0.902675
vt 0.517379 0.889976
vt 0.089851 0.927876
vt 0.492546 0.890944
vt 0.567751 0.914302
vt 0.542942 0.914793
vt 0.097164 0.902675
vt 0.343091 0.912735
vt 0.517627 0.914803
vt 0.099538 0.927876
vt 0.492779 0.914331
vt 0.101727 0.952536
vt 0.469353 0.913395
vt 0.103645 0.975707
vt 0.448249 0.912032
vt 0.105219 0.996499
vt 0.411777 0.936991
vt 0.389900 0.929971
vt 0.612095 0.911969
vt 0.591101 0.913349
vt 0.366708 0.921781
vt 0.469143 0.934043
vt 0.448070 0.929591
vt 0.121201 0.972352
vt 0.125863 0.992554
vt 0.403800 0.952775
vt 0.383633 0.942373
vt 0.611884 0.932617
vt 0.590868 0.936291
vt 0.362391 0.930324
vt 0.567503 0.938658
vt 0.340890 0.917090
vt 0.542689 0.939626
vt 0.102008 0.901749
vt 0.517379 0.939158
vt 0.109040 0.926060
vt 0.492546 0.937273
vt 0.115521 0.949900
vt 0.106571 0.899934
vt 0.337911 0.920907
vt 0.541940 0.963023
vt 0.516645 0.962106
vt 0.117990 0.922499
vt 0.491854 0.958889
vt 0.128515 0.944730
vt 0.468520 0.953497
vt 0.137739 0.965772
vt 0.447541 0.946135
vt 0.145310 0.984816
vt 0.393002 0.966612
vt 0.375149 0.953245
vt 0.611261 0.952070
vt 0.590176 0.957907
vt 0.356547 0.937812
vt 0.566769 0.961605
vt 0.152623 0.956219
vt 0.162811 0.973583
vt 0.379800 0.977971
vt 0.364776 0.962169
vt 0.610250 0.969583
vt 0.589052 0.977365
vt 0.349402 0.943959
vt 0.565576 0.982262
vt 0.334268 0.924041
vt 0.540724 0.984085
vt 0.110677 0.897298
vt 0.515452 0.982763
vt 0.126045 0.917329
vt 0.490730 0.978348
vt 0.140209 0.937224
vt 0.467509 0.971009
vt 0.409421 0.977401
vt 0.393896 0.990756
vt 0.821745 0.659284
vt 0.820171 0.634026
vt 0.841220 0.632599
vt 0.842390 0.657885
vt 0.114169 0.893943
vt 0.132895 0.910749
vt 0.826407 0.683960
vt 0.845854 0.682642
vt 0.150154 0.927671
vt 0.833978 0.707107
vt 0.851479 0.705921
vt 0.165281 0.944060
vt 0.844166 0.727834
vt 0.859050 0.726826
vt 0.177695 0.959286
vt 0.364699 0.986413
vt 0.352912 0.968802
vt 0.826407 0.585634
vt 0.833978 0.564359
vt 0.851479 0.563172
vt 0.845854 0.584315
vt 0.341230 0.948528
vt 0.821745 0.609158
vt 0.842390 0.607758
vt 0.330102 0.926370
vt 0.348281 0.991616
vt 0.340012 0.972890
vt 0.870926 0.562355
vt 0.867462 0.583407
vt 0.332344 0.951344
vt 0.865328 0.606794
vt 0.325572 0.927806
vt 0.864608 0.631617
vt 0.116913 0.889999
vt 0.865328 0.656921
vt 0.138278 0.903011
vt 0.867462 0.681734
vt 0.157967 0.916438
vt 0.870926 0.705104
vt 0.175226 0.929763
vt 0.875588 0.726131
vt 0.189389 0.942474
vt 0.889680 0.656429
vt 0.890400 0.681271
vt 0.141985 0.894413
vt 0.163350 0.903956
vt 0.891570 0.704687
vt 0.182076 0.913876
vt 0.893144 0.725776
vt 0.875588 0.544446
vt 0.893144 0.544092
vt 0.891570 0.561939
vt 0.331177 0.993378
vt 0.326573 0.974275
vt 0.890400 0.582945
vt 0.323087 0.952298
vt 0.889680 0.606303
vt 0.320853 0.928292
vt 0.889437 0.631116
vt 0.118803 0.885616
vt 0.313111 0.972903
vt 0.313815 0.951353
vt 0.913788 0.582945
vt 0.914509 0.606303
vt 0.316126 0.927810
vt 0.914752 0.631116
vt 0.119766 0.880963
vt 0.914509 0.656429
vt 0.143875 0.885286
vt 0.913788 0.681271
vt 0.166093 0.890705
vt 0.912619 0.704687
vt 0.185568 0.897012
vt 0.911045 0.725776
vt 0.911045 0.544092
vt 0.912619 0.561939
vt 0.895062 0.743729
vt 0.909127 0.743729
vt 0.143875 0.875980
vt 0.166093 0.877195
vt 0.936727 0.681734
vt 0.933263 0.705104
vt 0.185568 0.879816
vt 0.928601 0.726131
vt 0.928601 0.544446
vt 0.933263 0.562355
vt 0.922921 0.744007
vt 0.936727 0.583407
vt 0.300143 0.968829
vt 0.304882 0.948547
vt 0.938860 0.606794
vt 0.311572 0.926380
vt 0.939581 0.631617
vt 0.119766 0.876219
vt 0.938860 0.656921
vt 0.958335 0.584315
vt 0.961799 0.607758
vt 0.296634 0.943986
vt 0.307367 0.924055
vt 0.962969 0.632599
vt 0.118803 0.871566
vt 0.961799 0.657885
vt 0.141985 0.866853
vt 0.958335 0.682642
vt 0.163350 0.863945
vt 0.952710 0.705921
vt 0.182076 0.862952
vt 0.945139 0.726826
vt 0.945139 0.545141
vt 0.952710 0.563172
vt 0.935914 0.744553
vt 0.288168 0.962208
vt 0.977782 0.683960
vt 0.970211 0.707107
vt 0.157967 0.851463
vt 0.175226 0.847065
vt 0.960023 0.727834
vt 0.960023 0.546150
vt 0.970211 0.564359
vt 0.282297 0.978020
vt 0.268905 0.966675
vt 0.277646 0.953294
vt 0.977782 0.585634
vt 0.289386 0.937846
vt 0.982444 0.609158
vt 0.303672 0.920925
vt 0.984018 0.634026
vt 0.116913 0.867183
vt 0.982444 0.659284
vt 0.138278 0.858256
vt 0.283417 0.930364
vt 0.300630 0.917110
vt 0.514059 0.090838
vt 0.516225 0.065954
vt 0.533799 0.064349
vt 0.531976 0.089201
vt 0.114169 0.863238
vt 0.515724 0.116079
vt 0.533298 0.114473
vt 0.132895 0.850518
vt 1.000000 0.661065
vt 0.994319 0.685638
vt 0.150154 0.840230
vt 0.985095 0.708617
vt 0.165281 0.832768
vt 0.972680 0.729119
vt 0.189389 0.845232
vt 0.177695 0.828421
vt 0.257876 0.952849
vt 0.268981 0.942431
vt 0.985095 0.565869
vt 0.994319 0.587311
vt 1.000000 0.610939
vt 0.140209 0.830676
vt 0.152623 0.820609
vt 0.555033 0.183244
vt 0.545052 0.162416
vt 0.562564 0.161404
vt 0.569926 0.182384
vt 0.546478 0.019674
vt 0.556848 0.001569
vt 0.571741 0.000709
vt 0.563991 0.018663
vt 0.567271 0.200879
vt 0.578973 0.200203
vt 0.538695 0.040873
vt 0.558154 0.039749
vt 0.262507 0.930036
vt 0.278957 0.921826
vt 0.554456 0.063156
vt 0.298356 0.912757
vt 0.553038 0.087984
vt 0.110677 0.859883
vt 0.553955 0.113280
vt 0.126045 0.843938
vt 0.537713 0.139195
vt 0.557172 0.138071
vt 0.577403 0.062421
vt 0.576435 0.087235
vt 0.106571 0.857248
vt 0.296939 0.908034
vt 0.576902 0.112545
vt 0.117990 0.838768
vt 0.578788 0.137379
vt 0.128515 0.823171
vt 0.582018 0.160782
vt 0.137739 0.811056
vt 0.586470 0.181854
vt 0.588285 0.000179
vt 0.583444 0.018040
vt 0.591971 0.199787
vt 0.579770 0.039057
vt 0.258471 0.916585
vt 0.276178 0.912560
vt 0.602666 0.160571
vt 0.604029 0.181675
vt 0.605844 0.000000
vt 0.604092 0.017830
vt 0.605768 0.199646
vt 0.602712 0.038823
vt 0.257029 0.902594
vt 0.275185 0.902924
vt 0.601759 0.062173
vt 0.296433 0.903121
vt 0.601268 0.086982
vt 0.102008 0.855432
vt 0.601258 0.112297
vt 0.109040 0.835206
vt 0.601730 0.137145
vt 0.115521 0.818000
vt 0.121201 0.804476
vt 0.296857 0.898208
vt 0.626581 0.087235
vt 0.626085 0.112545
vt 0.097164 0.854507
vt 0.099538 0.833391
vt 0.625117 0.137379
vt 0.101727 0.815365
vt 0.623713 0.160782
vt 0.103645 0.801121
vt 0.621929 0.181854
vt 0.623744 0.000179
vt 0.625139 0.018040
vt 0.619831 0.199787
vt 0.626099 0.039057
vt 0.258237 0.888603
vt 0.276017 0.893286
vt 0.626586 0.062421
vt 0.639481 0.182384
vt 0.633622 0.200203
vt 0.645779 0.018663
vt 0.649032 0.039749
vt 0.262048 0.875148
vt 0.278642 0.884018
vt 0.650932 0.063156
vt 0.298195 0.893483
vt 0.651404 0.087984
vt 0.092225 0.854507
vt 0.650431 0.113280
vt 0.089851 0.833391
vt 0.648050 0.138071
vt 0.087662 0.815365
vt 0.644352 0.161404
vt 0.085744 0.801121
vt 0.641296 0.000709
vt 0.087381 0.855432
vt 0.080349 0.835206
vt 0.673359 0.114473
vt 0.669648 0.139195
vt 0.073868 0.818000
vt 0.663790 0.162416
vt 0.068188 0.804476
vt 0.656011 0.183244
vt 0.657826 0.001569
vt 0.665216 0.019674
vt 0.646609 0.200879
vt 0.670630 0.040873
vt 0.268316 0.862746
vt 0.282959 0.875475
vt 0.673860 0.064349
vt 0.300396 0.889128
vt 0.674781 0.089201
vt 0.682705 0.021036
vt 0.690062 0.042385
vt 0.276799 0.851874
vt 0.288802 0.867987
vt 0.694489 0.065954
vt 0.303375 0.885310
vt 0.695815 0.090838
vt 0.082819 0.857248
vt 0.693988 0.116079
vt 0.071399 0.838768
vt 0.689080 0.140707
vt 0.060875 0.823171
vt 0.681279 0.163777
vt 0.051650 0.811056
vt 0.670884 0.184401
vt 0.672699 0.002726
vt 0.257029 0.851429
vt 0.267827 0.837591
vt 0.711526 0.118035
vt 0.705600 0.142550
vt 0.063344 0.843938
vt 0.049180 0.830676
vt 0.696146 0.165435
vt 0.036766 0.820609
vt 0.683528 0.185812
vt 0.729047 0.036921
vt 0.741046 0.016173
vt 0.753727 0.017202
vt 0.743959 0.038130
vt 0.281029 0.826233
vt 0.287172 0.842950
vt 0.720288 0.060081
vt 0.736857 0.061425
vt 0.295948 0.861840
vt 0.715105 0.084764
vt 0.732694 0.086191
vt 0.307018 0.882177
vt 0.713696 0.110021
vt 0.731629 0.111475
vt 0.078712 0.859883
vt 0.713696 0.092832
vt 0.299037 0.836317
vt 0.304120 0.857271
vt 0.756326 0.062351
vt 0.753362 0.087173
vt 0.311184 0.879847
vt 0.752703 0.112477
vt 0.075220 0.863238
vt 0.733705 0.136307
vt 0.754373 0.137290
vt 0.056494 0.850518
vt 0.738840 0.159732
vt 0.758310 0.160658
vt 0.039235 0.840230
vt 0.746839 0.180850
vt 0.764360 0.181683
vt 0.024108 0.832768
vt 0.757392 0.198849
vt 0.772293 0.199558
vt 0.768628 0.017910
vt 0.761481 0.038963
vt 0.296130 0.817791
vt 0.777493 0.000000
s 0
usemtl Matériau
f 575/207/68 103/208/68 114/209/68 115/210/68
f 99/211/69 572/212/69 107/213/69 108/214/69
f 104/215/70 575/207/70 115/210/70 116/216/70
f 573/217/71 99/218/71 108/219/71 109/220/71
f 576/221/72 104/215/72 116/216/72 117/222/72
f 100/223/73 573/217/73 109/220/73 110/224/73
f 577/225/74 576/226/74 117/227/74 118/228/74
f 574/229/75 100/223/75 110/224/75 111/230/75
f 578/231/76 577/225/76 118/228/76 119/232/76
f 101/233/77 574/229/77 111/230/77 112/234/77
f 579/235/78 578/231/78 119/232/78 120/236/78
f 102/237/79 101/233/79 112/234/79 113/238/79
f 571/239/80 98/240/80 106/241/80
f 105/242/81 579/235/81 120/236/81
f 103/208/82 102/237/82 113/238/82 114/209/82
f 572/212/83 571/239/83 106/241/83 107/213/83
f 114/209/84 113/238/84 128/243/84 129/244/84
f 107/213/85 106/241/85 121/245/85 122/246/85
f 115/210/86 114/209/86 129/244/86 130/247/86
f 108/214/87 107/213/87 122/246/87 123/248/87
f 116/216/88 115/210/88 130/247/88 131/249/88
f 109/220/89 108/219/89 123/250/89 124/251/89
f 117/222/90 116/216/90 131/249/90 132/252/90
f 110/224/91 109/220/91 124/251/91 125/253/91
f 118/228/92 117/227/92 132/254/92 133/255/92
f 111/230/93 110/224/93 125/253/93 126/256/93
f 119/232/94 118/228/94 133/255/94 134/257/94
f 112/234/95 111/230/95 126/256/95 127/258/95
f 120/236/96 119/232/96 134/257/96 135/259/96
f 113/238/97 112/234/97 127/258/97 128/243/97
f 106/241/98 98/240/98 121/245/98
f 105/242/99 120/236/99 135/259/99
f 133/255/100 132/254/100 147/260/100 148/261/100
f 126/256/101 125/253/101 140/262/101 141/263/101
f 134/257/102 133/255/102 148/261/102 149/264/102
f 127/258/103 126/256/103 141/263/103 142/265/103
f 135/259/104 134/257/104 149/264/104 150/266/104
f 128/243/105 127/258/105 142/265/105 143/267/105
f 121/245/106 98/240/106 136/268/106
f 105/242/107 135/259/107 150/266/107
f 129/244/108 128/243/108 143/267/108 144/269/108
f 122/246/109 121/245/109 136/268/109 137/270/109
f 130/247/110 129/244/110 144/269/110 145/271/110
f 123/248/111 122/246/111 137/270/111 138/272/111
f 131/249/112 130/247/112 145/271/112 146/273/112
f 124/274/113 123/248/113 138/272/113 139/275/113
f 132/252/114 131/249/114 146/273/114 147/276/114
f 125/253/115 124/251/115 139/277/115 140/262/115
f 137/270/116 136/268/116 151/278/116 152/279/116
f 145/271/117 144/269/117 159/280/117 160/281/117
f 138/272/118 137/270/118 152/279/118 153/282/118
f 146/273/119 145/271/119 160/281/119 161/283/119
f 139/275/120 138/272/120 153/282/120 154/284/120
f 147/260/121 146/285/121 161/286/121 162/287/121
f 140/262/122 139/277/122 154/288/122 155/289/122
f 148/261/123 147/260/123 162/287/123 163/290/123
f 141/263/124 140/262/124 155/289/124 156/291/124
f 149/264/125 148/261/125 163/290/125 164/292/125
f 142/265/126 141/263/126 156/291/126 157/293/126
f 150/266/127 149/264/127 164/292/127 165/294/127
f 143/267/128 142/265/128 157/293/128 158/295/128
f 136/268/129 98/240/129 151/278/129
f 105/242/130 150/266/130 165/294/130
f 144/269/131 143/267/131 158/295/131 159/280/131
f 156/291/132 155/289/132 170/296/132 171/297/132
f 164/292/133 163/290/133 178/298/133 179/299/133
f 157/293/134 156/291/134 171/297/134 172/300/134
f 165/294/135 164/292/135 179/299/135 180/301/135
f 158/295/136 157/293/136 172/300/136 173/302/136
f 151/278/137 98/240/137 166/303/137
f 105/242/138 165/294/138 180/301/138
f 159/280/139 158/295/139 173/302/139 174/304/139
f 152/279/140 151/278/140 166/303/140 167/305/140
f 160/281/141 159/280/141 174/304/141 175/306/141
f 153/282/142 152/279/142 167/305/142 168/307/142
f 161/283/143 160/281/143 175/306/143 176/308/143
f 154/284/144 153/282/144 168/307/144 169/309/144
f 162/287/145 161/286/145 176/310/145 177/311/145
f 155/289/146 154/288/146 169/312/146 170/296/146
f 163/290/147 162/287/147 177/311/147 178/298/147
f 175/306/148 174/304/148 189/313/148 190/314/148
f 168/307/149 167/305/149 182/315/149 183/316/149
f 176/310/150 175/317/150 190/318/150 191/319/150
f 169/309/151 168/307/151 183/316/151 184/320/151
f 177/311/152 176/310/152 191/319/152 192/321/152
f 170/322/153 169/309/153 184/320/153 185/323/153
f 178/298/154 177/311/154 192/321/154 193/324/154
f 171/297/155 170/296/155 185/325/155 186/326/155
f 179/299/156 178/298/156 193/324/156 194/327/156
f 172/300/157 171/297/157 186/326/157 187/328/157
f 180/301/158 179/299/158 194/327/158 195/329/158
f 173/302/159 172/300/159 187/328/159 188/330/159
f 166/303/160 98/240/160 181/331/160
f 105/242/161 180/301/161 195/329/161
f 174/304/162 173/302/162 188/330/162 189/313/162
f 167/305/163 166/303/163 181/331/163 182/315/163
f 194/327/164 193/324/164 208/332/164 209/333/164
f 187/334/165 186/335/165 201/336/165 202/337/165
f 195/329/166 194/327/166 209/333/166 210/338/166
f 188/339/167 187/334/167 202/337/167 203/340/167
f 181/331/168 98/240/168 196/341/168
f 105/242/169 195/329/169 210/338/169
f 189/342/170 188/339/170 203/340/170 204/343/170
f 182/315/171 181/331/171 196/341/171 197/344/171
f 190/345/172 189/342/172 204/343/172 205/346/172
f 183/316/173 182/315/173 197/344/173 198/347/173
f 191/319/174 190/318/174 205/348/174 206/349/174
f 184/320/175 183/316/175 198/347/175 199/350/175
f 192/321/176 191/319/176 206/349/176 207/351/176
f 185/323/177 184/320/177 199/350/177 200/352/177
f 193/324/178 192/321/178 207/351/178 208/332/178
f 186/353/179 185/323/179 200/352/179 201/354/179
f 206/355/180 205/346/180 220/356/180 221/357/180
f 199/350/181 198/347/181 213/358/181 214/359/181
f 207/351/182 206/349/182 221/360/182 222/361/182
f 200/352/183 199/350/183 214/359/183 215/362/183
f 208/332/184 207/351/184 222/361/184 223/363/184
f 201/336/185 200/364/185 215/365/185 216/366/185
f 209/333/186 208/332/186 223/363/186 224/367/186
f 202/337/187 201/336/187 216/366/187 217/368/187
f 210/338/188 209/333/188 224/367/188 225/369/188
f 203/340/189 202/337/189 217/368/189 218/370/189
f 196/341/190 98/240/190 211/371/190
f 105/242/191 210/338/191 225/369/191
f 204/343/192 203/340/192 218/370/192 219/372/192
f 197/344/193 196/341/193 211/371/193 212/373/193
f 205/346/194 204/343/194 219/372/194 220/356/194
f 198/347/195 197/344/195 212/373/195 213/358/195
f 225/369/196 224/367/196 239/374/196 240/375/196
f 218/370/197 217/368/197 232/376/197 233/377/197
f 211/371/198 98/240/198 226/378/198
f 105/242/199 225/369/199 240/375/199
f 219/372/200 218/370/200 233/377/200 234/379/200
f 212/373/201 211/371/201 226/378/201 227/380/201
f 220/356/202 219/372/202 234/379/202 235/381/202
f 213/358/203 212/373/203 227/380/203 228/382/203
f 221/357/204 220/356/204 235/381/204 236/383/204
f 214/359/205 213/358/205 228/382/205 229/384/205
f 222/361/206 221/360/206 236/385/206 237/386/206
f 215/362/207 214/359/207 229/384/207 230/387/207
f 223/363/208 222/361/208 237/386/208 238/388/208
f 216/366/209 215/365/209 230/389/209 231/390/209
f 224/367/210 223/363/210 238/388/210 239/374/210
f 217/368/211 216/366/211 231/390/211 232/376/211
f 229/384/212 228/382/212 243/391/212 244/392/212
f 237/393/213 236/383/213 251/394/213 252/395/213
f 230/387/214 229/384/214 244/392/214 245/396/214
f 238/388/215 237/386/215 252/397/215 253/398/215
f 231/390/216 230/389/216 245/399/216 246/400/216
f 239/374/217 238/388/217 253/398/217 254/401/217
f 232/376/218 231/390/218 246/400/218 247/402/218
f 240/375/219 239/374/219 254/401/219 255/403/219
f 233/377/220 232/376/220 247/402/220 248/404/220
f 226/378/221 98/240/221 241/405/221
f 105/242/222 240/375/222 255/403/222
f 234/379/223 233/377/223 248/404/223 249/406/223
f 227/380/224 226/378/224 241/405/224 242/407/224
f 235/381/225 234/379/225 249/406/225 250/408/225
f 228/382/226 227/380/226 242/407/226 243/391/226
f 236/383/227 235/381/227 250/408/227 251/394/227
f 248/404/228 247/402/228 262/409/228 263/410/228
f 241/405/229 98/240/229 256/411/229
f 105/242/230 255/403/230 270/412/230
f 249/406/231 248/404/231 263/410/231 264/413/231
f 242/407/232 241/405/232 256/411/232 257/414/232
f 250/408/233 249/406/233 264/413/233 265/415/233
f 243/391/234 242/407/234 257/414/234 258/416/234
f 251/394/235 250/408/235 265/415/235 266/417/235
f 244/392/236 243/391/236 258/416/236 259/418/236
f 252/395/237 251/394/237 266/417/237 267/419/237
f 245/396/238 244/392/238 259/418/238 260/420/238
f 253/398/239 252/397/239 267/421/239 268/422/239
f 246/400/240 245/399/240 260/423/240 261/424/240
f 254/401/241 253/398/241 268/422/241 269/425/241
f 247/402/242 246/400/242 261/424/242 262/409/242
f 255/403/243 254/401/243 269/425/243 270/412/243
f 267/419/244 266/417/244 281/426/244 282/427/244
f 260/420/245 259/418/245 274/428/245 275/429/245
f 268/422/246 267/421/246 282/430/246 283/431/246
f 261/424/247 260/423/247 275/432/247 276/433/247
f 269/425/248 268/422/248 283/431/248 284/434/248
f 262/409/249 261/424/249 276/433/249 277/435/249
f 270/412/250 269/425/250 284/434/250 285/436/250
f 263/410/251 262/409/251 277/435/251 278/437/251
f 256/411/252 98/240/252 271/438/252
f 105/242/253 270/412/253 285/436/253
f 264/413/254 263/410/254 278/437/254 279/439/254
f 257/414/255 256/411/255 271/438/255 272/440/255
f 265/415/256 264/413/256 279/439/256 280/441/256
f 258/416/257 257/414/257 272/440/257 273/442/257
f 266/417/258 265/415/258 280/441/258 281/426/258
f 259/418/259 258/416/259 273/442/259 274/428/259
f 271/438/260 98/240/260 286/443/260
f 105/242/261 285/436/261 300/444/261
f 279/439/262 278/437/262 293/445/262 294/446/262
f 272/440/263 271/438/263 286/443/263 287/447/263
f 280/441/264 279/439/264 294/446/264 295/448/264
f 273/442/265 272/440/265 287/447/265 288/449/265
f 281/426/266 280/441/266 295/448/266 296/450/266
f 274/428/267 273/442/267 288/449/267 289/451/267
f 282/427/268 281/426/268 296/450/268 297/452/268
f 275/429/269 274/428/269 289/451/269 290/453/269
f 283/431/270 282/430/270 297/454/270 298/455/270
f 276/433/271 275/432/271 290/456/271 291/457/271
f 284/434/272 283/431/272 298/455/272 299/458/272
f 277/435/273 276/433/273 291/457/273 292/459/273
f 285/436/274 284/434/274 299/458/274 300/444/274
f 278/437/275 277/435/275 292/459/275 293/445/275
f 290/453/276 289/451/276 304/460/276 305/461/276
f 298/455/277 297/454/277 312/462/277 313/463/277
f 291/457/278 290/456/278 305/464/278 306/465/278
f 299/458/279 298/455/279 313/463/279 314/466/279
f 292/459/280 291/457/280 306/465/280 307/467/280
f 300/444/281 299/458/281 314/466/281 315/468/281
f 293/445/282 292/459/282 307/467/282 308/469/282
f 286/443/283 98/240/283 301/470/283
f 105/242/284 300/444/284 315/468/284
f 294/446/285 293/445/285 308/469/285 309/471/285
f 287/447/286 286/443/286 301/470/286 302/472/286
f 295/448/287 294/446/287 309/471/287 310/473/287
f 288/449/288 287/447/288 302/472/288 303/474/288
f 296/450/289 295/448/289 310/473/289 311/475/289
f 289/451/290 288/449/290 303/474/290 304/460/290
f 297/454/291 296/476/291 311/477/291 312/462/291
f 309/478/292 308/479/292 323/480/292 324/481/292
f 302/472/293 301/470/293 316/482/293 317/483/293
f 310/484/294 309/478/294 324/481/294 325/485/294
f 303/474/295 302/472/295 317/483/295 318/486/295
f 311/487/296 310/484/296 325/485/296 326/488/296
f 304/460/297 303/474/297 318/486/297 319/489/297
f 312/490/298 311/487/298 326/488/298 327/491/298
f 305/461/299 304/460/299 319/489/299 320/492/299
f 313/463/300 312/462/300 327/493/300 328/494/300
f 306/495/301 305/496/301 320/497/301 321/498/301
f 314/466/302 313/463/302 328/494/302 329/499/302
f 307/500/303 306/495/303 321/498/303 322/501/303
f 315/468/304 314/466/304 329/499/304 330/502/304
f 308/479/305 307/500/305 322/501/305 323/480/305
f 301/470/306 98/240/306 316/482/306
f 105/242/307 315/468/307 330/502/307
f 328/494/308 327/493/308 342/503/308 343/504/308
f 321/498/309 320/497/309 335/505/309 336/506/309
f 329/499/310 328/494/310 343/504/310 344/507/310
f 322/501/311 321/498/311 336/506/311 337/508/311
f 330/502/312 329/499/312 344/507/312 345/509/312
f 323/480/313 322/501/313 337/508/313 338/510/313
f 316/482/314 98/240/314 331/511/314
f 105/242/315 330/502/315 345/509/315
f 324/481/316 323/480/316 338/510/316 339/512/316
f 317/483/317 316/482/317 331/511/317 332/513/317
f 325/485/318 324/481/318 339/512/318 340/514/318
f 318/486/319 317/483/319 332/513/319 333/515/319
f 326/488/320 325/485/320 340/514/320 341/516/320
f 319/489/321 318/486/321 333/515/321 334/517/321
f 327/491/322 326/488/322 341/516/322 342/518/322
f 320/492/323 319/489/323 334/517/323 335/519/323
f 340/514/324 339/512/324 354/520/324 355/521/324
f 333/515/325 332/513/325 347/522/325 348/523/325
f 341/516/326 340/514/326 355/521/326 356/524/326
f 334/517/327 333/515/327 348/523/327 349/525/327
f 342/518/328 341/516/328 356/524/328 357/526/328
f 335/505/329 334/527/329 349/528/329 350/529/329
f 343/504/330 342/503/330 357/530/330 358/531/330
f 336/506/331 335/505/331 350/529/331 351/532/331
f 344/507/332 343/504/332 358/531/332 359/533/332
f 337/508/333 336/506/333 351/532/333 352/534/333
f 345/509/334 344/507/334 359/533/334 360/535/334
f 338/510/335 337/508/335 352/534/335 353/536/335
f 331/511/336 98/240/336 346/537/336
f 105/242/337 345/509/337 360/535/337
f 339/512/338 338/510/338 353/536/338 354/520/338
f 332/513/339 331/511/339 346/537/339 347/522/339
f 359/533/340 358/531/340 373/538/340 374/539/340
f 352/534/341 351/532/341 366/540/341 367/541/341
f 360/535/342 359/533/342 374/539/342 375/542/342
f 353/536/343 352/534/343 367/541/343 368/543/343
f 346/537/344 98/240/344 361/544/344
f 105/242/345 360/535/345 375/542/345
f 354/520/346 353/536/346 368/543/346 369/545/346
f 347/522/347 346/537/347 361/544/347 362/546/347
f 355/521/348 354/520/348 369/545/348 370/547/348
f 348/523/349 347/522/349 362/546/349 363/548/349
f 356/524/350 355/521/350 370/547/350 371/549/350
f 349/525/351 348/523/351 363/548/351 364/550/351
f 357/526/352 356/524/352 371/549/352 372/551/352
f 350/529/353 349/528/353 364/552/353 365/553/353
f 358/554/354 357/526/354 372/551/354 373/555/354
f 351/532/355 350/529/355 365/553/355 366/540/355
f 363/548/356 362/546/356 377/556/356 378/557/356
f 371/549/357 370/547/357 385/558/357 386/559/357
f 364/550/358 363/548/358 378/557/358 379/560/358
f 372/551/359 371/549/359 386/559/359 387/561/359
f 365/553/360 364/552/360 379/562/360 380/563/360
f 373/555/361 372/551/361 387/561/361 388/564/361
f 366/540/362 365/553/362 380/563/362 381/565/362
f 374/539/363 373/538/363 388/566/363 389/567/363
f 367/541/364 366/540/364 381/565/364 382/568/364
f 375/542/365 374/539/365 389/567/365 390/569/365
f 368/543/366 367/541/366 382/568/366 383/570/366
f 361/544/367 98/240/367 376/571/367
f 105/242/368 375/542/368 390/569/368
f 369/545/369 368/543/369 383/570/369 384/572/369
f 362/546/370 361/544/370 376/571/370 377/556/370
f 370/547/371 369/545/371 384/572/371 385/558/371
f 382/568/372 381/565/372 396/573/372 397/574/372
f 390/569/373 389/567/373 404/575/373 405/576/373
f 383/570/374 382/568/374 397/574/374 398/577/374
f 376/571/375 98/240/375 391/578/375
f 105/242/376 390/569/376 405/576/376
f 384/572/377 383/570/377 398/577/377 399/579/377
f 377/556/378 376/571/378 391/578/378 392/580/378
f 385/558/379 384/572/379 399/579/379 400/581/379
f 378/557/380 377/556/380 392/580/380 393/582/380
f 386/559/381 385/558/381 400/581/381 401/583/381
f 379/560/382 378/557/382 393/582/382 394/584/382
f 387/561/383 386/559/383 401/583/383 402/585/383
f 380/563/384 379/562/384 394/586/384 395/587/384
f 388/564/385 387/561/385 402/585/385 403/588/385
f 381/565/386 380/563/386 395/587/386 396/573/386
f 389/567/387 388/566/387 403/589/387 404/575/387
f 401/583/388 400/581/388 415/590/388 416/591/388
f 394/584/389 393/582/389 408/592/389 409/593/389
f 402/585/390 401/583/390 416/591/390 417/594/390
f 395/587/391 394/586/391 409/595/391 410/596/391
f 403/589/392 402/597/392 417/598/392 418/599/392
f 396/573/393 395/587/393 410/596/393 411/600/393
f 404/575/394 403/589/394 418/599/394 419/601/394
f 397/574/395 396/573/395 411/600/395 412/602/395
f 405/576/396 404/575/396 419/601/396 420/603/396
f 398/577/397 397/574/397 412/602/397 413/604/397
f 391/578/398 98/240/398 406/605/398
f 105/242/399 405/576/399 420/603/399
f 399/579/400 398/577/400 413/604/400 414/606/400
f 392/580/401 391/578/401 406/605/401 407/607/401
f 400/581/402 399/579/402 414/606/402 415/590/402
f 393/582/403 392/580/403 407/607/403 408/592/403
f 420/603/404 419/601/404 434/608/404 435/609/404
f 413/610/405 412/611/405 427/612/405 428/613/405
f 406/605/406 98/240/406 421/614/406
f 105/242/407 420/603/407 435/609/407
f 414/615/408 413/610/408 428/613/408 429/616/408
f 407/607/409 406/605/409 421/614/409 422/617/409
f 415/590/410 414/606/410 429/618/410 430/619/410
f 408/592/411 407/607/411 422/617/411 423/620/411
f 416/591/412 415/590/412 430/619/412 431/621/412
f 409/593/413 408/592/413 423/620/413 424/622/413
f 417/594/414 416/591/414 431/621/414 432/623/414
f 410/624/415 409/593/415 424/622/415 425/625/415
f 418/599/416 417/598/416 432/626/416 433/627/416
f 411/600/417 410/596/417 425/628/417 426/629/417
f 419/601/418 418/599/418 433/627/418 434/608/418
f 412/602/419 411/600/419 426/629/419 427/630/419
f 424/622/420 423/620/420 438/631/420 439/632/420
f 432/633/421 431/634/421 446/635/421 447/636/421
f 425/637/422 424/638/422 439/639/422 440/640/422
f 433/641/423 432/633/423 447/636/423 448/642/423
f 426/643/424 425/637/424 440/640/424 441/644/424
f 434/608/425 433/627/425 448/645/425 449/646/425
f 427/612/426 426/643/426 441/644/426 442/647/426
f 435/609/427 434/608/427 449/646/427 450/648/427
f 428/613/428 427/612/428 442/647/428 443/649/428
f 421/614/429 98/240/429 436/650/429
f 105/242/430 435/609/430 450/648/430
f 429/616/431 428/613/431 443/649/431 444/651/431
f 422/617/432 421/614/432 436/650/432 437/652/432
f 430/653/433 429/616/433 444/651/433 445/654/433
f 423/620/434 422/617/434 437/652/434 438/631/434
f 431/634/435 430/653/435 445/654/435 446/635/435
f 443/649/436 442/647/436 457/655/436 458/656/436
f 436/650/437 98/240/437 451/657/437
f 105/242/438 450/648/438 465/658/438
f 444/651/439 443/649/439 458/656/439 459/659/439
f 437/652/440 436/650/440 451/657/440 452/660/440
f 445/654/441 444/651/441 459/659/441 460/661/441
f 438/631/442 437/652/442 452/660/442 453/662/442
f 446/635/443 445/654/443 460/661/443 461/663/443
f 439/632/444 438/631/444 453/662/444 454/664/444
f 447/636/445 446/635/445 461/663/445 462/665/445
f 440/640/446 439/639/446 454/666/446 455/667/446
f 448/642/447 447/636/447 462/665/447 463/668/447
f 441/644/448 440/640/448 455/667/448 456/669/448
f 449/646/449 448/645/449 463/670/449 464/671/449
f 442/647/450 441/644/450 456/669/450 457/655/450
f 450/648/451 449/646/451 464/671/451 465/658/451
f 462/665/452 461/663/452 476/672/452 477/673/452
f 455/667/453 454/666/453 469/674/453 470/675/453
f 463/668/454 462/665/454 477/673/454 478/676/454
f 456/669/455 455/667/455 470/675/455 471/677/455
f 464/671/456 463/670/456 478/678/456 479/679/456
f 457/655/457 456/669/457 471/677/457 472/680/457
f 465/658/458 464/671/458 479/679/458 480/681/458
f 458/656/459 457/655/459 472/680/459 473/682/459
f 451/657/460 98/240/460 466/683/460
f 105/242/461 465/658/461 480/681/461
f 459/659/462 458/656/462 473/682/462 474/684/462
f 452/660/463 451/657/463 466/683/463 467/685/463
f 460/661/464 459/659/464 474/684/464 475/686/464
f 453/662/465 452/660/465 467/685/465 468/687/465
f 461/663/466 460/661/466 475/686/466 476/672/466
f 454/664/467 453/662/467 468/687/467 469/688/467
f 105/242/468 480/681/468 495/689/468
f 474/684/469 473/682/469 488/690/469 489/691/469
f 467/685/470 466/683/470 481/692/470 482/693/470
f 475/686/471 474/684/471 489/691/471 490/694/471
f 468/687/472 467/685/472 482/693/472 483/695/472
f 476/672/473 475/686/473 490/694/473 491/696/473
f 469/688/474 468/687/474 483/695/474 484/697/474
f 477/673/475 476/672/475 491/696/475 492/698/475
f 470/675/476 469/674/476 484/699/476 485/700/476
f 478/676/477 477/673/477 492/698/477 493/701/477
f 471/677/478 470/675/478 485/700/478 486/702/478
f 479/679/479 478/678/479 493/703/479 494/704/479
f 472/680/480 471/677/480 486/702/480 487/705/480
f 480/681/481 479/679/481 494/704/481 495/689/481
f 473/682/482 472/680/482 487/705/482 488/690/482
f 466/683/483 98/240/483 481/692/483
f 493/701/484 492/698/484 507/706/484 508/707/484
f 486/702/485 485/700/485 500/708/485 501/709/485
f 494/704/486 493/703/486 508/710/486 509/711/486
f 487/705/487 486/702/487 501/709/487 502/712/487
f 495/689/488 494/704/488 509/711/488 510/713/488
f 488/690/489 487/705/489 502/712/489 503/714/489
f 481/692/490 98/240/490 496/715/490
f 105/242/491 495/689/491 510/713/491
f 489/691/492 488/690/492 503/714/492 504/716/492
f 482/693/493 481/692/493 496/715/493 497/717/493
f 490/694/494 489/691/494 504/716/494 505/718/494
f 483/695/495 482/693/495 497/717/495 498/719/495
f 491/696/496 490/694/496 505/718/496 506/720/496
f 484/697/497 483/695/497 498/719/497 499/721/497
f 492/698/498 491/696/498 506/720/498 507/706/498
f 485/700/499 484/699/499 499/722/499 500/708/499
f 497/717/500 496/715/500 511/723/500 512/724/500
f 505/718/501 504/716/501 519/725/501 520/726/501
f 498/719/502 497/717/502 512/724/502 513/727/502
f 506/720/503 505/718/503 520/726/503 521/728/503
f 499/721/504 498/719/504 513/727/504 514/729/504
f 507/706/505 506/720/505 521/728/505 522/730/505
f 500/708/506 499/722/506 514/731/506 515/732/506
f 508/707/507 507/706/507 522/730/507 523/733/507
f 501/709/508 500/708/508 515/732/508 516/734/508
f 509/711/509 508/710/509 523/735/509 524/736/509
f 502/712/510 501/709/510 516/734/510 517/737/510
f 510/713/511 509/711/511 524/736/511 525/738/511
f 503/714/512 502/712/512 517/737/512 518/739/512
f 496/715/513 98/240/513 511/723/513
f 105/242/514 510/713/514 525/738/514
f 504/716/515 503/714/515 518/739/515 519/725/515
f 516/734/516 515/732/516 530/740/516 531/741/516
f 524/736/517 523/735/517 538/742/517 539/743/517
f 517/737/518 516/734/518 531/741/518 532/744/518
f 525/738/519 524/736/519 539/743/519 540/745/519
f 518/739/520 517/737/520 532/744/520 533/746/520
f 511/723/521 98/240/521 526/747/521
f 105/242/522 525/738/522 540/745/522
f 519/725/523 518/739/523 533/746/523 534/748/523
f 512/724/524 511/723/524 526/747/524 527/749/524
f 520/726/525 519/725/525 534/748/525 535/750/525
f 513/727/526 512/724/526 527/749/526 528/751/526
f 521/728/527 520/726/527 535/750/527 536/752/527
f 514/729/528 513/727/528 528/751/528 529/753/528
f 522/730/529 521/728/529 536/752/529 537/754/529
f 515/732/530 514/731/530 529/755/530 530/740/530
f 523/735/531 522/756/531 537/757/531 538/742/531
f 535/750/532 534/748/532 549/758/532 550/759/532
f 528/751/533 527/749/533 542/760/533 543/761/533
f 536/752/534 535/750/534 550/759/534 551/762/534
f 529/753/535 528/751/535 543/761/535 544/763/535
f 537/754/536 536/752/536 551/762/536 552/764/536
f 530/765/537 529/766/537 544/767/537 545/768/537
f 538/742/538 537/757/538 552/769/538 553/770/538
f 531/771/539 530/765/539 545/768/539 546/772/539
f 539/743/540 538/742/540 553/770/540 554/773/540
f 532/774/541 531/771/541 546/772/541 547/775/541
f 540/745/542 539/743/542 554/773/542 555/776/542
f 533/777/543 532/774/543 547/775/543 548/778/543
f 526/747/544 98/240/544 541/779/544
f 105/242/545 540/745/545 555/776/545
f 534/748/546 533/746/546 548/780/546 549/758/546
f 527/749/547 526/747/547 541/779/547 542/760/547
f 554/773/548 553/770/548 568/781/548 569/782/548
f 547/775/549 546/772/549 561/783/549 562/784/549
f 555/776/550 554/773/550 569/782/550 570/785/550
f 548/778/551 547/775/551 562/784/551 563/786/551
f 541/779/552 98/240/552 556/787/552
f 105/242/553 555/776/553 570/785/553
f 549/788/554 548/778/554 563/786/554 564/789/554
f 542/760/555 541/779/555 556/787/555 557/790/555
f 550/791/556 549/788/556 564/789/556 565/792/556
f 543/761/557 542/760/557 557/790/557 558/793/557
f 551/794/558 550/791/558 565/792/558 566/795/558
f 544/763/559 543/761/559 558/793/559 559/796/559
f 552/797/560 551/794/560 566/795/560 567/798/560
f 545/768/561 544/767/561 559/799/561 560/800/561
f 553/770/562 552/769/562 567/801/562 568/781/562
f 546/772/563 545/768/563 560/800/563 561/783/563
f 558/793/564 557/790/564 572/212/564 99/211/564
f 566/795/565 565/792/565 575/207/565 104/215/565
f 559/799/566 558/802/566 99/218/566 573/217/566
f 567/798/567 566/795/567 104/215/567 576/221/567
f 560/800/568 559/799/568 573/217/568 100/223/568
f 568/781/569 567/801/569 576/226/569 577/225/569
f 561/783/570 560/800/570 100/223/570 574/229/570
f 569/782/571 568/781/571 577/225/571 578/231/571
f 562/784/572 561/783/572 574/229/572 101/233/572
f 570/785/573 569/782/573 578/231/573 579/235/573
f 563/786/574 562/784/574 101/233/574 102/237/574
f 556/787/575 98/240/575 571/239/575
f 105/242/576 570/785/576 579/235/576
f 564/789/577 563/786/577 102/237/577 103/208/577
f 557/790/578 556/787/578 571/239/578 572/212/578
f 565/792/579 564/789/579 103/208/579 575/207/579
