# Blender 5.0.0
# www.blender.org
mtllib island.mtl
o Cône
v 0.000000 0.317719 -5.832793
v -1.137921 0.317719 -5.720717
v -2.232113 0.317719 -5.388797
v -3.240526 0.317719 -4.849789
v -4.124407 0.317719 -4.124407
v -4.849789 0.317719 -3.240526
v -5.388798 0.317720 -2.232113
v -5.720717 0.317720 -1.137921
v -5.832793 0.317720 -0.000000
v -5.720717 0.317720 1.137921
v -5.388797 0.317720 2.232113
v -4.849789 0.317719 3.240526
v -4.124407 0.317719 4.124407
v -3.240526 0.317719 4.849789
v -2.232113 0.317719 5.388798
v -1.137921 0.317719 5.720717
v 0.000000 0.317719 5.832793
v 1.137922 0.317719 5.720717
v 2.232113 0.317719 5.388797
v 3.240526 0.317719 4.849789
v 4.124407 0.317719 4.124407
v 4.849789 0.317719 3.240526
v 5.388798 0.317719 2.232113
v 5.720717 0.317719 1.137921
v 5.832793 0.317719 0.000000
v 5.720717 0.317719 -1.137921
v 5.388797 0.317719 -2.232113
v 4.849789 0.317719 -3.240526
v 4.124407 0.317719 -4.124407
v 3.240526 0.317719 -4.849789
v 2.232113 0.317719 -5.388797
v 1.137922 0.317719 -5.720717
v -0.000000 -2.288035 0.000000
vn -0.0401 -0.9123 -0.4076
vn -0.1189 -0.9123 -0.3919
vn -0.1931 -0.9123 -0.3612
vn -0.2598 -0.9123 -0.3166
vn -0.3166 -0.9123 -0.2598
vn -0.3612 -0.9123 -0.1931
vn -0.3919 -0.9123 -0.1189
vn -0.4076 -0.9123 -0.0401
vn -0.4076 -0.9123 0.0401
vn -0.3919 -0.9123 0.1189
vn -0.3612 -0.9123 0.1931
vn -0.3166 -0.9123 0.2598
vn -0.2598 -0.9123 0.3166
vn -0.1931 -0.9123 0.3612
vn -0.1189 -0.9123 0.3919
vn -0.0401 -0.9123 0.4076
vn 0.0401 -0.9123 0.4076
vn 0.1189 -0.9123 0.3919
vn 0.1931 -0.9123 0.3612
vn 0.2598 -0.9123 0.3166
vn 0.3166 -0.9123 0.2598
vn 0.3612 -0.9123 0.1931
vn 0.3919 -0.9123 0.1189
vn 0.4076 -0.9123 0.0401
vn 0.4076 -0.9123 -0.0401
vn 0.3919 -0.9123 -0.1189
vn 0.3612 -0.9123 -0.1931
vn 0.3166 -0.9123 -0.2598
vn 0.2598 -0.9123 -0.3166
vn 0.1931 -0.9123 -0.3612
vn -0.0000 1.0000 -0.0000
vn 0.1189 -0.9123 -0.3919
vn 0.0401 -0.9123 -0.4076
vt 0.657910 0.383489
vt 0.500000 0.498385
vt 0.639582 0.339656
vt 0.615939 0.302036
vt 0.587888 0.272046
vt 0.556503 0.250812
vt 0.522976 0.239127
vt 0.488579 0.237428
vt 0.454614 0.245780
vt 0.422369 0.263869
vt 0.393068 0.291019
vt 0.367830 0.326214
vt 0.347622 0.368128
vt 0.333227 0.415178
vt 0.325210 0.465579
vt 0.323898 0.517407
vt 0.329359 0.568671
vt 0.341402 0.617392
vt 0.359579 0.661680
vt 0.383201 0.699807
vt 0.411360 0.730278
vt 0.442968 0.751895
vt 0.476799 0.763805
vt 0.511534 0.765537
vt 0.545820 0.757023
vt 0.578319 0.738599
vt 0.607770 0.710993
vt 0.633031 0.675292
vt 0.653130 0.632896
vt 0.667302 0.585463
vt 0.675015 0.534837
vt 0.675990 0.482977
vt 0.670208 0.431876
s 0
usemtl Matériau
f 1/1/1 33/2/1 2/3/1
f 2/3/2 33/2/2 3/4/2
f 3/4/3 33/2/3 4/5/3
f 4/5/4 33/2/4 5/6/4
f 5/6/5 33/2/5 6/7/5
f 6/7/6 33/2/6 7/8/6
f 7/8/7 33/2/7 8/9/7
f 8/9/8 33/2/8 9/10/8
f 9/10/9 33/2/9 10/11/9
f 10/11/10 33/2/10 11/12/10
f 11/12/11 33/2/11 12/13/11
f 12/13/12 33/2/12 13/14/12
f 13/14/13 33/2/13 14/15/13
f 14/15/14 33/2/14 15/16/14
f 15/16/15 33/2/15 16/17/15
f 16/17/16 33/2/16 17/18/16
f 17/18/17 33/2/17 18/19/17
f 18/19/18 33/2/18 19/20/18
f 19/20/19 33/2/19 20/21/19
f 20/21/20 33/2/20 21/22/20
f 21/22/21 33/2/21 22/23/21
f 22/23/22 33/2/22 23/24/22
f 23/24/23 33/2/23 24/25/23
f 24/25/24 33/2/24 25/26/24
f 25/26/25 33/2/25 26/27/25
f 26/27/26 33/2/26 27/28/26
f 27/28/27 33/2/27 28/29/27
f 28/29/28 33/2/28 29/30/28
f 29/30/29 33/2/29 30/31/29
f 30/31/30 33/2/30 31/32/30
f 1/1/31 2/3/31 3/4/31 4/5/31 5/6/31 6/7/31 7/8/31 8/9/31 9/10/31 10/11/31 11/12/31 12/13/31 13/14/31 14/15/31 15/16/31 16/17/31 17/18/31 18/19/31 19/20/31 20/21/31 21/22/31 22/23/31 23/24/31 24/25/31 25/26/31 26/27/31 27/28/31 28/29/31 29/30/31 30/31/31 31/32/31 32/33/31
f 31/32/32 33/2/32 32/33/32
f 32/33/33 33/2/33 1/1/33
