# Blender 5.0.0
# www.blender.org
mtllib statue.mtl
o Cube
v -1.000000 -0.020379 1.000000
v -1.000000 1.979621 1.000000
v -1.000000 -0.020379 -1.000000
v -1.000000 1.979621 -1.000000
v 1.000000 -0.020379 1.000000
v 1.000000 1.979621 1.000000
v 1.000000 -0.020379 -1.000000
v 1.000000 1.979621 -1.000000
vn -1.0000 -0.0000 -0.0000
vn -0.0000 -0.0000 -1.0000
vn 1.0000 -0.0000 -0.0000
vn -0.0000 -0.0000 1.0000
vn -0.0000 -1.0000 -0.0000
vn -0.0000 1.0000 -0.0000
vt 0.233094 0.233094
vt 0.000000 0.233094
vt 0.000000 0.000000
vt 0.233094 0.000000
vt 0.233094 0.466188
vt 0.000000 0.466188
vt 0.000000 0.233094
vt 0.233094 0.233094
vt 0.466188 0.233094
vt 0.233094 0.233094
vt 0.233094 0.000000
vt 0.466188 0.000000
vt 0.466188 0.466188
vt 0.233094 0.466188
vt 0.233094 0.233094
vt 0.466188 0.233094
vt 0.233094 0.466188
vt 0.233094 0.699282
vt 0.000000 0.699282
vt 0.000000 0.466188
vt 0.699282 0.000000
vt 0.699281 0.233094
vt 0.466188 0.233094
vt 0.466188 0.000000
s 0
usemtl Matériau.001
f 1/1/1 2/2/1 4/3/1 3/4/1
f 3/5/2 4/6/2 8/7/2 7/8/2
f 7/9/3 8/10/3 6/11/3 5/12/3
f 5/13/4 6/14/4 2/15/4 1/16/4
f 3/17/5 7/18/5 5/19/5 1/20/5
f 8/21/6 4/22/6 2/23/6 6/24/6
o Cylindre
v 0.000000 1.794372 0.362631
v 0.000000 6.041263 0.362631
v -0.070746 1.794372 0.355663
v -0.070746 6.041263 0.355663
v -0.138773 1.794372 0.335027
v -0.138773 6.041263 0.335027
v -0.201467 1.794372 0.301517
v -0.201467 6.041263 0.301517
v -0.256419 1.794372 0.256419
v -0.256419 6.041263 0.256419
v -0.301517 1.794372 0.201467
v -0.301517 6.041263 0.201467
v -0.335027 1.794372 0.138773
v -0.335027 6.041263 0.138773
v -0.355663 1.794372 0.070746
v -0.355663 6.041263 0.070746
v -0.362631 1.794372 0.000000
v -0.362631 6.041263 0.000000
v -0.355663 1.794372 -0.070746
v -0.355663 6.041263 -0.070746
v -0.335027 1.794372 -0.138773
v -0.335027 6.041263 -0.138773
v -0.301517 1.794372 -0.201467
v -0.301517 6.041263 -0.201467
v -0.256419 1.794372 -0.256419
v -0.256419 6.041263 -0.256419
v -0.201467 1.794372 -0.301517
v -0.201467 6.041263 -0.301517
v -0.138773 1.794372 -0.335027
v -0.138773 6.041263 -0.335027
v -0.070746 1.794372 -0.355663
v -0.070746 6.041263 -0.355663
v 0.000000 1.794372 -0.362631
v 0.000000 6.041263 -0.362631
v 0.070746 1.794372 -0.355663
v 0.070746 6.041263 -0.355663
v 0.138773 1.794372 -0.335027
v 0.138773 6.041263 -0.335027
v 0.201467 1.794372 -0.301517
v 0.201467 6.041263 -0.301517
v 0.256419 1.794372 -0.256419
v 0.256419 6.041263 -0.256419
v 0.301517 1.794372 -0.201467
v 0.301517 6.041263 -0.201467
v 0.335027 1.794372 -0.138773
v 0.335027 6.041263 -0.138773
v 0.355663 1.794372 -0.070746
v 0.355663 6.041263 -0.070746
v 0.362631 1.794372 0.000000
v 0.362631 6.041263 0.000000
v 0.355663 1.794372 0.070746
v 0.355663 6.041263 0.070746
v 0.335027 1.794372 0.138773
v 0.335027 6.041263 0.138773
v 0.301517 1.794372 0.201467
v 0.301517 6.041263 0.201467
v 0.256419 1.794372 0.256419
v 0.256419 6.041263 0.256419
v 0.201467 1.794372 0.301517
v 0.201467 6.041263 0.301517
v 0.138773 1.794372 0.335027
v 0.138773 6.041263 0.335027
v 0.070746 1.794372 0.355663
v 0.070746 6.041263 0.355663
vn -0.0980 -0.0000 0.9952
vn -0.2903 -0.0000 0.9569
vn -0.4714 -0.0000 0.8819
vn -0.6344 -0.0000 0.7730
vn -0.7730 -0.0000 0.6344
vn -0.8819 -0.0000 0.4714
vn -0.9569 -0.0000 0.2903
vn -0.9952 -0.0000 0.0980
vn -0.9952 -0.0000 -0.0980
vn -0.9569 -0.0000 -0.2903
vn -0.8819 -0.0000 -0.4714
vn -0.7730 -0.0000 -0.6344
vn -0.6344 -0.0000 -0.7730
vn -0.4714 -0.0000 -0.8819
vn -0.2903 -0.0000 -0.9569
vn -0.0980 -0.0000 -0.9952
vn 0.0980 -0.0000 -0.9952
vn 0.2903 -0.0000 -0.9569
vn 0.4714 -0.0000 -0.8819
vn 0.6344 -0.0000 -0.7730
vn 0.7730 -0.0000 -0.6344
vn 0.8819 -0.0000 -0.4714
vn 0.9569 -0.0000 -0.2903
vn 0.9952 -0.0000 -0.0980
vn 0.9952 -0.0000 0.0980
vn 0.9569 -0.0000 0.2903
vn 0.8819 -0.0000 0.4714
vn 0.7730 -0.0000 0.6344
vn 0.6344 -0.0000 0.7730
vn 0.4714 -0.0000 0.8819
vn -0.0000 1.0000 -0.0000
vn 0.2903 -0.0000 0.9569
vn 0.0980 -0.0000 0.9952
vn -0.0000 -1.0000 -0.0000
vt 0.800797 0.233094
vt 0.800797 0.000000
vt 0.823205 0.000000
vt 0.823205 0.233094
vt 0.844313 0.000000
vt 0.844313 0.233094
vt 0.863310 0.000000
vt 0.863310 0.233094
vt 0.466188 0.698159
vt 0.466188 0.465065
vt 0.482343 0.465065
vt 0.482343 0.698159
vt 0.501340 0.465065
vt 0.501340 0.698159
vt 0.522448 0.465065
vt 0.522448 0.698159
vt 0.544856 0.465065
vt 0.544856 0.698159
vt 0.567703 0.465065
vt 0.567703 0.698159
vt 0.590111 0.465065
vt 0.590111 0.698159
vt 0.611220 0.465065
vt 0.611220 0.698159
vt 0.630216 0.465065
vt 0.630216 0.698159
vt 0.646372 0.465065
vt 0.646372 0.698159
vt 0.646372 0.907358
vt 0.646372 0.674264
vt 0.662527 0.674264
vt 0.662527 0.907358
vt 0.681524 0.674264
vt 0.681524 0.907358
vt 0.702632 0.674264
vt 0.702632 0.907358
vt 0.725040 0.674264
vt 0.725040 0.907358
vt 0.747887 0.674264
vt 0.747887 0.907358
vt 0.770295 0.674264
vt 0.770295 0.907358
vt 0.791403 0.674264
vt 0.791403 0.907358
vt 0.810400 0.674264
vt 0.810400 0.907358
vt 0.233094 0.931253
vt 0.233094 0.698159
vt 0.252091 0.698159
vt 0.252091 0.931253
vt 0.273199 0.698159
vt 0.273199 0.931253
vt 0.295607 0.698159
vt 0.295607 0.931253
vt 0.318454 0.698159
vt 0.318454 0.931253
vt 0.340862 0.698159
vt 0.340862 0.931253
vt 0.361970 0.698159
vt 0.361970 0.931253
vt 0.380967 0.698159
vt 0.380967 0.931253
vt 0.699282 0.233094
vt 0.699282 0.000000
vt 0.715437 0.000000
vt 0.715437 0.233094
vt 0.734434 0.000000
vt 0.734434 0.233094
vt 0.755542 0.000000
vt 0.755542 0.233094
vt 0.508237 0.439172
vt 0.492081 0.423016
vt 0.479388 0.404019
vt 0.470645 0.382911
vt 0.466188 0.360503
vt 0.466188 0.337656
vt 0.470645 0.315248
vt 0.479388 0.294140
vt 0.492081 0.275143
vt 0.508237 0.258988
vt 0.527234 0.246294
vt 0.548342 0.237551
vt 0.570750 0.233094
vt 0.593597 0.233094
vt 0.616005 0.237551
vt 0.637113 0.246294
vt 0.656110 0.258988
vt 0.672265 0.275143
vt 0.684959 0.294140
vt 0.693702 0.315248
vt 0.698159 0.337656
vt 0.698159 0.360503
vt 0.693702 0.382911
vt 0.684959 0.404019
vt 0.672265 0.423016
vt 0.656110 0.439171
vt 0.637113 0.451865
vt 0.616005 0.460608
vt 0.593597 0.465065
vt 0.570750 0.465065
vt 0.548342 0.460608
vt 0.527234 0.451865
vt 0.777950 0.000000
vt 0.777950 0.233094
vt 0.258988 0.656110
vt 0.246294 0.637113
vt 0.237551 0.616005
vt 0.233094 0.593597
vt 0.233094 0.570750
vt 0.237551 0.548342
vt 0.246294 0.527234
vt 0.258988 0.508237
vt 0.275143 0.492081
vt 0.294140 0.479388
vt 0.315248 0.470645
vt 0.337656 0.466188
vt 0.360503 0.466188
vt 0.382911 0.470645
vt 0.404019 0.479388
vt 0.423016 0.492081
vt 0.439172 0.508237
vt 0.451865 0.527234
vt 0.460608 0.548342
vt 0.465065 0.570750
vt 0.465065 0.593597
vt 0.460608 0.616005
vt 0.451865 0.637113
vt 0.439172 0.656110
vt 0.423016 0.672265
vt 0.404019 0.684959
vt 0.382911 0.693702
vt 0.360503 0.698159
vt 0.337656 0.698159
vt 0.315248 0.693702
vt 0.294140 0.684959
vt 0.275143 0.672265
s 0
f 9/25/7 10/26/7 12/27/7 11/28/7
f 11/28/8 12/27/8 14/29/8 13/30/8
f 13/30/9 14/29/9 16/31/9 15/32/9
f 15/33/10 16/34/10 18/35/10 17/36/10
f 17/36/11 18/35/11 20/37/11 19/38/11
f 19/38/12 20/37/12 22/39/12 21/40/12
f 21/40/13 22/39/13 24/41/13 23/42/13
f 23/42/14 24/41/14 26/43/14 25/44/14
f 25/44/15 26/43/15 28/45/15 27/46/15
f 27/46/16 28/45/16 30/47/16 29/48/16
f 29/48/17 30/47/17 32/49/17 31/50/17
f 31/50/18 32/49/18 34/51/18 33/52/18
f 33/53/19 34/54/19 36/55/19 35/56/19
f 35/56/20 36/55/20 38/57/20 37/58/20
f 37/58/21 38/57/21 40/59/21 39/60/21
f 39/60/22 40/59/22 42/61/22 41/62/22
f 41/62/23 42/61/23 44/63/23 43/64/23
f 43/64/24 44/63/24 46/65/24 45/66/24
f 45/66/25 46/65/25 48/67/25 47/68/25
f 47/68/26 48/67/26 50/69/26 49/70/26
f 49/71/27 50/72/27 52/73/27 51/74/27
f 51/74/28 52/73/28 54/75/28 53/76/28
f 53/76/29 54/75/29 56/77/29 55/78/29
f 55/78/30 56/77/30 58/79/30 57/80/30
f 57/80/31 58/79/31 60/81/31 59/82/31
f 59/82/32 60/81/32 62/83/32 61/84/32
f 61/84/33 62/83/33 64/85/33 63/86/33
f 63/87/34 64/88/34 66/89/34 65/90/34
f 65/90/35 66/89/35 68/91/35 67/92/35
f 67/92/36 68/91/36 70/93/36 69/94/36
f 12/95/37 10/96/37 72/97/37 70/98/37 68/99/37 66/100/37 64/101/37 62/102/37 60/103/37 58/104/37 56/105/37 54/106/37 52/107/37 50/108/37 48/109/37 46/110/37 44/111/37 42/112/37 40/113/37 38/114/37 36/115/37 34/116/37 32/117/37 30/118/37 28/119/37 26/120/37 24/121/37 22/122/37 20/123/37 18/124/37 16/125/37 14/126/37
f 69/94/38 70/93/38 72/127/38 71/128/38
f 71/128/39 72/127/39 10/26/39 9/25/39
f 9/129/40 11/130/40 13/131/40 15/132/40 17/133/40 19/134/40 21/135/40 23/136/40 25/137/40 27/138/40 29/139/40 31/140/40 33/141/40 35/142/40 37/143/40 39/144/40 41/145/40 43/146/40 45/147/40 47/148/40 49/149/40 51/150/40 53/151/40 55/152/40 57/153/40 59/154/40 61/155/40 63/156/40 65/157/40 67/158/40 69/159/40 71/160/40
o Sphère
v 0.000000 7.773299 0.000000
v 0.000000 7.457131 -1.042266
v -0.001113 6.944154 -1.566191
v -0.001696 6.265345 -1.848833
v -0.005918 5.875371 -1.959418
v -0.010987 5.505682 -1.940665
v 0.000000 4.855005 -1.559861
v 0.000000 4.021242 0.000000
v 0.071402 7.737251 -0.358963
v 0.140060 7.630494 -0.704130
v 0.203336 7.457131 -1.022239
v 0.258806 7.223839 -1.301078
v 0.328253 6.980737 -1.583366
v 0.377324 6.659016 -1.793615
v 0.394521 6.280391 -1.901134
v 0.395156 5.885190 -1.945840
v 0.369577 5.513776 -1.870592
v 0.338137 5.179344 -1.699925
v 0.304314 4.855005 -1.529888
v 0.258798 4.570718 -1.301063
v 0.203336 4.337409 -1.022239
v 0.140060 4.164046 -0.704130
v 0.071402 4.057289 -0.358963
v 0.140060 7.737251 -0.338135
v 0.274738 7.630494 -0.663276
v 0.398858 7.457131 -0.962928
v 0.512497 7.232780 -1.235109
v 0.636792 7.000853 -1.525812
v 0.719744 6.679989 -1.729239
v 0.756667 6.289142 -1.830424
v 0.759850 5.895426 -1.845571
v 0.723881 5.520210 -1.758930
v 0.663290 5.179331 -1.601333
v 0.596933 4.855005 -1.441123
v 0.507650 4.570718 -1.225575
v 0.398858 4.337409 -0.962928
v 0.274738 4.164046 -0.663276
v 0.140060 4.057289 -0.338135
v 0.203336 7.737251 -0.304314
v 0.398858 7.630494 -0.596933
v 0.579052 7.457131 -0.866612
v 0.737408 7.224615 -1.103755
v 0.885677 6.971732 -1.333838
v 0.968965 6.622485 -1.451795
v 1.022239 6.263265 -1.529888
v 1.042266 5.897270 -1.559860
v 1.022239 5.531275 -1.529888
v 0.962928 5.179345 -1.441123
v 0.866612 4.855005 -1.296976
v 0.736993 4.570718 -1.102988
v 0.579052 4.337409 -0.866612
v 0.398858 4.164046 -0.596933
v 0.203336 4.057289 -0.304314
v 0.258797 7.737251 -0.258797
v 0.507650 7.630494 -0.507650
v 0.736993 7.457131 -0.736993
v 0.938014 7.223823 -0.938014
v 1.102988 6.939536 -1.102988
v 1.225574 6.615195 -1.225575
v 1.301063 6.263265 -1.301063
v 1.326552 5.897270 -1.326552
v 1.301063 5.531275 -1.301063
v 1.225574 5.179345 -1.225575
v 1.102988 4.855005 -1.102988
v 0.938014 4.570718 -0.938014
v 0.736993 4.337409 -0.736993
v 0.507650 4.164046 -0.507650
v 0.258797 4.057289 -0.258797
v 0.304314 7.737251 -0.203336
v 0.596933 7.630494 -0.398858
v 0.866612 7.457131 -0.579052
v 1.102988 7.223823 -0.736993
v 1.296977 6.939536 -0.866612
v 1.441123 6.615195 -0.962928
v 1.529888 6.263265 -1.022238
v 1.565995 5.895908 -1.047284
v 1.612126 5.515704 -1.070544
v 1.449951 5.177641 -0.967610
v 1.296977 4.855005 -0.866612
v 1.102988 4.570718 -0.736993
v 0.866612 4.337409 -0.579052
v 0.596933 4.164046 -0.398858
v 0.304314 4.057289 -0.203336
v 0.338135 7.737251 -0.140060
v 0.663276 7.630494 -0.274738
v 0.962928 7.457131 -0.398858
v 1.225575 7.223823 -0.507650
v 1.441123 6.939536 -0.596933
v 1.601290 6.615195 -0.663276
v 1.699921 6.263265 -0.704130
v 1.765139 5.892052 -0.734059
v 1.884797 5.498913 -0.785776
v 1.665213 5.167461 -0.690976
v 1.441123 4.855005 -0.596933
v 1.225575 4.570718 -0.507650
v 0.962928 4.337409 -0.398858
v 0.663276 4.164046 -0.274738
v 0.338135 4.057289 -0.140060
v 0.358962 7.737251 -0.071402
v 0.704130 7.630494 -0.140060
v 1.022239 7.457131 -0.203336
v 1.301063 7.223823 -0.258798
v 1.529888 6.939536 -0.304314
v 1.699921 6.615195 -0.338135
v 1.804626 6.263265 -0.358962
v 1.889305 5.889593 -0.374942
v 2.004340 5.496812 -0.409313
v 1.759961 5.168731 -0.351834
v 1.529888 4.855005 -0.304314
v 1.301063 4.570718 -0.258798
v 1.022239 4.337409 -0.203336
v 0.704130 4.164046 -0.140060
v 0.358962 4.057289 -0.071402
v 0.365995 7.737251 0.000000
v 0.717925 7.630494 0.000000
v 1.042265 7.457131 0.000000
v 1.326552 7.223823 -0.000000
v 1.559860 6.939536 0.000000
v 1.733224 6.615195 -0.000000
v 1.839981 6.263265 0.000000
v 1.914260 5.889021 -0.002403
v 2.014652 5.493560 -0.018958
v 1.773562 5.169993 -0.005287
v 1.559860 4.855005 0.000000
v 1.326552 4.570718 -0.000000
v 1.042265 4.337409 0.000000
v 0.717925 4.164046 0.000000
v 0.365995 4.057289 0.000000
v 0.358962 7.737251 0.071402
v 0.704130 7.630494 0.140060
v 1.022238 7.457131 0.203336
v 1.301063 7.223823 0.258797
v 1.537967 6.945470 0.306686
v 1.801472 6.664869 0.358290
v 1.961821 6.300506 0.381979
v 1.994894 5.894238 0.392025
v 1.992871 5.474258 0.385869
v 1.733930 5.164865 0.340759
v 1.529888 4.855005 0.304314
v 1.301063 4.570718 0.258797
v 1.022238 4.337409 0.203336
v 0.704130 4.164046 0.140060
v 0.358962 4.057289 0.071402
v 0.338135 7.737251 0.140060
v 0.663276 7.630494 0.274738
v 0.962945 7.457155 0.398872
v 1.249753 7.251337 0.521734
v 1.511041 6.991815 0.626190
v 1.768679 6.698716 0.717589
v 1.947133 6.318758 0.771452
v 1.994523 5.891372 0.796225
v 1.922707 5.471447 0.784826
v 1.684948 5.136336 0.699676
v 1.445919 4.851827 0.598769
v 1.225574 4.570718 0.507650
v 0.962927 4.337409 0.398858
v 0.663276 4.164046 0.274738
v 0.338135 4.057289 0.140060
v 0.304314 7.737251 0.203336
v 0.596933 7.630494 0.398858
v 0.874407 7.470258 0.586312
v 1.126948 7.253950 0.752992
v 1.346583 6.982977 0.890295
v 1.492041 6.643452 0.985942
v 1.568310 6.275551 1.037890
v 1.608792 5.893906 1.063172
v 1.603191 5.508217 1.057920
v 1.483035 5.155808 0.984619
v 1.297310 4.854789 0.866815
v 1.102988 4.570718 0.736993
v 0.866612 4.337409 0.579052
v 0.596933 4.164046 0.398858
v 0.304314 4.057289 0.203336
v 0.258797 7.737251 0.258797
v 0.507649 7.630494 0.507650
v 0.743546 7.469503 0.743810
v 0.951219 7.244262 0.949024
v 1.102988 6.939536 1.102988
v 1.225574 6.615195 1.225574
v 1.301063 6.263265 1.301063
v 1.326551 5.897270 1.326552
v 1.301063 5.531275 1.301063
v 1.225574 5.179345 1.225574
v 1.102988 4.855005 1.102988
v 0.938014 4.570718 0.938014
v 0.736993 4.337409 0.736993
v 0.507649 4.164046 0.507650
v 0.258797 4.057289 0.258797
v 0.203336 7.737251 0.304314
v 0.398866 7.630517 0.596946
v 0.582252 7.464389 0.870426
v 0.738875 7.228130 1.105235
v 0.866612 6.939536 1.296976
v 0.962928 6.615195 1.441123
v 1.022238 6.263265 1.529888
v 1.042265 5.897270 1.559860
v 1.022238 5.531275 1.529888
v 0.962928 5.179345 1.441123
v 0.866612 4.855005 1.296976
v 0.736993 4.570718 1.102988
v 0.579051 4.337409 0.866612
v 0.398858 4.164046 0.596933
v 0.203336 4.057289 0.304314
v 0.140060 7.737251 0.338135
v 0.274738 7.630494 0.663276
v 0.399722 7.459510 0.964214
v 0.507650 7.223823 1.225574
v 0.596932 6.939536 1.441123
v 0.663276 6.615195 1.601290
v 0.704130 6.263265 1.699920
v 0.717924 5.897270 1.733224
v 0.704130 5.531275 1.699920
v 0.663276 5.179345 1.601290
v 0.596932 4.855005 1.441123
v 0.507650 4.570718 1.225574
v 0.398857 4.337409 0.962927
v 0.274738 4.164046 0.663276
v 0.140060 4.057289 0.338135
v 0.071402 7.737251 0.358962
v 0.140060 7.630494 0.704130
v 0.203336 7.457131 1.022238
v 0.258797 7.223823 1.301063
v 0.304313 6.939536 1.529888
v 0.338135 6.615195 1.699920
v 0.358962 6.263265 1.804626
v 0.365994 5.897270 1.839980
v 0.358962 5.531275 1.804626
v 0.338135 5.179345 1.699920
v 0.304313 4.855005 1.529888
v 0.258797 4.570718 1.301063
v 0.203336 4.337409 1.022238
v 0.140060 4.164046 0.704130
v 0.071402 4.057289 0.358962
v -0.000000 7.737251 0.365995
v -0.000000 7.630494 0.717925
v -0.000000 7.457131 1.042265
v -0.000000 7.223823 1.326552
v -0.000000 6.939536 1.559860
v 0.000000 6.615195 1.733224
v -0.000000 6.263265 1.839980
v -0.000001 5.897270 1.876027
v -0.000000 5.531275 1.839980
v 0.000000 5.179345 1.733224
v -0.000000 4.855005 1.559860
v -0.000000 4.570718 1.326552
v -0.000000 4.337409 1.042265
v -0.000000 4.164046 0.717925
v -0.000000 4.057289 0.365995
v -0.071402 7.737251 0.358962
v -0.140060 7.630494 0.704130
v -0.203336 7.457131 1.022238
v -0.258797 7.223823 1.301063
v -0.304314 6.939536 1.529888
v -0.338135 6.615195 1.699920
v -0.358963 6.263265 1.804626
v -0.365995 5.897270 1.839980
v -0.358963 5.531275 1.804626
v -0.338135 5.179345 1.699920
v -0.304314 4.855005 1.529888
v -0.258797 4.570718 1.301063
v -0.203336 4.337409 1.022238
v -0.140060 4.164046 0.704130
v -0.071402 4.057289 0.358962
v -0.140060 7.737251 0.338135
v -0.274738 7.630494 0.663276
v -0.398858 7.457131 0.962927
v -0.507650 7.223823 1.225574
v -0.596933 6.939536 1.441123
v -0.663276 6.615195 1.601290
v -0.704130 6.263265 1.699920
v -0.717925 5.897270 1.733223
v -0.704130 5.531275 1.699920
v -0.663276 5.179345 1.601290
v -0.596933 4.855005 1.441123
v -0.507650 4.570718 1.225574
v -0.398858 4.337409 0.962927
v -0.274738 4.164046 0.663276
v -0.140060 4.057289 0.338135
v -0.203336 7.737251 0.304313
v -0.398858 7.630494 0.596933
v -0.579051 7.457131 0.866611
v -0.736993 7.223823 1.102988
v -0.866612 6.939536 1.296976
v -0.962927 6.615195 1.441123
v -1.022239 6.263265 1.529888
v -1.042265 5.897270 1.559859
v -1.022239 5.531275 1.529888
v -0.962927 5.179345 1.441123
v -0.866612 4.855005 1.296976
v -0.736993 4.570718 1.102988
v -0.579051 4.337409 0.866611
v -0.398858 4.164046 0.596933
v -0.203336 4.057289 0.304313
v -0.258797 7.737251 0.258797
v -0.507650 7.630494 0.507649
v -0.736993 7.457131 0.736992
v -0.938014 7.223823 0.938014
v -1.102988 6.939536 1.102987
v -1.225574 6.615195 1.225574
v -1.301063 6.263265 1.301062
v -1.326552 5.897270 1.326551
v -1.301063 5.531275 1.301062
v -1.225574 5.179345 1.225574
v -1.102988 4.855005 1.102987
v -0.938014 4.570718 0.938014
v -0.736993 4.337409 0.736992
v -0.507650 4.164046 0.507649
v -0.258797 4.057289 0.258797
v -0.304313 7.737251 0.203336
v -0.596933 7.630494 0.398858
v -0.866612 7.457131 0.579051
v -1.103943 7.224918 0.737300
v -1.296976 6.939536 0.866611
v -1.441123 6.615195 0.962927
v -1.529888 6.263265 1.022238
v -1.565230 5.896366 1.044657
v -1.538401 5.529495 1.025994
v -1.441123 5.179345 0.962927
v -1.296976 4.855005 0.866611
v -1.102988 4.570718 0.736993
v -0.866612 4.337409 0.579051
v -0.596933 4.164046 0.398858
v -0.304313 4.057289 0.203336
v -0.338135 7.737251 0.140060
v -0.663276 7.630494 0.274738
v -0.962927 7.457131 0.398857
v -1.256009 7.253047 0.517165
v -1.521346 7.008915 0.621024
v -1.668953 6.656823 0.686354
v -1.736228 6.270197 0.717136
v -1.776444 5.893180 0.732860
v -1.725435 5.527868 0.714272
v -1.601290 5.179345 0.663276
v -1.441123 4.855005 0.596932
v -1.225574 4.570718 0.507649
v -0.962927 4.337409 0.398857
v -0.663276 4.164046 0.274738
v -0.338135 4.057289 0.140060
v -0.358962 7.737251 0.071402
v -0.704130 7.630494 0.140060
v -1.022239 7.457131 0.203336
v -1.341064 7.261317 0.271145
v -1.631809 7.021065 0.336815
v -1.856247 6.700796 0.393576
v -2.042638 6.300266 0.421588
v -2.007327 5.904799 0.411307
v -1.826270 5.529201 0.364469
v -1.699920 5.179345 0.338135
v -1.529888 4.855005 0.304313
v -1.301063 4.570718 0.258797
v -1.022238 4.337409 0.203335
v -0.704130 4.164046 0.140060
v -0.358962 4.057289 0.071402
v -0.365995 7.737251 -0.000000
v -0.717925 7.630494 -0.000000
v -1.042265 7.457131 -0.000000
v -1.329539 7.227016 0.000941
v -1.594350 6.968229 0.010229
v -1.897519 6.678112 0.020989
v -2.056059 6.307426 0.037112
v -2.008145 5.901457 0.022890
v -1.839980 5.531275 -0.000001
v -1.733224 5.179345 -0.000000
v -1.559860 4.855005 -0.000000
v -1.326552 4.570718 -0.000000
v -1.042265 4.337409 -0.000000
v -0.717925 4.164046 -0.000000
v -0.365995 4.057289 -0.000000
v -0.358962 7.737251 -0.071402
v -0.704130 7.630494 -0.140060
v -1.022238 7.457131 -0.203336
v -1.301187 7.223953 -0.258838
v -1.604374 6.985170 -0.310675
v -1.849682 6.681790 -0.340793
v -1.937487 6.303494 -0.354509
v -1.839979 5.897270 -0.365995
v -1.804625 5.531275 -0.358963
v -1.699920 5.179345 -0.338135
v -1.529887 4.855005 -0.304314
v -1.301063 4.570718 -0.258798
v -1.022238 4.337409 -0.203336
v -0.704130 4.164046 -0.140060
v -0.358962 4.057289 -0.071402
v -0.338135 7.737251 -0.140060
v -0.663276 7.630494 -0.274738
v -0.962927 7.457131 -0.398858
v -1.242974 7.241031 -0.514149
v -1.562860 7.029699 -0.638329
v -1.784747 6.721344 -0.734842
v -1.826811 6.293947 -0.779960
v -1.838914 5.895142 -0.779911
v -1.758694 5.518193 -0.737117
v -1.613521 5.175215 -0.669923
v -1.441122 4.855005 -0.596933
v -1.225574 4.570718 -0.507650
v -0.962927 4.337409 -0.398858
v -0.663276 4.164046 -0.274738
v -0.338135 4.057289 -0.140060
v -0.304313 7.737251 -0.203336
v -0.596932 7.630494 -0.398858
v -0.866611 7.457131 -0.579051
v -1.115230 7.236300 -0.741607
v -1.388666 7.013273 -0.906069
v -1.559638 6.678129 -1.027667
v -1.653036 6.293194 -1.095640
v -1.663394 5.895271 -1.102941
v -1.585786 5.518239 -1.054592
v -1.453759 5.175091 -0.969804
v -1.296976 4.855005 -0.866612
v -1.102988 4.570718 -0.736993
v -0.866611 4.337409 -0.579051
v -0.596932 4.164046 -0.398858
v -0.304313 4.057289 -0.203336
v -0.258797 7.737251 -0.258797
v -0.507649 7.630494 -0.507649
v -0.736992 7.457131 -0.736993
v -0.938014 7.223823 -0.938014
v -1.102987 6.939536 -1.102988
v -1.225574 6.615195 -1.225574
v -1.301062 6.263265 -1.301063
v -1.326550 5.897270 -1.326552
v -1.301062 5.531275 -1.301063
v -1.225574 5.179345 -1.225574
v -1.102987 4.855005 -1.102988
v -0.938014 4.570718 -0.938014
v -0.736992 4.337409 -0.736993
v -0.507649 4.164046 -0.507649
v -0.258797 4.057289 -0.258797
v -0.203336 7.737251 -0.304313
v -0.398857 7.630494 -0.596933
v -0.579051 7.457131 -0.866611
v -0.736999 7.223845 -1.103006
v -0.866611 6.939536 -1.296976
v -0.962927 6.615195 -1.441123
v -1.022238 6.263265 -1.529888
v -1.042264 5.897270 -1.559859
v -1.022238 5.531275 -1.529888
v -0.962927 5.179345 -1.441123
v -0.866611 4.855005 -1.296976
v -0.736993 4.570718 -1.102988
v -0.579051 4.337409 -0.866611
v -0.398857 4.164046 -0.596933
v -0.203336 4.057289 -0.304313
v -0.140060 7.737251 -0.338135
v -0.274738 7.630494 -0.663276
v -0.398857 7.457131 -0.962927
v -0.510745 7.235563 -1.236342
v -0.607529 6.982778 -1.493888
v -0.673121 6.646396 -1.660419
v -0.712614 6.275142 -1.741803
v -0.735989 5.901077 -1.799477
v -0.709174 5.529620 -1.717657
v -0.663276 5.179345 -1.601290
v -0.596932 4.855005 -1.441122
v -0.507649 4.570718 -1.225574
v -0.398857 4.337409 -0.962927
v -0.274738 4.164046 -0.663276
v -0.140060 4.057289 -0.338135
v -0.071402 7.737251 -0.358962
v -0.140060 7.630494 -0.704130
v -0.203335 7.457131 -1.022238
v -0.262417 7.237463 -1.314007
v -0.318145 6.990948 -1.605173
v -0.360754 6.677428 -1.829833
v -0.390090 6.303998 -1.958091
v -0.405608 5.896125 -2.001053
v -0.382399 5.511191 -1.918956
v -0.338135 5.179345 -1.699921
v -0.304313 4.855005 -1.529887
v -0.258797 4.570718 -1.301063
v -0.203335 4.337409 -1.022238
v -0.140060 4.164046 -0.704130
v -0.071402 4.057289 -0.358962
v 0.000000 7.737251 -0.365995
v 0.000000 7.630494 -0.717925
v -0.000001 7.223825 -1.326554
v -0.003052 6.623077 -1.751734
v 0.000000 5.179345 -1.733223
v 0.000000 4.570718 -1.326552
v 0.000000 4.337409 -1.042264
v 0.000000 4.164046 -0.717925
v 0.000000 4.057289 -0.365995
vn 0.0865 -0.4696 -0.8786
vn 0.0623 0.7715 -0.6331
vn 0.0759 -0.6326 -0.7708
vn -0.0338 0.7039 -0.7095
vn 0.0624 -0.7715 -0.6332
vn -0.1231 0.5138 -0.8491
vn 0.0464 -0.8810 -0.4709
vn -0.1331 0.2622 -0.9558
vn 0.0286 -0.9565 -0.2902
vn -0.0536 0.1940 -0.9795
vn 0.0097 0.9951 -0.0980
vn 0.0097 -0.9951 -0.0980
vn 0.1084 -0.1295 -0.9856
vn 0.0286 0.9565 -0.2902
vn 0.1291 -0.4955 -0.8590
vn 0.0464 0.8810 -0.4709
vn 0.2678 -0.4505 -0.8517
vn 0.1374 0.8810 -0.4528
vn 0.2562 -0.4697 -0.8448
vn 0.1527 0.7828 -0.6033
vn 0.2248 -0.6326 -0.7412
vn 0.0950 0.7819 -0.6161
vn 0.1847 -0.7715 -0.6088
vn 0.1192 0.5546 -0.8235
vn 0.1374 -0.8810 -0.4528
vn 0.1704 0.2691 -0.9479
vn 0.0846 -0.9565 -0.2790
vn 0.2265 0.0748 -0.9711
vn 0.0286 0.9951 -0.0942
vn 0.0286 -0.9951 -0.0942
vn 0.2803 -0.2254 -0.9331
vn 0.0846 0.9565 -0.2790
vn 0.2230 -0.8810 -0.4173
vn 0.7420 0.2389 -0.6264
vn 0.1374 -0.9565 -0.2571
vn 0.7304 0.0627 -0.6801
vn 0.0464 0.9951 -0.0869
vn 0.0464 -0.9951 -0.0869
vn 0.6562 -0.1654 -0.7362
vn 0.1374 0.9565 -0.2571
vn 0.5126 -0.3651 -0.7771
vn 0.2230 0.8810 -0.4173
vn 0.4162 -0.4697 -0.7786
vn 0.3161 0.7839 -0.5344
vn 0.3651 -0.6326 -0.6831
vn 0.4027 0.7655 -0.5018
vn 0.2999 -0.7715 -0.5611
vn 0.6518 0.4533 -0.6080
vn 0.3002 0.8810 -0.3658
vn 0.5601 -0.4696 -0.6825
vn 0.4048 0.7725 -0.4893
vn 0.4913 -0.6326 -0.5987
vn 0.5318 0.6807 -0.5038
vn 0.4036 -0.7715 -0.4918
vn 0.6467 0.4241 -0.6340
vn 0.3002 -0.8810 -0.3658
vn 0.6255 0.2712 -0.7316
vn 0.1850 -0.9565 -0.2254
vn 0.6314 0.0975 -0.7693
vn 0.0625 0.9951 -0.0761
vn 0.0625 -0.9951 -0.0761
vn 0.6314 -0.0975 -0.7693
vn 0.1850 0.9565 -0.2254
vn 0.6073 -0.2890 -0.7400
vn 0.7400 0.2890 -0.6073
vn 0.2254 -0.9565 -0.1850
vn 0.7617 0.1080 -0.6389
vn 0.0761 0.9951 -0.0625
vn 0.0761 -0.9951 -0.0625
vn 0.6796 0.0166 -0.7334
vn 0.2254 0.9565 -0.1850
vn 0.6140 -0.3891 -0.6868
vn 0.3658 0.8810 -0.3002
vn 0.6685 -0.4808 -0.5674
vn 0.4918 0.7715 -0.4036
vn 0.5987 -0.6326 -0.4913
vn 0.5987 0.6326 -0.4913
vn 0.4918 -0.7715 -0.4036
vn 0.6825 0.4696 -0.5601
vn 0.3658 -0.8810 -0.3002
vn 0.6912 -0.5532 -0.4650
vn 0.5611 0.7715 -0.2999
vn 0.6831 -0.6326 -0.3651
vn 0.6831 0.6326 -0.3651
vn 0.5611 -0.7715 -0.2999
vn 0.7786 0.4696 -0.4162
vn 0.4173 -0.8810 -0.2230
vn 0.8443 0.2890 -0.4513
vn 0.2571 -0.9565 -0.1374
vn 0.8533 0.1541 -0.4981
vn 0.0869 0.9951 -0.0464
vn 0.0869 -0.9951 -0.0464
vn 0.7690 0.2229 -0.5991
vn 0.2571 0.9565 -0.1374
vn 0.6286 -0.5273 -0.5717
vn 0.4173 0.8810 -0.2230
vn 0.2790 -0.9565 -0.0846
vn 0.9309 0.2059 -0.3018
vn 0.0942 0.9951 -0.0286
vn 0.0942 -0.9951 -0.0286
vn 0.9052 0.3030 -0.2980
vn 0.2790 0.9565 -0.0846
vn 0.7698 -0.5949 -0.2312
vn 0.4528 0.8810 -0.1374
vn 0.7651 -0.6049 -0.2210
vn 0.6088 0.7715 -0.1847
vn 0.7412 -0.6326 -0.2248
vn 0.7412 0.6326 -0.2248
vn 0.6088 -0.7715 -0.1847
vn 0.8448 0.4696 -0.2563
vn 0.4528 -0.8810 -0.1374
vn 0.9161 0.2890 -0.2779
vn 0.6332 0.7715 -0.0624
vn 0.7708 -0.6326 -0.0759
vn 0.7708 0.6326 -0.0759
vn 0.6332 -0.7715 -0.0624
vn 0.8786 0.4696 -0.0865
vn 0.4709 -0.8810 -0.0464
vn 0.9527 0.2890 -0.0938
vn 0.2902 -0.9565 -0.0286
vn 0.9746 0.2091 -0.0802
vn 0.0980 0.9951 -0.0097
vn 0.0980 -0.9951 -0.0097
vn 0.9630 0.2660 -0.0432
vn 0.2902 0.9565 -0.0286
vn 0.8002 -0.5991 -0.0276
vn 0.4709 0.8810 -0.0464
vn 0.8137 -0.5788 -0.0534
vn 0.9578 0.1292 -0.2568
vn 0.0980 0.9951 0.0097
vn 0.0980 -0.9951 0.0097
vn 0.9901 0.1214 -0.0708
vn 0.2902 0.9565 0.0286
vn 0.7829 -0.6206 0.0438
vn 0.4709 0.8810 0.0464
vn 0.8264 -0.5567 0.0841
vn 0.6332 0.7715 0.0624
vn 0.7708 -0.6326 0.0759
vn 0.7637 0.6431 0.0572
vn 0.6332 -0.7715 0.0624
vn 0.8105 0.5764 -0.1047
vn 0.4709 -0.8810 0.0464
vn 0.9048 0.3285 -0.2709
vn 0.2902 -0.9565 0.0286
vn 0.7392 -0.6388 0.2132
vn 0.7319 0.6813 0.0119
vn 0.6088 -0.7715 0.1847
vn 0.7419 0.6704 -0.0139
vn 0.4528 -0.8810 0.1374
vn 0.9086 0.4166 0.0286
vn 0.2790 -0.9565 0.0846
vn 0.9952 0.0968 0.0170
vn 0.0942 0.9951 0.0286
vn 0.0942 -0.9951 0.0286
vn 0.9923 -0.0890 0.0865
vn 0.2790 0.9565 0.0846
vn 0.7788 -0.6198 0.0968
vn 0.4528 0.8810 0.1373
vn 0.7805 -0.6117 0.1291
vn 0.5917 0.8006 0.0947
vn 0.0869 -0.9951 0.0464
vn 0.6037 -0.0744 0.7938
vn 0.2571 0.9565 0.1374
vn 0.6216 -0.4683 0.6280
vn 0.4216 0.8903 0.1722
vn 0.6444 -0.6296 0.4340
vn 0.5195 0.8225 0.2314
vn 0.6736 -0.6392 0.3711
vn 0.6041 0.7114 0.3592
vn 0.5611 -0.7715 0.2999
vn 0.6066 0.5549 0.5693
vn 0.4173 -0.8810 0.2230
vn 0.5746 0.3033 0.7601
vn 0.2571 -0.9565 0.1374
vn 0.5646 0.1119 0.8178
vn 0.0869 0.9951 0.0464
vn 0.4918 -0.7715 0.4036
vn 0.5549 0.4533 0.6976
vn 0.3658 -0.8810 0.3002
vn 0.6509 0.2633 0.7121
vn 0.2254 -0.9565 0.1850
vn 0.6868 0.1094 0.7186
vn 0.0761 0.9951 0.0625
vn 0.0761 -0.9951 0.0625
vn 0.6524 -0.0579 0.7557
vn 0.2254 0.9565 0.1850
vn 0.6040 -0.3218 0.7291
vn 0.3337 0.9006 0.2785
vn 0.6037 -0.5274 0.5978
vn 0.4405 0.8008 0.4057
vn 0.5979 -0.6330 0.4917
vn 0.5023 0.6259 0.5966
vn 0.1850 0.9566 0.2253
vn 0.6073 -0.2890 0.7400
vn 0.2671 0.8958 0.3552
vn 0.5601 -0.4696 0.6825
vn 0.3518 0.7763 0.5230
vn 0.4913 -0.6326 0.5987
vn 0.4790 0.5993 0.6414
vn 0.4036 -0.7715 0.4918
vn 0.5601 0.4696 0.6825
vn 0.3002 -0.8810 0.3658
vn 0.6073 0.2890 0.7400
vn 0.1850 -0.9565 0.2254
vn 0.6314 0.0975 0.7693
vn 0.0625 0.9951 0.0761
vn 0.0625 -0.9951 0.0761
vn 0.6314 -0.0975 0.7693
vn 0.4162 0.4696 0.7786
vn 0.2230 -0.8810 0.4173
vn 0.4513 0.2890 0.8443
vn 0.1374 -0.9565 0.2571
vn 0.4691 0.0975 0.8777
vn 0.0464 0.9951 0.0869
vn 0.0464 -0.9951 0.0869
vn 0.4691 -0.0975 0.8777
vn 0.1373 0.9566 0.2572
vn 0.4513 -0.2890 0.8443
vn 0.2015 0.8881 0.4131
vn 0.4162 -0.4696 0.7786
vn 0.2821 0.7658 0.5780
vn 0.3651 -0.6326 0.6831
vn 0.3594 0.6273 0.6909
vn 0.2999 -0.7715 0.5611
vn 0.2779 -0.2890 0.9161
vn 0.1286 0.8827 0.4519
vn 0.2563 -0.4696 0.8448
vn 0.1798 0.7691 0.6133
vn 0.2248 -0.6326 0.7412
vn 0.2248 0.6326 0.7412
vn 0.1847 -0.7715 0.6088
vn 0.2563 0.4696 0.8448
vn 0.1374 -0.8810 0.4528
vn 0.2779 0.2890 0.9161
vn 0.0846 -0.9565 0.2790
vn 0.2889 0.0975 0.9524
vn 0.0286 0.9951 0.0942
vn 0.0286 -0.9951 0.0942
vn 0.2889 -0.0975 0.9524
vn 0.0846 0.9565 0.2790
vn 0.0464 -0.8810 0.4709
vn 0.0938 0.2890 0.9527
vn 0.0286 -0.9565 0.2902
vn 0.0975 0.0975 0.9904
vn 0.0097 0.9951 0.0980
vn 0.0097 -0.9951 0.0980
vn 0.0975 -0.0975 0.9904
vn 0.0286 0.9565 0.2902
vn 0.0938 -0.2890 0.9527
vn 0.0464 0.8810 0.4709
vn 0.0865 -0.4696 0.8786
vn 0.0624 0.7715 0.6332
vn 0.0759 -0.6326 0.7708
vn 0.0759 0.6326 0.7708
vn 0.0624 -0.7715 0.6332
vn 0.0865 0.4696 0.8786
vn -0.0464 0.8810 0.4709
vn -0.0865 -0.4696 0.8786
vn -0.0624 0.7715 0.6332
vn -0.0759 -0.6326 0.7708
vn -0.0759 0.6326 0.7708
vn -0.0624 -0.7715 0.6332
vn -0.0865 0.4696 0.8786
vn -0.0464 -0.8810 0.4709
vn -0.0938 0.2890 0.9527
vn -0.0286 -0.9565 0.2902
vn -0.0976 0.0975 0.9904
vn -0.0097 0.9951 0.0980
vn -0.0097 -0.9951 0.0980
vn -0.0976 -0.0975 0.9904
vn -0.0286 0.9565 0.2902
vn -0.0938 -0.2890 0.9527
vn -0.2779 0.2890 0.9161
vn -0.0846 -0.9565 0.2790
vn -0.2889 0.0975 0.9524
vn -0.0286 0.9951 0.0942
vn -0.0286 -0.9951 0.0942
vn -0.2889 -0.0975 0.9524
vn -0.0846 0.9565 0.2790
vn -0.2779 -0.2890 0.9161
vn -0.1374 0.8810 0.4528
vn -0.2563 -0.4696 0.8448
vn -0.1847 0.7715 0.6088
vn -0.2248 -0.6326 0.7412
vn -0.2248 0.6326 0.7412
vn -0.1847 -0.7715 0.6088
vn -0.2563 0.4696 0.8448
vn -0.1374 -0.8810 0.4528
vn -0.4162 -0.4696 0.7786
vn -0.2999 0.7715 0.5611
vn -0.3651 -0.6326 0.6831
vn -0.3651 0.6326 0.6831
vn -0.2999 -0.7715 0.5611
vn -0.4162 0.4696 0.7786
vn -0.2230 -0.8810 0.4173
vn -0.4513 0.2890 0.8443
vn -0.1374 -0.9565 0.2571
vn -0.4691 0.0975 0.8777
vn -0.0464 0.9951 0.0869
vn -0.0464 -0.9951 0.0869
vn -0.4691 -0.0975 0.8777
vn -0.1374 0.9565 0.2571
vn -0.4513 -0.2890 0.8443
vn -0.2230 0.8810 0.4173
vn -0.1850 -0.9565 0.2254
vn -0.6314 0.0975 0.7693
vn -0.0625 0.9951 0.0761
vn -0.0625 -0.9951 0.0761
vn -0.6314 -0.0975 0.7693
vn -0.1850 0.9565 0.2254
vn -0.6073 -0.2890 0.7400
vn -0.3002 0.8810 0.3658
vn -0.5601 -0.4696 0.6825
vn -0.4036 0.7715 0.4918
vn -0.4913 -0.6326 0.5987
vn -0.4913 0.6326 0.5987
vn -0.4036 -0.7715 0.4918
vn -0.5601 0.4696 0.6825
vn -0.3002 -0.8810 0.3658
vn -0.6073 0.2890 0.7400
vn -0.5987 -0.6326 0.4913
vn -0.5981 0.6311 0.4940
vn -0.4918 -0.7715 0.4036
vn -0.6825 0.4696 0.5601
vn -0.3658 -0.8810 0.3002
vn -0.7400 0.2890 0.6073
vn -0.2254 -0.9565 0.1850
vn -0.7639 0.1050 0.6367
vn -0.0761 0.9951 0.0625
vn -0.0761 -0.9951 0.0625
vn -0.7567 -0.0930 0.6471
vn -0.2254 0.9565 0.1850
vn -0.7290 -0.3007 0.6150
vn -0.3658 0.8810 0.3002
vn -0.6825 -0.4696 0.5601
vn -0.4887 0.7727 0.4050
vn -0.0869 0.9951 0.0464
vn -0.0869 -0.9951 0.0464
vn -0.8367 -0.1162 0.5353
vn -0.2571 0.9565 0.1374
vn -0.8188 -0.3355 0.4659
vn -0.4173 0.8810 0.2231
vn -0.7786 -0.4696 0.4162
vn -0.4777 0.8045 0.3529
vn -0.6831 -0.6326 0.3651
vn -0.5001 0.6729 0.5451
vn -0.5611 -0.7715 0.2999
vn -0.6363 0.4278 0.6420
vn -0.4173 -0.8810 0.2230
vn -0.7694 0.2350 0.5939
vn -0.2571 -0.9565 0.1374
vn -0.8226 0.1121 0.5575
vn -0.5922 0.7667 0.2479
vn -0.6088 -0.7715 0.1847
vn -0.7516 0.4950 0.4360
vn -0.4528 -0.8810 0.1374
vn -0.7180 0.2790 0.6377
vn -0.2790 -0.9565 0.0846
vn -0.7538 0.0094 0.6570
vn -0.0942 0.9951 0.0286
vn -0.0942 -0.9951 0.0286
vn -0.8561 -0.3050 0.4171
vn -0.2790 0.9565 0.0846
vn -0.8980 -0.3514 0.2647
vn -0.4528 0.8810 0.1374
vn -0.8448 -0.4696 0.2563
vn -0.4994 0.8476 0.1792
vn -0.7412 -0.6326 0.2248
vn -0.9048 -0.4254 0.0182
vn -0.2902 0.9565 0.0286
vn -0.9465 -0.3167 0.0624
vn -0.4709 0.8810 0.0464
vn -0.8786 -0.4696 0.0865
vn -0.5780 0.8146 -0.0486
vn -0.7708 -0.6326 0.0759
vn -0.6715 0.7234 -0.1607
vn -0.6332 -0.7715 0.0624
vn -0.7585 0.6483 -0.0659
vn -0.4709 -0.8810 0.0464
vn -0.9101 0.4103 0.0573
vn -0.2902 -0.9565 0.0286
vn -0.9944 -0.1038 0.0178
vn -0.0980 0.9951 0.0097
vn -0.0980 -0.9951 0.0097
vn -0.6332 -0.7715 -0.0624
vn -0.7339 0.6789 -0.0201
vn -0.4709 -0.8810 -0.0464
vn -0.9299 0.3052 -0.2055
vn -0.2902 -0.9565 -0.0286
vn -0.9278 -0.1554 -0.3392
vn -0.0980 0.9951 -0.0097
vn -0.0980 -0.9951 -0.0097
vn -0.9339 -0.2527 -0.2527
vn -0.2902 0.9565 -0.0286
vn -0.9527 -0.2890 -0.0938
vn -0.4709 0.8810 -0.0464
vn -0.8786 -0.4696 -0.0865
vn -0.6276 0.7753 -0.0707
vn -0.7708 -0.6326 -0.0759
vn -0.6588 0.7523 -0.0028
vn -0.2790 0.9565 -0.0846
vn -0.9216 -0.3521 -0.1633
vn -0.4528 0.8810 -0.1374
vn -0.8423 -0.4861 -0.2331
vn -0.5978 0.7917 -0.1259
vn -0.7412 -0.6326 -0.2248
vn -0.5830 0.8124 -0.0139
vn -0.6088 -0.7715 -0.1847
vn -0.7894 0.6122 -0.0451
vn -0.4528 -0.8810 -0.1374
vn -0.9648 0.1702 -0.2005
vn -0.2790 -0.9565 -0.0846
vn -0.9862 -0.1028 -0.1299
vn -0.0942 0.9951 -0.0286
vn -0.0942 -0.9951 -0.0286
vn -0.9860 -0.1571 -0.0555
vn -0.6413 0.5668 -0.5171
vn -0.4173 -0.8810 -0.2231
vn -0.8104 0.2112 -0.5465
vn -0.2571 -0.9565 -0.1374
vn -0.8770 0.0291 -0.4796
vn -0.0869 0.9951 -0.0464
vn -0.0869 -0.9951 -0.0464
vn -0.8538 -0.2349 -0.4645
vn -0.2571 0.9565 -0.1374
vn -0.7996 -0.4185 -0.4308
vn -0.4173 0.8810 -0.2231
vn -0.7622 -0.5037 -0.4066
vn -0.5136 0.8069 -0.2917
vn -0.6831 -0.6326 -0.3651
vn -0.4566 0.8324 -0.3140
vn -0.5611 -0.7715 -0.2999
vn -0.6494 -0.3496 -0.6753
vn -0.3658 0.8810 -0.3002
vn -0.6610 -0.4867 -0.5712
vn -0.4536 0.7858 -0.4205
vn -0.5987 -0.6326 -0.4913
vn -0.3742 0.7104 -0.5961
vn -0.4918 -0.7715 -0.4036
vn -0.3986 0.4692 -0.7880
vn -0.3658 -0.8810 -0.3002
vn -0.4605 0.2702 -0.8455
vn -0.2254 -0.9565 -0.1850
vn -0.5259 0.0611 -0.8483
vn -0.0761 0.9951 -0.0625
vn -0.0761 -0.9951 -0.0625
vn -0.5929 -0.1607 -0.7891
vn -0.2254 0.9565 -0.1850
vn -0.3002 -0.8810 -0.3658
vn -0.6073 0.2890 -0.7400
vn -0.1850 -0.9565 -0.2254
vn -0.6314 0.0975 -0.7693
vn -0.0625 0.9951 -0.0761
vn -0.0625 -0.9951 -0.0761
vn -0.6314 -0.0975 -0.7693
vn -0.1850 0.9565 -0.2254
vn -0.6073 -0.2890 -0.7400
vn -0.3002 0.8810 -0.3658
vn -0.5601 -0.4696 -0.6825
vn -0.4036 0.7715 -0.4917
vn -0.4913 -0.6326 -0.5987
vn -0.4914 0.6325 -0.5987
vn -0.4036 -0.7715 -0.4918
vn -0.5601 0.4696 -0.6825
vn -0.4162 -0.4696 -0.7786
vn -0.3219 0.7847 -0.5297
vn -0.3651 -0.6326 -0.6831
vn -0.4652 0.6763 -0.5712
vn -0.2999 -0.7715 -0.5611
vn -0.5754 0.4592 -0.6767
vn -0.2230 -0.8810 -0.4173
vn -0.5760 0.2610 -0.7747
vn -0.1374 -0.9565 -0.2571
vn -0.5884 0.1290 -0.7982
vn -0.0464 0.9951 -0.0869
vn -0.0464 -0.9951 -0.0869
vn -0.5604 -0.1588 -0.8129
vn -0.1374 0.9565 -0.2571
vn -0.4698 -0.3117 -0.8259
vn -0.2230 0.8810 -0.4173
vn -0.0846 -0.9565 -0.2790
vn -0.5377 0.1339 -0.8325
vn -0.0286 0.9951 -0.0942
vn -0.0286 -0.9951 -0.0942
vn -0.5161 -0.2139 -0.8294
vn -0.0846 0.9565 -0.2790
vn -0.3841 -0.4478 -0.8074
vn -0.1374 0.8810 -0.4528
vn -0.2563 -0.4696 -0.8448
vn -0.1797 0.8010 -0.5710
vn -0.2248 -0.6326 -0.7412
vn -0.2315 0.7507 -0.6188
vn -0.1847 -0.7715 -0.6088
vn -0.3883 0.5218 -0.7595
vn -0.1374 -0.8810 -0.4528
vn -0.5179 0.2758 -0.8097
vn -0.0201 0.7869 -0.6167
vn -0.0759 -0.6326 -0.7708
vn 0.1053 0.7006 -0.7058
vn -0.0624 -0.7715 -0.6332
vn 0.2211 0.5184 -0.8260
vn -0.0464 -0.8810 -0.4709
vn 0.2663 0.2746 -0.9240
vn -0.0286 -0.9565 -0.2902
vn 0.1981 0.1805 -0.9634
vn -0.0097 0.9951 -0.0980
vn -0.0097 -0.9951 -0.0980
vn 0.0211 -0.1319 -0.9910
vn -0.0286 0.9565 -0.2902
vn -0.0689 -0.5466 -0.8346
vn -0.0464 0.8810 -0.4709
vn -0.0865 -0.4696 -0.8786
vt 0.522556 0.810253
vt 0.524142 0.787770
vt 0.540663 0.787742
vt 0.537424 0.810229
vt 0.669918 0.603886
vt 0.659900 0.583602
vt 0.669843 0.578564
vt 0.682573 0.597474
vt 0.518580 0.831526
vt 0.531225 0.831505
vt 0.681419 0.622554
vt 0.696376 0.616491
vt 0.725444 0.357358
vt 0.709904 0.343532
vt 0.717088 0.331744
vt 0.731088 0.348096
vt 0.694188 0.638979
vt 0.711797 0.633330
vt 0.743544 0.369947
vt 0.747432 0.363568
vt 0.514589 0.721435
vt 0.507105 0.702186
vt 0.527777 0.698507
vt 0.536669 0.718757
vt 0.763509 0.380816
vt 0.765491 0.377563
vt 0.522603 0.742338
vt 0.542904 0.741227
vt 0.980093 0.533732
vt 0.966984 0.515086
vt 0.983037 0.531326
vt 0.784571 0.389545
vt 0.526215 0.764534
vt 0.543676 0.764653
vt 0.651949 0.562192
vt 0.646372 0.540478
vt 0.649863 0.538709
vt 0.658799 0.558722
vt 0.558469 0.765721
vt 0.554434 0.788998
vt 0.665261 0.553839
vt 0.679225 0.571475
vt 0.705969 0.315138
vt 0.698159 0.298917
vt 0.711042 0.285470
vt 0.717566 0.303036
vt 0.694460 0.588725
vt 0.726950 0.321452
vt 0.710588 0.606949
vt 0.738837 0.340010
vt 0.727618 0.622737
vt 0.752769 0.357998
vt 0.727318 0.646088
vt 0.744543 0.634988
vt 0.768211 0.374724
vt 0.553144 0.718886
vt 0.558554 0.741832
vt 0.985337 0.528331
vt 0.653158 0.536220
vt 0.748391 0.333411
vt 0.759350 0.353452
vt 0.740828 0.603462
vt 0.757270 0.613514
vt 0.771567 0.372406
vt 0.759524 0.643120
vt 0.772110 0.621635
vt 0.986903 0.524863
vt 0.704609 0.267663
vt 0.701881 0.251301
vt 0.724671 0.243653
vt 0.724503 0.257780
vt 0.656128 0.533106
vt 0.671088 0.547730
vt 0.726933 0.274496
vt 0.687685 0.562607
vt 0.731865 0.293159
vt 0.705275 0.577185
vt 0.739111 0.313052
vt 0.723100 0.591941
vt 0.676056 0.540632
vt 0.694897 0.552302
vt 0.745214 0.266415
vt 0.748317 0.285887
vt 0.714461 0.564048
vt 0.753102 0.306867
vt 0.733995 0.575419
vt 0.759385 0.328551
vt 0.752749 0.585979
vt 0.766923 0.350105
vt 0.770002 0.595320
vt 0.775427 0.370700
vt 0.785092 0.603085
vt 0.987676 0.521056
vt 0.784705 0.627168
vt 0.797437 0.608975
vt 0.658661 0.529487
vt 0.743911 0.249201
vt 0.762208 0.567109
vt 0.780044 0.575288
vt 0.775195 0.348085
vt 0.779644 0.369670
vt 0.795706 0.582849
vt 0.987626 0.517056
vt 0.812337 0.590357
vt 0.660658 0.525502
vt 0.679974 0.532816
vt 0.764065 0.239658
vt 0.765102 0.261081
vt 0.700585 0.540954
vt 0.766291 0.281498
vt 0.721700 0.549605
vt 0.768388 0.303135
vt 0.742508 0.558437
vt 0.771394 0.325619
vt 0.785837 0.256854
vt 0.785096 0.280162
vt 0.704530 0.529001
vt 0.726721 0.534392
vt 0.784380 0.301999
vt 0.748412 0.540548
vt 0.783959 0.324726
vt 0.768768 0.547232
vt 0.783850 0.347470
vt 0.787008 0.554187
vt 0.784056 0.369357
vt 0.804274 0.561533
vt 0.986755 0.513016
vt 0.825144 0.569460
vt 0.662044 0.521305
vt 0.682691 0.524582
vt 0.786511 0.233094
vt 0.792554 0.348284
vt 0.788494 0.369771
vt 0.790628 0.532827
vt 0.808883 0.539062
vt 0.985095 0.509092
vt 0.829435 0.546100
vt 0.662764 0.517056
vt 0.684104 0.516248
vt 0.810951 0.235186
vt 0.807581 0.259246
vt 0.706581 0.516902
vt 0.804008 0.281930
vt 0.729331 0.518992
vt 0.800463 0.303502
vt 0.751481 0.522440
vt 0.796596 0.325907
vt 0.772178 0.527111
vt 0.706658 0.505121
vt 0.729430 0.503998
vt 0.822301 0.286733
vt 0.816020 0.307588
vt 0.751597 0.504809
vt 0.808819 0.329117
vt 0.772307 0.507520
vt 0.800973 0.350495
vt 0.790765 0.512029
vt 0.792786 0.370898
vt 0.808467 0.517715
vt 0.982712 0.505434
vt 0.828317 0.524086
vt 0.662791 0.512919
vt 0.684157 0.508133
vt 0.833783 0.242798
vt 0.827966 0.265650
vt 0.793670 0.487582
vt 0.810483 0.493961
vt 0.979696 0.502184
vt 0.796768 0.372695
vt 0.826152 0.502179
vt 0.662124 0.509053
vt 0.682849 0.500550
vt 0.856681 0.252784
vt 0.847121 0.274795
vt 0.704759 0.494112
vt 0.839272 0.294389
vt 0.727013 0.489986
vt 0.830453 0.314098
vt 0.748920 0.487933
vt 0.820158 0.334232
vt 0.772207 0.485200
vt 0.808784 0.354018
vt 0.854469 0.304520
vt 0.843207 0.322783
vt 0.722272 0.475726
vt 0.744423 0.469681
vt 0.830179 0.341056
vt 0.767711 0.465065
vt 0.815687 0.358718
vt 0.790516 0.465698
vt 0.800287 0.375091
vt 0.808762 0.471370
vt 0.976164 0.499465
vt 0.858761 0.238400
vt 0.882161 0.246790
vt 0.878239 0.264384
vt 0.660789 0.505607
vt 0.680230 0.493789
vt 0.866723 0.285451
vt 0.700956 0.484295
vt 0.803207 0.377995
vt 0.827319 0.834474
vt 0.816532 0.811302
vt 0.844361 0.802974
vt 0.851421 0.825486
vt 0.658836 0.502712
vt 0.676400 0.488111
vt 0.842489 0.849355
vt 0.861411 0.843775
vt 0.695257 0.475251
vt 0.878858 0.300220
vt 0.866734 0.316974
vt 0.715078 0.465082
vt 0.853792 0.333309
vt 0.815375 0.737054
vt 0.820385 0.716601
vt 0.833927 0.713686
vt 0.832264 0.733923
vt 0.838496 0.349326
vt 0.810732 0.759417
vt 0.834199 0.756709
vt 0.821415 0.364415
vt 0.810400 0.785293
vt 0.838692 0.779790
vt 0.972251 0.497383
vt 0.861801 0.345271
vt 0.844788 0.358725
vt 0.852072 0.731258
vt 0.855744 0.752656
vt 0.825750 0.370889
vt 0.860748 0.774759
vt 0.805417 0.381295
vt 0.866891 0.796719
vt 0.968108 0.496018
vt 0.873937 0.817690
vt 0.656342 0.500480
vt 0.671507 0.483734
vt 0.881616 0.836868
vt 0.688123 0.468959
vt 0.872315 0.857757
vt 0.889632 0.853515
vt 0.837272 0.696013
vt 0.848900 0.693210
vt 0.849200 0.710447
vt 0.876134 0.331044
vt 0.653402 0.498998
vt 0.665739 0.480824
vt 0.895242 0.811739
vt 0.901685 0.831262
vt 0.679789 0.465065
vt 0.907694 0.848469
vt 0.861132 0.690074
vt 0.865134 0.706881
vt 0.882161 0.346259
vt 0.866927 0.358210
vt 0.870134 0.726213
vt 0.848816 0.368891
vt 0.875813 0.747050
vt 0.828524 0.377891
vt 0.882053 0.768808
vt 0.806831 0.384865
vt 0.888614 0.790651
vt 0.963893 0.495421
vt 0.888253 0.720541
vt 0.895946 0.740747
vt 0.850422 0.379434
vt 0.829631 0.385153
vt 0.903426 0.762117
vt 0.807395 0.388567
vt 0.910405 0.783829
vt 0.959769 0.495616
vt 0.916615 0.805048
vt 0.959465 0.478392
vt 0.951375 0.478777
vt 0.921818 0.824959
vt 0.858483 0.676874
vt 0.866823 0.674264
vt 0.873362 0.686525
vt 0.925813 0.842797
vt 0.880642 0.702273
vt 0.913038 0.862700
vt 0.928447 0.857876
vt 0.868972 0.371628
vt 0.937233 0.797873
vt 0.941240 0.818201
vt 0.942163 0.465065
vt 0.943775 0.480698
vt 0.931090 0.468004
vt 0.943292 0.836715
vt 0.885085 0.682584
vt 0.895507 0.697101
vt 0.943312 0.852704
vt 0.905732 0.714458
vt 0.867858 0.385011
vt 0.849547 0.389948
vt 0.915368 0.733989
vt 0.829028 0.392396
vt 0.924044 0.754943
vt 0.807088 0.392259
vt 0.931427 0.776514
vt 0.955895 0.496596
vt 0.846223 0.400030
vt 0.826738 0.399340
vt 0.933333 0.727036
vt 0.943116 0.747561
vt 0.805921 0.395800
vt 0.950873 0.768988
vt 0.952418 0.498322
vt 0.956305 0.790492
vt 0.936956 0.484085
vt 0.959205 0.811247
vt 0.921190 0.472921
vt 0.959460 0.830457
vt 0.895889 0.678403
vt 0.909257 0.691779
vt 0.957062 0.847382
vt 0.921901 0.708201
vt 0.863627 0.397843
vt 0.931180 0.488806
vt 0.912805 0.479775
vt 0.008735 0.838711
vt 0.000000 0.817882
vt 0.014491 0.815377
vt 0.021776 0.836457
vt 0.905401 0.674264
vt 0.921364 0.686512
vt 0.020387 0.857399
vt 0.031479 0.855482
vt 0.936137 0.702007
vt 0.034511 0.873228
vt 0.043225 0.871722
vt 0.949152 0.720154
vt 0.840579 0.409292
vt 0.822850 0.405720
vt 0.959909 0.740256
vt 0.803939 0.399052
vt 0.967994 0.761539
vt 0.949474 0.500729
vt 0.973098 0.783186
vt 0.975023 0.804366
vt 0.009412 0.748118
vt 0.013528 0.727233
vt 0.030735 0.725178
vt 0.027679 0.745935
vt 0.817513 0.411290
vt 0.801218 0.401892
vt 0.008188 0.770342
vt 0.026812 0.768117
vt 0.947174 0.503724
vt 0.009903 0.793053
vt 0.028169 0.790870
vt 0.926669 0.494680
vt 0.031698 0.813321
vt 0.906256 0.488303
vt 0.037262 0.834606
vt 0.895055 0.473983
vt 0.886720 0.484837
vt 0.044648 0.853908
vt 0.931362 0.681503
vt 0.947893 0.696117
vt 0.053572 0.870485
vt 0.962215 0.713609
vt 0.832830 0.417378
vt 0.050959 0.811793
vt 0.054596 0.833232
vt 0.901795 0.498177
vt 0.881042 0.497405
vt 0.059390 0.852739
vt 0.868812 0.484416
vt 0.862135 0.499194
vt 0.065154 0.869567
vt 0.035864 0.706642
vt 0.053198 0.705267
vt 0.049996 0.723650
vt 0.063691 0.883700
vt 0.071669 0.883067
vt 0.048126 0.744313
vt 0.810932 0.415836
vt 0.797863 0.404209
vt 0.047660 0.766463
vt 0.945607 0.507191
vt 0.048617 0.789248
vt 0.923596 0.501482
vt 0.803360 0.419183
vt 0.794002 0.405916
vt 0.069968 0.743315
vt 0.069930 0.765445
vt 0.944835 0.510998
vt 0.070459 0.788250
vt 0.922080 0.508949
vt 0.071534 0.810853
vt 0.899594 0.509019
vt 0.073113 0.832385
vt 0.878241 0.511203
vt 0.075137 0.852019
vt 0.858841 0.515420
vt 0.077527 0.869001
vt 0.071715 0.704420
vt 0.070571 0.722709
vt 0.080191 0.882677
vt 0.092101 0.832099
vt 0.091285 0.851776
vt 0.878390 0.525687
vt 0.859055 0.532469
vt 0.090214 0.868810
vt 0.090703 0.704134
vt 0.091669 0.722391
vt 0.088931 0.882546
vt 0.092366 0.742977
vt 0.795087 0.421203
vt 0.789785 0.406945
vt 0.092854 0.765101
vt 0.944885 0.514998
vt 0.092997 0.787934
vt 0.922178 0.516796
vt 0.092632 0.810535
vt 0.899737 0.520411
vt 0.945756 0.519038
vt 0.785373 0.407259
vt 0.116204 0.765274
vt 0.115423 0.788203
vt 0.923888 0.524721
vt 0.113442 0.810853
vt 0.902219 0.531915
vt 0.110830 0.832385
vt 0.880444 0.540003
vt 0.107212 0.852019
vt 0.859654 0.549032
vt 0.102729 0.869001
vt 0.111252 0.699397
vt 0.113890 0.719495
vt 0.097551 0.882677
vt 0.115195 0.742532
vt 0.786432 0.421818
vt 0.886088 0.554150
vt 0.865677 0.565660
vt 0.122308 0.852739
vt 0.114589 0.869567
vt 0.129406 0.699282
vt 0.135365 0.716861
vt 0.105720 0.883067
vt 0.141344 0.739822
vt 0.777728 0.421004
vt 0.780936 0.406844
vt 0.140771 0.764434
vt 0.947416 0.522962
vt 0.136441 0.789175
vt 0.927143 0.532418
vt 0.133166 0.811793
vt 0.906944 0.543090
vt 0.128581 0.833232
vt 0.159887 0.766691
vt 0.154867 0.790870
vt 0.949799 0.526620
vt 0.931817 0.539593
vt 0.151044 0.813321
vt 0.913731 0.553506
vt 0.144671 0.834606
vt 0.896128 0.567783
vt 0.135992 0.853908
vt 0.878641 0.581754
vt 0.125340 0.870485
vt 0.846968 0.577772
vt 0.858740 0.597582
vt 0.113126 0.883700
vt 0.829435 0.592268
vt 0.843512 0.611069
vt 0.769309 0.418793
vt 0.776643 0.405717
vt 0.160738 0.741314
vt 0.425054 0.872882
vt 0.407452 0.859670
vt 0.417002 0.854640
vt 0.432558 0.868930
vt 0.890665 0.597126
vt 0.874643 0.613603
vt 0.444014 0.882476
vt 0.449183 0.879754
vt 0.863570 0.626684
vt 0.761498 0.415270
vt 0.772661 0.403921
vt 0.558554 0.722924
vt 0.560850 0.698159
vt 0.580965 0.698760
vt 0.580965 0.724500
vt 0.952815 0.529871
vt 0.562850 0.747835
vt 0.577784 0.746774
vt 0.937733 0.545969
vt 0.171158 0.793053
vt 0.166390 0.815377
vt 0.922319 0.562763
vt 0.158482 0.836457
vt 0.907163 0.579609
vt 0.147737 0.855482
vt 0.956347 0.532589
vt 0.944662 0.551302
vt 0.391424 0.817970
vt 0.382385 0.797000
vt 0.396950 0.790406
vt 0.406511 0.811660
vt 0.932378 0.570505
vt 0.403113 0.837433
vt 0.417028 0.831628
vt 0.919778 0.589829
vt 0.428836 0.849703
vt 0.905819 0.610612
vt 0.441856 0.865051
vt 0.893260 0.629753
vt 0.455587 0.877082
vt 0.884438 0.644311
vt 0.754595 0.410570
vt 0.769143 0.401525
vt 0.580965 0.724090
vt 0.580965 0.698159
vt 0.597974 0.700006
vt 0.601394 0.724161
vt 0.582043 0.746821
vt 0.599132 0.748108
vt 0.923442 0.618951
vt 0.913580 0.638532
vt 0.452590 0.861394
vt 0.462981 0.874563
vt 0.385385 0.743918
vt 0.380967 0.719471
vt 0.402500 0.715943
vt 0.404461 0.737545
vt 0.748867 0.404873
vt 0.766222 0.398620
vt 0.389579 0.767487
vt 0.408969 0.760917
vt 0.960260 0.534671
vt 0.416029 0.783953
vt 0.952337 0.555386
vt 0.424349 0.805582
vt 0.943521 0.576434
vt 0.433093 0.826154
vt 0.934026 0.597259
vt 0.442498 0.845048
vt 0.438507 0.777879
vt 0.444290 0.799959
vt 0.960465 0.558065
vt 0.955320 0.580323
vt 0.450691 0.821223
vt 0.949167 0.601957
vt 0.457464 0.840855
vt 0.942242 0.622134
vt 0.464349 0.858099
vt 0.403469 0.698159
vt 0.425472 0.698159
vt 0.426919 0.715191
vt 0.471080 0.872293
vt 0.429651 0.734664
vt 0.744532 0.398399
vt 0.764012 0.395320
vt 0.433564 0.755831
vt 0.964403 0.536037
vt 0.476680 0.855293
vt 0.479574 0.870360
vt 0.447425 0.710525
vt 0.451420 0.729711
vt 0.741758 0.391397
vt 0.762598 0.391750
vt 0.455759 0.750781
vt 0.968618 0.536633
vt 0.460276 0.772925
vt 0.968732 0.559235
vt 0.464796 0.795292
vt 0.967323 0.582022
vt 0.469146 0.817024
vt 0.964444 0.604120
vt 0.473158 0.837283
vt 0.960205 0.624677
vt 0.934811 0.640080
vt 0.954770 0.642905
vt 0.485465 0.791619
vt 0.487748 0.813717
vt 0.979066 0.581466
vt 0.979895 0.603715
vt 0.488978 0.834471
vt 0.980173 0.625575
vt 0.489109 0.853084
vt 0.976722 0.644311
vt 0.722852 0.388498
vt 0.721245 0.377955
vt 0.740652 0.384135
vt 0.469084 0.703891
vt 0.474109 0.724320
vt 0.762034 0.388048
vt 0.479252 0.745341
vt 0.972742 0.536438
vt 0.482540 0.768791
vt 0.976821 0.558852
vt 0.741255 0.376892
vt 0.762341 0.384356
vt 0.497402 0.717818
vt 0.502895 0.741102
vt 0.976616 0.535459
vt 0.506149 0.765361
vt 0.984422 0.556930
vt 0.505504 0.789079
vt 0.990100 0.578676
vt 0.505782 0.811431
vt 0.994036 0.600236
vt 0.504315 0.832527
vt 0.997557 0.622370
vt 0.501159 0.851556
vt 0.997800 0.642656
vt 0.722120 0.367440
vt 0.490333 0.698182
vt 0.656403 0.607982
vt 0.649778 0.586396
vt 0.664197 0.629971
vt 0.512367 0.850769
vt 0.674851 0.649231
vt 0.687975 0.663949
vt 0.708098 0.651068
vt 0.702689 0.674264
vt 0.723001 0.664621
vt 0.991241 0.553544
vt 1.000000 0.573760
s 0
usemtl Matériau
f 79/161/41 550/162/41 90/163/41 91/164/41
f 548/165/42 74/166/42 83/167/42 84/168/42
f 551/169/43 79/161/43 91/164/43 92/170/43
f 75/171/44 548/165/44 84/168/44 85/172/44
f 552/173/45 551/174/45 92/175/45 93/176/45
f 549/177/46 75/171/46 85/172/46 86/178/46
f 553/179/47 552/173/47 93/176/47 94/180/47
f 76/181/48 549/182/48 86/183/48 87/184/48
f 554/185/49 553/179/49 94/180/49 95/186/49
f 77/187/50 76/181/50 87/184/50 88/188/50
f 546/189/51 73/190/51 81/191/51
f 80/192/52 554/185/52 95/186/52
f 78/193/53 77/187/53 88/188/53 89/194/53
f 547/195/54 546/196/54 81/197/54 82/198/54
f 550/162/55 78/193/55 89/194/55 90/163/55
f 74/166/56 547/195/56 82/198/56 83/167/56
f 90/163/57 89/194/57 104/199/57 105/200/57
f 83/167/58 82/198/58 97/201/58 98/202/58
f 91/203/59 90/204/59 105/205/59 106/206/59
f 84/168/60 83/167/60 98/202/60 99/207/60
f 92/175/61 91/203/61 106/206/61 107/208/61
f 85/172/62 84/168/62 99/207/62 100/209/62
f 93/176/63 92/175/63 107/208/63 108/210/63
f 86/178/64 85/172/64 100/209/64 101/211/64
f 94/180/65 93/176/65 108/210/65 109/212/65
f 87/213/66 86/178/66 101/211/66 102/214/66
f 95/186/67 94/180/67 109/212/67 110/215/67
f 88/188/68 87/184/68 102/216/68 103/217/68
f 81/191/69 73/190/69 96/218/69
f 80/192/70 95/186/70 110/215/70
f 89/194/71 88/188/71 103/217/71 104/199/71
f 82/198/72 81/197/72 96/219/72 97/201/72
f 109/212/73 108/210/73 123/220/73 124/221/73
f 102/214/74 101/211/74 116/222/74 117/223/74
f 110/215/75 109/212/75 124/221/75 125/224/75
f 103/225/76 102/214/76 117/223/76 118/226/76
f 96/218/77 73/190/77 111/227/77
f 80/192/78 110/215/78 125/224/78
f 104/228/79 103/229/79 118/230/79 119/231/79
f 97/201/80 96/219/80 111/232/80 112/233/80
f 105/205/81 104/228/81 119/231/81 120/234/81
f 98/202/82 97/201/82 112/233/82 113/235/82
f 106/206/83 105/205/83 120/234/83 121/236/83
f 99/207/84 98/202/84 113/235/84 114/237/84
f 107/208/85 106/206/85 121/236/85 122/238/85
f 100/209/86 99/207/86 114/237/86 115/239/86
f 108/210/87 107/208/87 122/238/87 123/220/87
f 101/211/88 100/209/88 115/239/88 116/222/88
f 113/235/89 112/233/89 127/240/89 128/241/89
f 121/236/90 120/234/90 135/242/90 136/243/90
f 114/237/91 113/235/91 128/241/91 129/244/91
f 122/238/92 121/236/92 136/243/92 137/245/92
f 115/239/93 114/237/93 129/244/93 130/246/93
f 123/220/94 122/238/94 137/245/94 138/247/94
f 116/222/95 115/239/95 130/246/95 131/248/95
f 124/221/96 123/220/96 138/247/96 139/249/96
f 117/223/97 116/222/97 131/248/97 132/250/97
f 125/224/98 124/221/98 139/249/98 140/251/98
f 118/226/99 117/223/99 132/250/99 133/252/99
f 111/227/100 73/190/100 126/253/100
f 80/192/101 125/224/101 140/251/101
f 119/254/102 118/226/102 133/252/102 134/255/102
f 112/233/103 111/232/103 126/256/103 127/240/103
f 120/234/104 119/231/104 134/257/104 135/242/104
f 132/250/105 131/248/105 146/258/105 147/259/105
f 140/251/106 139/249/106 154/260/106 155/261/106
f 133/252/107 132/250/107 147/259/107 148/262/107
f 126/253/108 73/190/108 141/263/108
f 80/192/109 140/251/109 155/261/109
f 134/255/110 133/252/110 148/262/110 149/264/110
f 127/240/111 126/256/111 141/265/111 142/266/111
f 135/242/112 134/257/112 149/267/112 150/268/112
f 128/241/113 127/240/113 142/266/113 143/269/113
f 136/243/114 135/242/114 150/268/114 151/270/114
f 129/244/115 128/241/115 143/269/115 144/271/115
f 137/245/116 136/243/116 151/270/116 152/272/116
f 130/246/117 129/244/117 144/271/117 145/273/117
f 138/247/118 137/245/118 152/272/118 153/274/118
f 131/248/119 130/246/119 145/273/119 146/258/119
f 139/249/120 138/247/120 153/274/120 154/260/120
f 151/270/121 150/268/121 165/275/121 166/276/121
f 144/271/122 143/269/122 158/277/122 159/278/122
f 152/272/123 151/270/123 166/276/123 167/279/123
f 145/273/124 144/271/124 159/278/124 160/280/124
f 153/274/125 152/272/125 167/279/125 168/281/125
f 146/258/126 145/273/126 160/280/126 161/282/126
f 154/260/127 153/274/127 168/281/127 169/283/127
f 147/259/128 146/258/128 161/282/128 162/284/128
f 155/261/129 154/260/129 169/283/129 170/285/129
f 148/262/130 147/259/130 162/284/130 163/286/130
f 141/263/131 73/190/131 156/287/131
f 80/192/132 155/261/132 170/285/132
f 149/264/133 148/262/133 163/286/133 164/288/133
f 142/266/134 141/265/134 156/289/134 157/290/134
f 150/268/135 149/267/135 164/291/135 165/275/135
f 143/269/136 142/266/136 157/290/136 158/277/136
f 170/285/137 169/283/137 184/292/137 185/293/137
f 163/286/138 162/284/138 177/294/138 178/295/138
f 156/287/139 73/190/139 171/296/139
f 80/192/140 170/285/140 185/293/140
f 164/288/141 163/286/141 178/295/141 179/297/141
f 157/290/142 156/289/142 171/298/142 172/299/142
f 165/275/143 164/291/143 179/300/143 180/301/143
f 158/277/144 157/290/144 172/299/144 173/302/144
f 166/276/145 165/275/145 180/301/145 181/303/145
f 159/278/146 158/277/146 173/302/146 174/304/146
f 167/279/147 166/276/147 181/303/147 182/305/147
f 160/280/148 159/278/148 174/304/148 175/306/148
f 168/281/149 167/279/149 182/305/149 183/307/149
f 161/282/150 160/280/150 175/306/150 176/308/150
f 169/283/151 168/281/151 183/307/151 184/292/151
f 162/284/152 161/282/152 176/308/152 177/294/152
f 174/304/153 173/302/153 188/309/153 189/310/153
f 182/305/154 181/303/154 196/311/154 197/312/154
f 175/306/155 174/304/155 189/310/155 190/313/155
f 183/307/156 182/305/156 197/312/156 198/314/156
f 176/308/157 175/306/157 190/313/157 191/315/157
f 184/292/158 183/307/158 198/314/158 199/316/158
f 177/294/159 176/308/159 191/315/159 192/317/159
f 185/293/160 184/292/160 199/316/160 200/318/160
f 178/295/161 177/294/161 192/317/161 193/319/161
f 171/296/162 73/190/162 186/320/162
f 80/192/163 185/293/163 200/318/163
f 179/297/164 178/295/164 193/319/164 194/321/164
f 172/299/165 171/298/165 186/322/165 187/323/165
f 180/301/166 179/300/166 194/324/166 195/325/166
f 173/302/167 172/299/167 187/323/167 188/309/167
f 181/303/168 180/301/168 195/325/168 196/311/168
f 193/319/169 192/317/169 207/326/169 208/327/169
f 186/320/170 73/190/170 201/328/170
f 80/192/171 200/318/171 215/329/171
f 194/321/172 193/319/172 208/327/172 209/330/172
f 187/323/173 186/322/173 201/331/173 202/332/173
f 195/325/174 194/324/174 209/333/174 210/334/174
f 188/309/175 187/323/175 202/332/175 203/335/175
f 196/311/176 195/325/176 210/334/176 211/336/176
f 189/310/177 188/309/177 203/335/177 204/337/177
f 197/312/178 196/311/178 211/336/178 212/338/178
f 190/313/179 189/310/179 204/337/179 205/339/179
f 198/314/180 197/312/180 212/338/180 213/340/180
f 191/315/181 190/313/181 205/339/181 206/341/181
f 199/316/182 198/314/182 213/340/182 214/342/182
f 192/317/183 191/315/183 206/341/183 207/326/183
f 200/318/184 199/316/184 214/342/184 215/329/184
f 212/338/185 211/336/185 226/343/185 227/344/185
f 205/339/186 204/337/186 219/345/186 220/346/186
f 213/340/187 212/338/187 227/344/187 228/347/187
f 206/341/188 205/339/188 220/346/188 221/348/188
f 214/342/189 213/340/189 228/347/189 229/349/189
f 207/326/190 206/341/190 221/348/190 222/350/190
f 215/329/191 214/342/191 229/349/191 230/351/191
f 208/327/192 207/326/192 222/350/192 223/352/192
f 201/328/193 73/190/193 216/353/193
f 80/192/194 215/329/194 230/351/194
f 209/333/195 208/354/195 223/355/195 224/356/195
f 202/332/196 201/331/196 216/357/196 217/358/196
f 210/334/197 209/333/197 224/356/197 225/359/197
f 203/335/198 202/332/198 217/358/198 218/360/198
f 211/336/199 210/334/199 225/359/199 226/343/199
f 204/337/200 203/335/200 218/360/200 219/345/200
f 80/192/201 230/351/201 245/361/201
f 224/362/202 223/363/202 238/364/202 239/365/202
f 217/358/203 216/357/203 231/366/203 232/367/203
f 225/368/204 224/362/204 239/365/204 240/369/204
f 218/360/205 217/358/205 232/367/205 233/370/205
f 226/343/206 225/359/206 240/371/206 241/372/206
f 219/345/207 218/360/207 233/370/207 234/373/207
f 227/344/208 226/343/208 241/372/208 242/374/208
f 220/375/209 219/376/209 234/377/209 235/378/209
f 228/347/210 227/344/210 242/374/210 243/379/210
f 221/380/211 220/375/211 235/378/211 236/381/211
f 229/349/212 228/347/212 243/379/212 244/382/212
f 222/383/213 221/380/213 236/381/213 237/384/213
f 230/351/214 229/349/214 244/382/214 245/361/214
f 223/363/215 222/383/215 237/384/215 238/364/215
f 216/353/216 73/190/216 231/385/216
f 243/379/217 242/374/217 257/386/217 258/387/217
f 236/381/218 235/378/218 250/388/218 251/389/218
f 244/382/219 243/379/219 258/387/219 259/390/219
f 237/384/220 236/381/220 251/389/220 252/391/220
f 245/361/221 244/382/221 259/390/221 260/392/221
f 238/364/222 237/384/222 252/391/222 253/393/222
f 231/385/223 73/190/223 246/394/223
f 80/192/224 245/361/224 260/392/224
f 239/365/225 238/364/225 253/393/225 254/395/225
f 232/367/226 231/366/226 246/396/226 247/397/226
f 240/369/227 239/365/227 254/395/227 255/398/227
f 233/370/228 232/367/228 247/397/228 248/399/228
f 241/400/229 240/369/229 255/398/229 256/401/229
f 234/377/230 233/402/230 248/403/230 249/404/230
f 242/374/231 241/372/231 256/405/231 257/386/231
f 235/378/232 234/377/232 249/404/232 250/388/232
f 247/397/233 246/396/233 261/406/233 262/407/233
f 255/398/234 254/395/234 269/408/234 270/409/234
f 248/399/235 247/397/235 262/407/235 263/410/235
f 256/401/236 255/398/236 270/409/236 271/411/236
f 249/404/237 248/403/237 263/412/237 264/413/237
f 257/386/238 256/405/238 271/414/238 272/415/238
f 250/388/239 249/404/239 264/413/239 265/416/239
f 258/387/240 257/386/240 272/415/240 273/417/240
f 251/389/241 250/388/241 265/416/241 266/418/241
f 259/390/242 258/387/242 273/417/242 274/419/242
f 252/391/243 251/389/243 266/418/243 267/420/243
f 260/392/244 259/390/244 274/419/244 275/421/244
f 253/393/245 252/391/245 267/420/245 268/422/245
f 246/394/246 73/190/246 261/423/246
f 80/192/247 260/392/247 275/421/247
f 254/395/248 253/393/248 268/422/248 269/408/248
f 266/418/249 265/416/249 280/424/249 281/425/249
f 274/419/250 273/417/250 288/426/250 289/427/250
f 267/420/251 266/418/251 281/425/251 282/428/251
f 275/421/252 274/419/252 289/427/252 290/429/252
f 268/422/253 267/420/253 282/428/253 283/430/253
f 261/423/254 73/190/254 276/431/254
f 80/192/255 275/421/255 290/429/255
f 269/408/256 268/422/256 283/430/256 284/432/256
f 262/433/257 261/423/257 276/431/257 277/434/257
f 270/409/258 269/408/258 284/432/258 285/435/258
f 263/412/259 262/436/259 277/437/259 278/438/259
f 271/411/260 270/409/260 285/435/260 286/439/260
f 264/413/261 263/412/261 278/438/261 279/440/261
f 272/441/262 271/411/262 286/439/262 287/442/262
f 265/416/263 264/413/263 279/440/263 280/424/263
f 273/417/264 272/415/264 287/443/264 288/426/264
f 285/435/265 284/432/265 299/444/265 300/445/265
f 278/446/266 277/434/266 292/447/266 293/448/266
f 286/439/267 285/435/267 300/445/267 301/449/267
f 279/440/268 278/438/268 293/450/268 294/451/268
f 287/442/269 286/439/269 301/449/269 302/452/269
f 280/424/270 279/440/270 294/451/270 295/453/270
f 288/426/271 287/443/271 302/454/271 303/455/271
f 281/425/272 280/424/272 295/453/272 296/456/272
f 289/427/273 288/426/273 303/455/273 304/457/273
f 282/428/274 281/425/274 296/456/274 297/458/274
f 290/429/275 289/427/275 304/457/275 305/459/275
f 283/430/276 282/428/276 297/458/276 298/460/276
f 276/431/277 73/190/277 291/461/277
f 80/192/278 290/429/278 305/459/278
f 284/432/279 283/430/279 298/460/279 299/444/279
f 277/434/280 276/431/280 291/461/280 292/447/280
f 304/457/281 303/455/281 318/462/281 319/463/281
f 297/458/282 296/456/282 311/464/282 312/465/282
f 305/459/283 304/457/283 319/463/283 320/466/283
f 298/460/284 297/458/284 312/465/284 313/467/284
f 291/461/285 73/190/285 306/468/285
f 80/192/286 305/459/286 320/466/286
f 299/444/287 298/460/287 313/467/287 314/469/287
f 292/447/288 291/461/288 306/468/288 307/470/288
f 300/445/289 299/444/289 314/469/289 315/471/289
f 293/448/290 292/447/290 307/470/290 308/472/290
f 301/449/291 300/445/291 315/471/291 316/473/291
f 294/451/292 293/450/292 308/474/292 309/475/292
f 302/452/293 301/449/293 316/473/293 317/476/293
f 295/453/294 294/451/294 309/475/294 310/477/294
f 303/455/295 302/454/295 317/478/295 318/462/295
f 296/456/296 295/453/296 310/477/296 311/464/296
f 308/472/297 307/470/297 322/479/297 323/480/297
f 316/481/298 315/482/298 330/483/298 331/484/298
f 309/475/299 308/474/299 323/485/299 324/486/299
f 317/487/300 316/481/300 331/484/300 332/488/300
f 310/477/301 309/475/301 324/486/301 325/489/301
f 318/490/302 317/487/302 332/488/302 333/491/302
f 311/464/303 310/477/303 325/489/303 326/492/303
f 319/463/304 318/462/304 333/493/304 334/494/304
f 312/465/305 311/464/305 326/492/305 327/495/305
f 320/466/306 319/463/306 334/494/306 335/496/306
f 313/467/307 312/465/307 327/495/307 328/497/307
f 306/468/308 73/190/308 321/498/308
f 80/192/309 320/466/309 335/496/309
f 314/469/310 313/467/310 328/497/310 329/499/310
f 307/470/311 306/468/311 321/498/311 322/479/311
f 315/471/312 314/469/312 329/499/312 330/500/312
f 327/501/313 326/502/313 341/503/313 342/504/313
f 335/496/314 334/494/314 349/505/314 350/506/314
f 328/507/315 327/501/315 342/504/315 343/508/315
f 321/498/316 73/190/316 336/509/316
f 80/192/317 335/496/317 350/506/317
f 329/510/318 328/507/318 343/508/318 344/511/318
f 322/479/319 321/498/319 336/509/319 337/512/319
f 330/483/320 329/510/320 344/511/320 345/513/320
f 323/480/321 322/479/321 337/512/321 338/514/321
f 331/484/322 330/483/322 345/513/322 346/515/322
f 324/516/323 323/480/323 338/514/323 339/517/323
f 332/488/324 331/484/324 346/515/324 347/518/324
f 325/489/325 324/486/325 339/519/325 340/520/325
f 333/491/326 332/488/326 347/518/326 348/521/326
f 326/492/327 325/489/327 340/520/327 341/522/327
f 334/494/328 333/493/328 348/523/328 349/505/328
f 346/515/329 345/513/329 360/524/329 361/525/329
f 339/517/330 338/514/330 353/526/330 354/527/330
f 347/518/331 346/515/331 361/525/331 362/528/331
f 340/529/332 339/517/332 354/527/332 355/530/332
f 348/521/333 347/518/333 362/528/333 363/531/333
f 341/503/334 340/532/334 355/533/334 356/534/334
f 349/535/335 348/521/335 363/531/335 364/536/335
f 342/504/336 341/503/336 356/534/336 357/537/336
f 350/506/337 349/505/337 364/538/337 365/539/337
f 343/508/338 342/504/338 357/537/338 358/540/338
f 336/509/339 73/190/339 351/541/339
f 80/192/340 350/506/340 365/539/340
f 344/511/341 343/508/341 358/540/341 359/542/341
f 337/512/342 336/509/342 351/541/342 352/543/342
f 345/513/343 344/511/343 359/542/343 360/524/343
f 338/514/344 337/512/344 352/543/344 353/526/344
f 365/539/345 364/538/345 379/544/345 380/545/345
f 358/540/346 357/537/346 372/546/346 373/547/346
f 351/541/347 73/190/347 366/548/347
f 80/192/348 365/539/348 380/545/348
f 359/542/349 358/540/349 373/547/349 374/549/349
f 352/543/350 351/541/350 366/548/350 367/550/350
f 360/524/351 359/542/351 374/549/351 375/551/351
f 353/526/352 352/543/352 367/550/352 368/552/352
f 361/525/353 360/524/353 375/551/353 376/553/353
f 354/527/354 353/526/354 368/552/354 369/554/354
f 362/528/355 361/525/355 376/553/355 377/555/355
f 355/530/356 354/527/356 369/554/356 370/556/356
f 363/531/357 362/528/357 377/555/357 378/557/357
f 356/534/358 355/533/358 370/558/358 371/559/358
f 364/536/359 363/531/359 378/557/359 379/560/359
f 357/537/360 356/534/360 371/559/360 372/546/360
f 377/555/361 376/553/361 391/561/361 392/562/361
f 370/556/362 369/554/362 384/563/362 385/564/362
f 378/557/363 377/555/363 392/562/363 393/565/363
f 371/559/364 370/558/364 385/566/364 386/567/364
f 379/560/365 378/557/365 393/565/365 394/568/365
f 372/546/366 371/559/366 386/567/366 387/569/366
f 380/545/367 379/544/367 394/570/367 395/571/367
f 373/547/368 372/546/368 387/569/368 388/572/368
f 366/548/369 73/190/369 381/573/369
f 80/192/370 380/545/370 395/571/370
f 374/549/371 373/547/371 388/572/371 389/574/371
f 367/550/372 366/548/372 381/573/372 382/575/372
f 375/551/373 374/549/373 389/574/373 390/576/373
f 368/552/374 367/550/374 382/575/374 383/577/374
f 376/553/375 375/551/375 390/576/375 391/561/375
f 369/554/376 368/552/376 383/577/376 384/563/376
f 381/573/377 73/190/377 396/578/377
f 80/192/378 395/571/378 410/579/378
f 389/574/379 388/572/379 403/580/379 404/581/379
f 382/575/380 381/573/380 396/578/380 397/582/380
f 390/576/381 389/574/381 404/581/381 405/583/381
f 383/577/382 382/575/382 397/582/382 398/584/382
f 391/561/383 390/576/383 405/583/383 406/585/383
f 384/563/384 383/577/384 398/584/384 399/586/384
f 392/562/385 391/561/385 406/585/385 407/587/385
f 385/564/386 384/563/386 399/586/386 400/588/386
f 393/565/387 392/562/387 407/587/387 408/589/387
f 386/567/388 385/566/388 400/590/388 401/591/388
f 394/568/389 393/565/389 408/589/389 409/592/389
f 387/569/390 386/567/390 401/591/390 402/593/390
f 395/571/391 394/570/391 409/594/391 410/579/391
f 388/572/392 387/569/392 402/593/392 403/580/392
f 400/588/393 399/586/393 414/595/393 415/596/393
f 408/589/394 407/587/394 422/597/394 423/598/394
f 401/591/395 400/590/395 415/599/395 416/600/395
f 409/592/396 408/589/396 423/598/396 424/601/396
f 402/593/397 401/591/397 416/600/397 417/602/397
f 410/579/398 409/594/398 424/603/398 425/604/398
f 403/580/399 402/593/399 417/602/399 418/605/399
f 396/578/400 73/190/400 411/606/400
f 80/192/401 410/579/401 425/604/401
f 404/581/402 403/580/402 418/605/402 419/607/402
f 397/582/403 396/578/403 411/606/403 412/608/403
f 405/583/404 404/581/404 419/607/404 420/609/404
f 398/584/405 397/582/405 412/608/405 413/610/405
f 406/585/406 405/583/406 420/609/406 421/611/406
f 399/586/407 398/584/407 413/610/407 414/595/407
f 407/587/408 406/585/408 421/611/408 422/597/408
f 419/607/409 418/605/409 433/612/409 434/613/409
f 412/608/410 411/606/410 426/614/410 427/615/410
f 420/609/411 419/607/411 434/613/411 435/616/411
f 413/610/412 412/608/412 427/615/412 428/617/412
f 421/611/413 420/609/413 435/616/413 436/618/413
f 414/595/414 413/610/414 428/617/414 429/619/414
f 422/597/415 421/611/415 436/618/415 437/620/415
f 415/596/416 414/595/416 429/619/416 430/621/416
f 423/598/417 422/597/417 437/620/417 438/622/417
f 416/623/418 415/596/418 430/621/418 431/624/418
f 424/601/419 423/598/419 438/622/419 439/625/419
f 417/626/420 416/623/420 431/624/420 432/627/420
f 425/604/421 424/603/421 439/628/421 440/629/421
f 418/605/422 417/602/422 432/630/422 433/612/422
f 411/606/423 73/190/423 426/614/423
f 80/192/424 425/604/424 440/629/424
f 438/631/425 437/632/425 452/633/425 453/634/425
f 431/624/426 430/621/426 445/635/426 446/636/426
f 439/637/427 438/631/427 453/634/427 454/638/427
f 432/627/428 431/624/428 446/636/428 447/639/428
f 440/629/429 439/628/429 454/640/429 455/641/429
f 433/642/430 432/643/430 447/644/430 448/645/430
f 426/614/431 73/190/431 441/646/431
f 80/192/432 440/629/432 455/641/432
f 434/647/433 433/642/433 448/645/433 449/648/433
f 427/615/434 426/614/434 441/646/434 442/649/434
f 435/616/435 434/613/435 449/650/435 450/651/435
f 428/617/436 427/615/436 442/649/436 443/652/436
f 436/618/437 435/616/437 450/651/437 451/653/437
f 429/619/438 428/617/438 443/652/438 444/654/438
f 437/620/439 436/618/439 451/653/439 452/655/439
f 430/621/440 429/619/440 444/654/440 445/635/440
f 442/649/441 441/646/441 456/656/441 457/657/441
f 450/658/442 449/659/442 464/660/442 465/661/442
f 443/652/443 442/649/443 457/657/443 458/662/443
f 451/663/444 450/658/444 465/661/444 466/664/444
f 444/654/445 443/652/445 458/662/445 459/665/445
f 452/633/446 451/663/446 466/664/446 467/666/446
f 445/635/447 444/654/447 459/665/447 460/667/447
f 453/634/448 452/633/448 467/666/448 468/668/448
f 446/636/449 445/635/449 460/667/449 461/669/449
f 454/638/450 453/634/450 468/668/450 469/670/450
f 447/639/451 446/636/451 461/669/451 462/671/451
f 455/641/452 454/640/452 469/672/452 470/673/452
f 448/674/453 447/675/453 462/676/453 463/677/453
f 441/646/454 73/190/454 456/656/454
f 80/192/455 455/641/455 470/673/455
f 449/678/456 448/674/456 463/677/456 464/679/456
f 461/669/457 460/667/457 475/680/457 476/681/457
f 469/670/458 468/668/458 483/682/458 484/683/458
f 462/684/459 461/685/459 476/686/459 477/687/459
f 470/673/460 469/672/460 484/688/460 485/689/460
f 463/690/461 462/684/461 477/687/461 478/691/461
f 456/656/462 73/190/462 471/692/462
f 80/192/463 470/673/463 485/689/463
f 464/660/464 463/690/464 478/691/464 479/693/464
f 457/657/465 456/656/465 471/692/465 472/694/465
f 465/661/466 464/660/466 479/693/466 480/695/466
f 458/662/467 457/657/467 472/694/467 473/696/467
f 466/664/468 465/661/468 480/695/468 481/697/468
f 459/665/469 458/662/469 473/696/469 474/698/469
f 467/666/470 466/664/470 481/697/470 482/699/470
f 460/667/471 459/665/471 474/698/471 475/680/471
f 468/668/472 467/666/472 482/699/472 483/682/472
f 480/695/473 479/693/473 494/700/473 495/701/473
f 473/696/474 472/694/474 487/702/474 488/703/474
f 481/697/475 480/695/475 495/701/475 496/704/475
f 474/698/476 473/696/476 488/703/476 489/705/476
f 482/699/477 481/697/477 496/704/477 497/706/477
f 475/680/478 474/698/478 489/705/478 490/707/478
f 483/682/479 482/699/479 497/706/479 498/708/479
f 476/686/480 475/709/480 490/710/480 491/711/480
f 484/683/481 483/682/481 498/708/481 499/712/481
f 477/687/482 476/686/482 491/711/482 492/713/482
f 485/689/483 484/688/483 499/714/483 500/715/483
f 478/691/484 477/687/484 492/713/484 493/716/484
f 471/692/485 73/190/485 486/717/485
f 80/192/486 485/689/486 500/715/486
f 479/693/487 478/691/487 493/716/487 494/700/487
f 472/694/488 471/692/488 486/717/488 487/702/488
f 499/712/489 498/708/489 513/718/489 514/719/489
f 492/713/490 491/711/490 506/720/490 507/721/490
f 500/715/491 499/714/491 514/722/491 515/723/491
f 493/716/492 492/713/492 507/721/492 508/724/492
f 486/717/493 73/190/493 501/725/493
f 80/192/494 500/715/494 515/723/494
f 494/700/495 493/716/495 508/724/495 509/726/495
f 487/702/496 486/717/496 501/725/496 502/727/496
f 495/701/497 494/700/497 509/726/497 510/728/497
f 488/703/498 487/702/498 502/727/498 503/729/498
f 496/704/499 495/701/499 510/728/499 511/730/499
f 489/705/500 488/703/500 503/729/500 504/731/500
f 497/706/501 496/704/501 511/730/501 512/732/501
f 490/707/502 489/705/502 504/731/502 505/733/502
f 498/708/503 497/706/503 512/732/503 513/718/503
f 491/734/504 490/707/504 505/733/504 506/735/504
f 511/730/505 510/728/505 525/736/505 526/737/505
f 504/731/506 503/729/506 518/738/506 519/739/506
f 512/732/507 511/730/507 526/737/507 527/740/507
f 505/733/508 504/731/508 519/739/508 520/741/508
f 513/718/509 512/732/509 527/740/509 528/742/509
f 506/735/510 505/733/510 520/741/510 521/743/510
f 514/722/511 513/744/511 528/745/511 529/746/511
f 507/721/512 506/720/512 521/747/512 522/748/512
f 515/723/513 514/722/513 529/746/513 530/749/513
f 508/724/514 507/721/514 522/748/514 523/750/514
f 501/725/515 73/190/515 516/751/515
f 80/192/516 515/723/516 530/749/516
f 509/726/517 508/724/517 523/750/517 524/752/517
f 502/727/518 501/725/518 516/751/518 517/753/518
f 510/728/519 509/726/519 524/752/519 525/736/519
f 503/729/520 502/727/520 517/753/520 518/738/520
f 530/749/521 529/746/521 544/754/521 545/755/521
f 523/750/522 522/748/522 537/756/522 538/757/522
f 516/751/523 73/190/523 531/758/523
f 80/192/524 530/749/524 545/755/524
f 524/752/525 523/750/525 538/757/525 539/759/525
f 517/753/526 516/751/526 531/758/526 532/760/526
f 525/736/527 524/752/527 539/759/527 540/761/527
f 518/738/528 517/753/528 532/760/528 533/762/528
f 526/737/529 525/736/529 540/761/529 541/763/529
f 519/739/530 518/738/530 533/762/530 534/764/530
f 527/740/531 526/737/531 541/763/531 542/765/531
f 520/741/532 519/739/532 534/764/532 535/766/532
f 528/742/533 527/740/533 542/765/533 543/767/533
f 521/743/534 520/741/534 535/766/534 536/768/534
f 529/746/535 528/745/535 543/769/535 544/754/535
f 522/748/536 521/747/536 536/770/536 537/756/536
f 534/771/537 533/772/537 74/166/537 548/165/537
f 542/765/538 541/763/538 79/161/538 551/169/538
f 535/773/539 534/771/539 548/165/539 75/171/539
f 543/767/540 542/765/540 551/169/540 552/774/540
f 536/775/541 535/773/541 75/171/541 549/177/541
f 544/754/542 543/769/542 552/173/542 553/179/542
f 537/776/543 536/775/543 549/177/543 76/777/543
f 545/755/544 544/754/544 553/179/544 554/185/544
f 538/778/545 537/776/545 76/777/545 77/779/545
f 531/758/546 73/190/546 546/189/546
f 80/192/547 545/755/547 554/185/547
f 539/759/548 538/757/548 77/187/548 78/193/548
f 532/760/549 531/758/549 546/189/549 547/780/549
f 540/761/550 539/759/550 78/193/550 550/162/550
f 533/762/551 532/760/551 547/780/551 74/781/551
f 541/763/552 540/761/552 550/162/552 79/161/552
